<svg xmlns="http://www.w3.org/2000/svg" width="80mm" height="60mm" viewBox="0 0 226.77 170.08"><defs><style>.cls-1{fill:#c4c4c4;}.cls-2{fill:#b7b4b0;}.cls-3{fill:#fff;}.cls-3,.cls-4{stroke:#f2f1f0;}.cls-3,.cls-4,.cls-5{stroke-linecap:round;stroke-linejoin:round;}.cls-4{fill:#f2f1f0;}.cls-5,.cls-6{fill:#bf9a40;}.cls-5{stroke:#bf9a40;}.cls-7{fill:#a57d2c;}</style></defs><title>bath_icon</title><g id="startskærm"><g id="bad"><path class="cls-1" d="M10.55,56.11S44.3,82.85,48.44,95.91s29.77,40.28,46.49,37.25,19.42,4.46,19.42,4.46,35,4.62,54.13-1.59,22.6-5.26,30.24-12.74,2.39-21.49,14-39.16-202.18-28-202.18-28"/><path class="cls-2" d="M42.07,29.36s1.28,5.73-33.43,1.28c0,0-17.67,3.82-1.27,24.19,0,0,3.18,5.58,34.07,3.19,0,0,68.45,5.25,73.55,9.55,0,0,123.85,36.62,109.84,2.55,0,0,.48-8.28-4.77-9.87S42.07,29.36,42.07,29.36Z"/><path class="cls-3" d="M24.24,51S8.16,41.3,26.47,38.91c0,0,14.17-16.23,21.65-3.18,0,0-4.62-22.13,15-10.82,0,0,14.17-21.18,27.06-.64,0,0,11.94-28.5,29-1,0,0,26.27-3.66,18.15,18.79,0,0,9.08-43.78,28.66-23.56,0,0,13-23.09,22.61-.32s-11.15,22.29-11.15,22.29,12.74,4.45,5.73,15.6c0,0,5.42-10,8.92-4.46s11.46,6.69,11.46,6.69,4.14,7.16-1.59,11.46S189.65,74.1,179,73.3s-31.84-5.73-31.84-5.73-38.84-15.44-79-16.24S24.24,51,24.24,51Z"/><path class="cls-4" d="M69.38,27.7a6.1,6.1,0,0,1,6.15-4.83,9.89,9.89,0,0,0-4.62,5.83h-.73A1.39,1.39,0,0,1,70,27.1"/><path class="cls-4" d="M124.51,31.57a.64.64,0,0,1-.89,0,17.63,17.63,0,0,1,4.41-.32A8,8,0,0,1,133.12,33a3.9,3.9,0,0,1,.75,5l-6.42-4.48a7.66,7.66,0,0,0-1.61-.95,3.94,3.94,0,0,0-2.77,0l.44-1.65"/><path class="cls-4" d="M151.26,22.4l.94.36A7.19,7.19,0,0,1,158.6,20c1.37.15,3,1.16,2.66,2.5-3.22-1.41-6.87.48-9.87,2.32a1.73,1.73,0,0,1,1.48-2.37"/><path class="cls-5" d="M97.91,129.22s2.15-10.81,15.4-7.52c0,0,9.5.89-1.79,21.13-.47,1,.12,5.61,2.15,7.64s1.32,9.91-7.88,11.35-9.07-3.29-9.07-6.09,5-5.61,5.13-8.6S96.36,135.13,97.91,129.22Z"/><path class="cls-5" d="M187.57,125.64s-2.17-10.81-15.53-7.52c0,0-9.58.89,1.8,21.13.48,1-.12,5.61-2.16,7.64s-1.33,9.91,7.94,11.34,9.15-3.28,9.15-6.08-5-5.62-5.17-8.6S189.14,131.55,187.57,125.64Z"/><path class="cls-6" d="M210.33,57.8c-.59,2.07-4.87,2.67-9.56,1.34s-8-4.08-7.44-6.16c.4-1.43,2.57-2.16,5.43-2a18,18,0,0,1,4.13.69C207.59,53,210.92,55.73,210.33,57.8Z"/><path class="cls-6" d="M211.46,30.32s-11.48.45-12.07,19.77,5.7,1.78,5.7,1.78-.71-16.68,8-13.34.48,23.43.48,23.43l6.53.52S232.79,29.46,211.46,30.32Z"/><path class="cls-7" d="M209.44,58.29c-.33,1.38-4,1.7-8.24.71s-7.39-2.92-7.07-4.31c.23-.95,2.06-1.4,4.56-1.25a20.92,20.92,0,0,1,3.68.55C206.6,55,209.76,56.91,209.44,58.29Z"/></g></g></svg>
