<svg xmlns="http://www.w3.org/2000/svg" width="60mm" height="40mm" viewBox="0 0 170.08 113.39"><defs><style>.cls-1{fill:#ddd;}.cls-2{fill:#cfb3d6;}.cls-11,.cls-2{stroke:#cfb3d6;}.cls-10,.cls-11,.cls-2,.cls-3,.cls-4,.cls-5,.cls-6,.cls-7,.cls-8,.cls-9{stroke-linecap:round;stroke-linejoin:round;}.cls-3{fill:#b593c4;stroke:#b493c4;}.cls-4{fill:#398799;stroke:#398799;}.cls-11,.cls-4,.cls-5,.cls-6,.cls-7{stroke-width:2px;}.cls-11,.cls-12,.cls-5,.cls-8,.cls-9{fill:none;}.cls-5,.cls-6{stroke:#78acb5;}.cls-6{fill:#78acb5;}.cls-7{fill:#e2e2e2;stroke:#e2e2e2;}.cls-12,.cls-8{stroke:#c6c6c5;}.cls-10,.cls-9{stroke:#333;}.cls-10{fill:#333;}.cls-12{stroke-miterlimit:10;stroke-width:0.5px;}</style></defs><title>books_icon</title><g id="startskærm"><g id="bøger"><path class="cls-1" d="M158.76,37.13l-25,44.67,5.33,20.66s8.5-1.5,23.33-45.66C162.42,56.8,156.59,50.46,158.76,37.13Z"/><polygon class="cls-2" points="159.42 34.46 146.76 31.13 124.76 78.46 137.76 82.13 159.42 34.46"/><path class="cls-3" d="M20.76,75.13s-4.34,7.5-.34,21.33l121.67,6s-9.5-8.83-3.33-23.66Z"/><path class="cls-4" d="M7.76,50.21,114,62s-1.38,21.38,6.75,21.5L5,72.46S-3.49,60.59,7.76,50.21Z"/><path class="cls-5" d="M153,52.21c0,4.07-32.25,31.25-32.25,31.25"/><path class="cls-6" d="M48.76,8.21,149.51,24.46s-39,35-35.5,37.5L7.76,50.21Z"/><path class="cls-7" d="M114,62s9.62-12.5,35.5-37.5l3,25.25s-4.25,10.13-32.25,32C120.26,81.71,115.38,85.71,114,62Z"/><line class="cls-8" x1="150.76" y1="30.21" x2="113.51" y2="67.21"/><line class="cls-8" x1="150.76" y1="25.96" x2="113.26" y2="64.46"/><line class="cls-8" x1="113.76" y1="69.71" x2="151.76" y2="33.96"/><line class="cls-8" x1="114.26" y1="73.46" x2="152.26" y2="39.96"/><line class="cls-8" x1="149.51" y1="24.46" x2="114.01" y2="61.96"/><line class="cls-8" x1="114.76" y1="76.71" x2="152.76" y2="44.96"/><line class="cls-8" x1="120.26" y1="81.71" x2="153.51" y2="48.21"/><line class="cls-8" x1="116.26" y1="80.21" x2="152.76" y2="46.46"/><path class="cls-9" d="M33.83,42a5.39,5.39,0,0,0-3.16-.76,1.87,1.87,0,0,0-1.39.62,1.48,1.48,0,0,0-.2,1.13,3,3,0,0,0,1.73,2,7.22,7.22,0,0,0,2.72.55,38.39,38.39,0,0,1,5.15.32A6.42,6.42,0,0,1,43,48.5,1.52,1.52,0,0,1,43.22,50a1.47,1.47,0,0,1-.51.48,4.17,4.17,0,0,1-3.1.43,8.85,8.85,0,0,1-2.91-1.34"/><path class="cls-9" d="M39.39,43.58a19.54,19.54,0,0,0,.89-2.23,1.73,1.73,0,0,0,.09-1.2,1.93,1.93,0,0,0-.6-.67C38.35,38.36,36.84,37.19,35,37a1.48,1.48,0,0,0-1.31.33,1.16,1.16,0,0,0-.15,1.18,3.23,3.23,0,0,0,.73,1A39.33,39.33,0,0,0,39.25,44a9.66,9.66,0,0,0,4.85,2.24,1.93,1.93,0,0,0,1.84-.68,1.57,1.57,0,0,0-.16-1.67,4.58,4.58,0,0,0-1.36-1.15"/><path class="cls-9" d="M35.79,34.1l3.24,2a36.33,36.33,0,0,1,3.31,2.18c1.53,1.18,2.87,2.62,4.49,3.66a3.08,3.08,0,0,0,1.28.54,1.23,1.23,0,0,0,1.2-.53"/><path class="cls-9" d="M39.26,28.45c-.47-.45-1.3.22-1.22.87a2.47,2.47,0,0,0,1.19,1.5q6,4.4,12.2,8.64"/><path class="cls-9" d="M42.69,34.51a3.12,3.12,0,0,0,1.59-1.85"/><path class="cls-9" d="M41.51,24.69Q47,28.88,52.83,32.54a3.87,3.87,0,0,0,1.06.52,2,2,0,0,0,2-.67"/><path class="cls-9" d="M46.34,22.83a36.92,36.92,0,0,0,7.71,6.3,3.38,3.38,0,0,0,2,.58,1.3,1.3,0,0,0,1.24-1.38,1.8,1.8,0,0,0-.41-.74,20.15,20.15,0,0,0-4.75-3.91c-1.74-1.14-3.58-2.78-5.49-3.59C44.31,19.11,45.44,21.92,46.34,22.83Z"/><path class="cls-9" d="M46.53,18.07c4.57,1.66,8.41,4.89,12.81,7a.49.49,0,0,0,.29.06c.26-.06.21-.45.08-.69a15.21,15.21,0,0,0-3.56-3.87Q52.41,17.28,49,13.67l.22.19"/><path class="cls-9" d="M56.69,17.28l1.39-1.88a1.11,1.11,0,0,0,.26-.56c0-.36-.3-.63-.6-.84a30.23,30.23,0,0,0-4-2.38A3.62,3.62,0,0,0,51,11.13a4.13,4.13,0,0,0,1.51,2.34,60.38,60.38,0,0,0,7.65,6.17,4.23,4.23,0,0,0,1.8.83,1.49,1.49,0,0,0,1.61-.87,1.49,1.49,0,0,0-.48-1.46,4.32,4.32,0,0,0-1.4-.8"/><path class="cls-9" d="M50.87,84.37A3.1,3.1,0,0,0,49.38,82a3.68,3.68,0,0,0-1.88-.72,3.64,3.64,0,0,0-1.62.24c-1.05.42-1.43,1.15-1.29,1.85a4.49,4.49,0,0,0,1.42,2,31.13,31.13,0,0,1,3.61,3.54c.91,1.24,1.2,2.64,0,3.75a2.51,2.51,0,0,1-1.77.66,4.19,4.19,0,0,1-1-.18,5.3,5.3,0,0,1-3-1.93,3.68,3.68,0,0,1-.55-2.39"/><path class="cls-9" d="M53.19,88.61c1.2,0,2.39-.07,3.57-.15a3.94,3.94,0,0,0,1.63-.35.89.89,0,0,0,.38-.62c.35-1.32.67-2.73-.46-4a2.27,2.27,0,0,0-1.45-.76,2.62,2.62,0,0,0-1.65.3,2.17,2.17,0,0,0-.75.83,16.1,16.1,0,0,0-1.87,4.79,4,4,0,0,0,.9,4,3.46,3.46,0,0,0,2.31,1,2.74,2.74,0,0,0,2-.67,1.92,1.92,0,0,0,.42-1.29"/><path class="cls-9" d="M62.61,83v2.82a13.2,13.2,0,0,1-.22,2.94c-.33,1.42-1.13,2.79-1.21,4.23a1.28,1.28,0,0,0,.31,1,2.35,2.35,0,0,0,1.61.63"/><path class="cls-9" d="M72.62,83.45c.2-.47-1.31-.8-2.09-.52a1.44,1.44,0,0,0-1,1.29q-1,5.52-1.61,11"/><path class="cls-9" d="M79.22,83.69A54.1,54.1,0,0,0,78,93.88a1.48,1.48,0,0,0,.16.89,3.39,3.39,0,0,0,2.4,1.08"/><path class="cls-9" d="M85.4,86.29c-1.19,2.36-2.26,4.78-2.09,7.26a1.8,1.8,0,0,0,.78,1.52,3.47,3.47,0,0,0,2.75.36,1.53,1.53,0,0,0,.65-.52,7.94,7.94,0,0,0,1.31-4.49c.12-1.54.79-3.32.35-4.87C88.61,83.69,85.86,85.38,85.4,86.29Z"/><path class="cls-9" d="M91.7,84.82c1.43,3.61.25,7.26,1,10.9a.29.29,0,0,0,.14.21,1,1,0,0,0,1-.18A7.37,7.37,0,0,0,96,92.08,44.38,44.38,0,0,1,99.32,85l-.08.22"/><path class="cls-9" d="M100.66,91.34l3.52.3a3.53,3.53,0,0,0,.92,0,.73.73,0,0,0,.62-.69,11.82,11.82,0,0,0-.06-3.46,2.38,2.38,0,0,0-1.53-2,2.93,2.93,0,0,0-1.85,1.79,23.66,23.66,0,0,0-2,7.18,1.72,1.72,0,0,0,.34,1.47,3.14,3.14,0,0,0,2.39.79,1.77,1.77,0,0,0,1.51-.81,1.7,1.7,0,0,0-.08-1.21"/><path class="cls-9" d="M66.83,88.06a15.08,15.08,0,0,0,4.16.4"/><path class="cls-10" d="M88.85,44.52c-3.7,1.7-7.71,3.26-11.74,2.67S69.22,43.05,69.72,39s5.46-6.67,9.57-5.81A12.78,12.78,0,0,1,78.1,23a5,5,0,0,1,1.27-2.23c1.34-1.23,3.52-1,5,0a14.34,14.34,0,0,1,3.64,4c4.09,5.66,9.1,10,14.31,14.49-1.23,2-3.86,1.65-5.92,2.21A49.79,49.79,0,0,0,88.85,44.52Z"/><path class="cls-11" d="M163.09,59.46s-19.17,42.67-21,43"/><line class="cls-12" x1="161.09" y1="54.13" x2="139.09" y2="97.8"/><line class="cls-12" x1="137.42" y1="93.46" x2="159.76" y2="50.46"/><line class="cls-12" x1="140.09" y1="98.8" x2="163.42" y2="57.8"/><line class="cls-12" x1="157.42" y1="45.46" x2="136.76" y2="87.46"/><line class="cls-12" x1="158.76" y1="47.46" x2="137.42" y2="90.13"/></g></g></svg>
