<svg xmlns="http://www.w3.org/2000/svg" width="70mm" height="90mm" viewBox="0 0 198.43 255.12"><defs><style>.cls-1{fill:#bea7c6;stroke:#bea7c6;}.cls-1,.cls-4{stroke-miterlimit:10;}.cls-2{fill:#b1a48b;}.cls-2,.cls-4{stroke:#a29681;}.cls-2,.cls-5,.cls-6,.cls-7,.cls-8{stroke-linecap:round;stroke-linejoin:round;}.cls-3,.cls-4,.cls-8{fill:none;}.cls-4{stroke-width:3px;}.cls-5{fill:#e2d8cc;stroke:#e2d8cc;}.cls-6{fill:#d0c7ba;stroke:#d0c7ba;}.cls-7{fill:#d3c2a9;stroke:#d3c2a9;}.cls-8{stroke:#c0c3ce;}.cls-9{fill:#686259;}</style></defs><title>coffee_icon</title><g id="startskærm"><g id="coffee"><path class="cls-1" d="M54.21,98s6.17,92.67,28.67,137.33c0,0,11,3.5,64.66-8.66,0,0,13.84-25.67-3.33-117.67l-2.33-18.67Z"/><path class="cls-2" d="M58.21,143.65s-.83,24.33,6.33,46.66a48.48,48.48,0,0,0,9.54,2c12.72,1.64,38.33,2,77.8-10.65,0,0,4.83-11.67-1.67-48.67,0,0-17.79,10.62-81,10.75C65.69,143.73,62,143.71,58.21,143.65Z"/><path class="cls-3" d="M69.2,143a436.87,436.87,0,0,0,6.07,48.62"/><path class="cls-4" d="M85,143a129.67,129.67,0,0,0,2,49.22"/><path class="cls-4" d="M97.87,143.31a450.61,450.61,0,0,0,1.88,48.32"/><path class="cls-4" d="M111.91,141.6a286,286,0,0,1,2.26,48.06"/><path class="cls-4" d="M125.33,139.25c3.65,8.64,4.09,18.25,4.48,27.62l.81,19.44"/><path class="cls-4" d="M136.52,138l3.59,23.71c1.09,7.18,2.18,14.47,1.25,21.67"/><path class="cls-4" d="M149,134.6q1.46,14.44,1.93,29c.19,6,.25,12.16-.91,18.1"/><path class="cls-4" d="M71.12,144a330.77,330.77,0,0,0,4,47.34"/><path class="cls-4" d="M61,144.31a164.91,164.91,0,0,0,5,46.71"/><ellipse class="cls-5" cx="97.59" cy="83.88" rx="43.42" ry="7.84" transform="translate(-4.75 5.87) rotate(-3.36)"/><path class="cls-6" d="M141.83,80.31l2.38,14.61s-2.16.41-5.81,1.06c-19.66,3.49-82.61,13.94-84.19,4.85v-15S79.1,104.66,141.83,80.31Z"/><path class="cls-7" d="M52.88,99a88.71,88.71,0,0,0,1.66,18.67s21.84,4.83,92.34-9c0,0,1.16-10.17-2-18.34C144.88,90.31,98.38,104,52.88,99Z"/><path class="cls-8" d="M104.93,69c1.4-9.33,9.14-16.44,17.3-21.15s17.27-7.9,24.71-13.69a12.27,12.27,0,0,0,3.87-4.4c1.9-4.29-1-9.33-4.73-12.13a20.81,20.81,0,0,0-17.22-3.44c-3.49.88-7.05,3.08-7.86,6.59-.86,3.76,1.83,7.55,5.14,9.52a10.69,10.69,0,0,0,7.15,1.61,6.43,6.43,0,0,0,5.23-4.71c.5-2.45-1.25-5.26-3.73-5.48s-4.76,2.77-3.56,4.95"/><path class="cls-8" d="M90.83,69.05c-2.26-1.11-3.46-3.59-4.4-5.92-4.89-12.08-7.59-25.23-14.87-36-4.52-6.7-12.08-12.67-20-11-5.69,1.18-10.12,6.4-11,12.15a18.33,18.33,0,0,0,5.88,15.69,15.66,15.66,0,0,0,10.09,4.46A10.54,10.54,0,0,0,66,43.29c2.16-4,.9-9.13-1.94-12.65a12.38,12.38,0,0,0-8.13-4.77A8.22,8.22,0,0,0,47.83,30c-1.42,2.9-.23,7,2.74,8.19A3.77,3.77,0,0,0,55,37.24c1-1.35.07-3.7-1.58-3.7"/><path class="cls-8" d="M74.85,72.44C64.19,63,48.79,61.47,34.56,61.75c-7.28.15-15.06.84-20.76,5.37A18.14,18.14,0,0,0,25.43,99.46c4.34-.08,8.81-1.94,11.23-5.54C40,89,38.57,82,34.59,77.58a12.41,12.41,0,0,0-7.28-4.16,7.86,7.86,0,0,0-7.52,3.07c-1.6,2.36-1.25,6,1,7.68s6.21.61,7-2.14c.55-2-1.92-4.59-3.51-3.19"/><path class="cls-8" d="M128.9,65.8a66.39,66.39,0,0,1,20.67-22.37A28.48,28.48,0,0,1,160,38.68c6.15-1.15,12.44,1,18.1,3.61,4.81,2.25,9.82,5.43,11.22,10.55a13.37,13.37,0,0,1-.17,7c-2.1,7.74-9.86,13.71-17.87,13.27S156,65.47,156,57.45A10.25,10.25,0,0,1,157.94,51a8.64,8.64,0,0,1,3.64-2.64c5.41-2.14,12.31,1.71,13.33,7.44a7.17,7.17,0,0,1-1.19,5.69A4.62,4.62,0,0,1,168.37,63c-1.81-.85-2.63-3.47-1.37-5,.36-.43.87-.86.79-1.41s-1.23-.34-.87.09"/><path class="cls-9" d="M93.62,165.47a13.7,13.7,0,0,0,.83,7.43,7.16,7.16,0,0,0,5.76,4.32,11.1,11.1,0,0,0,3.73-.62,2.53,2.53,0,0,0,1.2-.6,2.17,2.17,0,0,0,.45-1.26,11.92,11.92,0,0,0-.58-5.3c-1-2.8-3.13-5.19-3.88-8.07-.52-2,1.58-7.5.5-8.62C97.85,148.79,93.86,163.49,93.62,165.47Z"/><path class="cls-9" d="M105.43,153.19a4.39,4.39,0,0,1,1.67-.77c1.49-.27,2.9.75,4,1.84a21.66,21.66,0,0,1,5.4,11.44c1,5.67-.09,12.2-4.56,15.81-1.31,1.06-3.43,1.73-4.53.46a3.06,3.06,0,0,1-.57-2.19c.39-6.59,3.26-8.7-1.54-14.6C102,161.18,100.24,156.81,105.43,153.19Z"/></g></g></svg>
