<svg xmlns="http://www.w3.org/2000/svg" width="60mm" height="60mm" viewBox="0 0 170.08 170.08"><defs><style>.cls-1{fill:#3058a7;}.cls-2{fill:#ddb8d0;}</style></defs><title>control_icon</title><g id="startskærm"><path class="cls-1" d="M128.94,85H143a7.6,7.6,0,0,1,7.6,7.6v21.16a0,0,0,0,1,0,0H121.34a0,0,0,0,1,0,0V92.63A7.6,7.6,0,0,1,128.94,85Z" transform="translate(263.65 -10.44) rotate(103.12)"/><path class="cls-1" d="M120.77,42.21h14.06a7.6,7.6,0,0,1,7.6,7.6V71a0,0,0,0,1,0,0H113.17a0,0,0,0,1,0,0V49.82A7.6,7.6,0,0,1,120.77,42.21Z" transform="translate(106.12 -81.48) rotate(57.19)"/><path class="cls-1" d="M82.53,18.36H96.59a7.6,7.6,0,0,1,7.6,7.6V47.12a0,0,0,0,1,0,0H74.93a0,0,0,0,1,0,0V26a7.6,7.6,0,0,1,7.6-7.6Z" transform="translate(5.06 -11.46) rotate(7.53)"/><path class="cls-1" d="M23.05,78.49H37.11a7.6,7.6,0,0,1,7.6,7.6v21.16a0,0,0,0,1,0,0H15.45a0,0,0,0,1,0,0V86.09A7.6,7.6,0,0,1,23.05,78.49Z" transform="translate(-56.53 137.91) rotate(-99.53)"/><path class="cls-1" d="M49,116.24H63a7.6,7.6,0,0,1,7.6,7.6V145a0,0,0,0,1,0,0H41.38a0,0,0,0,1,0,0V123.84A7.6,7.6,0,0,1,49,116.24Z" transform="translate(27.02 269.75) rotate(-145.02)"/><path class="cls-1" d="M97.74,122H111.8a7.6,7.6,0,0,1,7.6,7.6v21.16a0,0,0,0,1,0,0H90.14a0,0,0,0,1,0,0V129.63a7.6,7.6,0,0,1,7.6-7.6Z" transform="translate(257.33 215.84) rotate(155.03)"/><circle class="cls-1" cx="83.69" cy="86.82" r="44.28"/><path class="cls-1" d="M39.4,34H53.45a7.6,7.6,0,0,1,7.6,7.6V62.8a0,0,0,0,1,0,0H31.79a0,0,0,0,1,0,0V41.65A7.6,7.6,0,0,1,39.4,34Z" transform="translate(-20.64 47.01) rotate(-45)"/><circle class="cls-2" cx="82.71" cy="87.8" r="22.71"/></g></svg>
