<svg xmlns="http://www.w3.org/2000/svg" width="230mm" height="200mm" viewBox="0 0 651.97 566.93"><defs><style>.cls-1{fill:#b58e47;}.cls-2{fill:#fff;stroke:#fff;stroke-linecap:round;stroke-linejoin:round;stroke-width:2px;}.cls-3{fill:#231f20;}</style></defs><title>controlpanel</title><g id="startskærm"><path class="cls-1" d="M53.65,129.28C36.08,130.62,21,146.94,21,164.56s15.18,33.88,32.75,35.16c-19.68,1.46-36.9,19-38.05,38.67S29.66,277.47,49,281.2C29.92,279.08,14.36,301.14,18.2,320s21.53,32.36,40.12,37.32c-20.93.36-39.44,20.35-38.18,41.25S42.16,437.1,63,435C43.54,440.72,24.4,454.4,20.7,474.34S37.31,517,56.15,509.48c2.55,17.88,16.1,34.7,33.94,37.53s37.47-11.9,36.72-29.94c4.56,15.4,16.58,29.77,32.49,31.95s33.32-12.67,29.62-28.31c-1.7,19.64,16.18,38.67,35.88,38.21s36.66-20.32,34-39.86c9.74,43.39,30.76,29.71,38.23,21.52s15.43-23.2,15.43-23.2c4,16.54,18.36,31.07,35.35,31.78s33.67-15.61,30.42-32.3c9.5,15.54,24.52,29.79,42.73,30.31s36.11-19.6,27.81-35.82c10.72,13.3,22.58,27.35,39.1,31.68s37.88-7.13,36.49-24.16c10.27,7.39,21.12,15,33.67,16.55s27.11-5.4,29.46-17.82c15.82.64,31.37-10.46,35.91-25.62s-2.34-33-15.9-41.16c13.66-3.59,24-17.14,23.89-31.27S620.7,392.06,607,388.71c14.42-2,26.42-15.27,26.89-29.81S623.21,330.3,609,327.42c14.33-8.38,26.52-23.14,25.81-39.73s-19.42-31.58-34.3-24.21c13-10.36,23.77-25.13,24.54-41.76s-11.28-34.28-27.89-35.45c23.83-2.46,42.93-27.18,39.29-50.87s-29.27-41.53-52.75-36.73c23.68-11.9,28.8-49.15,9.23-67S536.68,22.34,527,47c-11.78-17.81-29.42-33.07-50.54-36.24s-45.12,9.08-50.13,29.84c-1.64-21.81-26.06-37.44-47.57-33.5s-37.95,23.56-42.53,44.95c-2.64-18.34-19.59-33.55-38.1-34.2s-36.49,13.35-40.4,31.46c.68-23.14-18.06-45.93-41.15-47.47s-45.43,20.9-41.71,43.74C166.1,32,153.11,19.39,137,17.85s-33.73,13.2-29.82,28.93c-4.31-10-8.82-20.28-16.68-27.82C48.78-21-35.23,136.33,53.65,129.28Z"/><path class="cls-2" d="M86.68,97.77S46.05,420.29,94.3,468.54s463.46,21.58,469.8,15.23S620,182.84,548.87,82.53C548.87,82.53,89.22,43.17,86.68,97.77Z"/><path class="cls-3" d="M291.67,143.38a22.34,22.34,0,0,1-3.82,4.52,30,30,0,0,1-5.49,4,30.75,30.75,0,0,1-6.72,2.89,25.92,25.92,0,0,1-7.52,1.1,34.48,34.48,0,0,1-6.06-.54,29.91,29.91,0,0,1-5.8-1.66,24.81,24.81,0,0,1-5.17-2.81,19.58,19.58,0,0,1-4.17-4,18.41,18.41,0,0,1-2.78-5.27,20.19,20.19,0,0,1-1-6.55,21.32,21.32,0,0,1,1-6.68,22.62,22.62,0,0,1,2.91-5.84,24.75,24.75,0,0,1,4.41-4.86,28.07,28.07,0,0,1,5.6-3.68,29.48,29.48,0,0,1,6.4-2.33,28.87,28.87,0,0,1,6.89-.82,28.05,28.05,0,0,1,7.29.92,20.31,20.31,0,0,1,6,2.59,13.3,13.3,0,0,1,4,4,9.35,9.35,0,0,1,1.49,5.18,10.85,10.85,0,0,1-1.23,5,13.56,13.56,0,0,1-3.38,4.19,16.52,16.52,0,0,1-5,2.86,17.63,17.63,0,0,1-6.11,1,15.26,15.26,0,0,1-4.64-.64,9.77,9.77,0,0,1-3.36-1.79,7.57,7.57,0,0,1-2.05-2.68,8,8,0,0,1-.69-3.31,7.48,7.48,0,0,1,.47-2.69,11.64,11.64,0,0,1,1-2.09,8.2,8.2,0,0,1,1.05-1.37l.56-.55a.7.7,0,0,1,.34-.2,1.69,1.69,0,0,1,.38,0,1.16,1.16,0,0,1,.81.3,1,1,0,0,1,.33.78,1.17,1.17,0,0,1-.39.9,3.93,3.93,0,0,0-.42.41,7,7,0,0,0-.78,1,8.29,8.29,0,0,0-.77,1.55,5.49,5.49,0,0,0-.34,2,5.16,5.16,0,0,0,.76,2.89,6.09,6.09,0,0,0,2,1.91,8.87,8.87,0,0,0,2.74,1,14.59,14.59,0,0,0,3,.32,15.05,15.05,0,0,0,9.53-3.31,11.59,11.59,0,0,0,2.89-3.46,8.5,8.5,0,0,0,1.05-4.09,7.37,7.37,0,0,0-1.33-4.28A11.29,11.29,0,0,0,282,116a19.11,19.11,0,0,0-5.28-2.12,26.77,26.77,0,0,0-6.45-.75,25.67,25.67,0,0,0-5.43.61A28.78,28.78,0,0,0,254,118.66a21.36,21.36,0,0,0-4.41,4.29,20.67,20.67,0,0,0-3,5.48,19,19,0,0,0-1.13,6.65,18,18,0,0,0,.92,5.92,15.92,15.92,0,0,0,2.54,4.71,17.38,17.38,0,0,0,3.8,3.56,23.1,23.1,0,0,0,4.69,2.48,27.16,27.16,0,0,0,5.25,1.45,32.48,32.48,0,0,0,5.44.46,24,24,0,0,0,6.95-1,29.82,29.82,0,0,0,6.18-2.65,28,28,0,0,0,5-3.68,20.89,20.89,0,0,0,3.48-4.12,1,1,0,0,1,.42-.41,1.34,1.34,0,0,1,.58-.14,1,1,0,0,1,.81.35,1.15,1.15,0,0,1,.3.77,1.53,1.53,0,0,1,0,.3A.94.94,0,0,1,291.67,143.38Z"/><path class="cls-3" d="M308.63,151.23a6.63,6.63,0,0,1-1.33-.12,9.17,9.17,0,0,1-1.08,1.67,7.11,7.11,0,0,1-1.46,1.33,7.25,7.25,0,0,1-1.85.91,7.18,7.18,0,0,1-2.22.33,6.61,6.61,0,0,1-2.59-.5,6.24,6.24,0,0,1-2-1.38,6.37,6.37,0,0,1-1.36-2.14,7.6,7.6,0,0,1-.48-2.75,7.48,7.48,0,0,1,.7-3.35,9.32,9.32,0,0,1,1.59-2.38,6.94,6.94,0,0,1,1.8-1.41,3.44,3.44,0,0,1,1.36-.47,1,1,0,0,1,.76.27,1,1,0,0,1,.26.72.93.93,0,0,1-.32.77,4.32,4.32,0,0,1-.79.5,5.77,5.77,0,0,0-1,.67,5.63,5.63,0,0,0-1,1.1,5.89,5.89,0,0,0-.77,1.57,6.33,6.33,0,0,0-.3,2,5.56,5.56,0,0,0,.3,1.85,4.08,4.08,0,0,0,2.23,2.44,4.25,4.25,0,0,0,1.74.34,4.74,4.74,0,0,0,2.84-.8,5.23,5.23,0,0,0,1.73-2,7.86,7.86,0,0,1-2.92-2.64,6.8,6.8,0,0,1-1.14-3.85,4.5,4.5,0,0,1,.83-2.8,2.61,2.61,0,0,1,2.18-1.08,3.17,3.17,0,0,1,1.53.39,3.64,3.64,0,0,1,1.28,1.23,7.42,7.42,0,0,1,.89,2.17,13.16,13.16,0,0,1,.33,3.16,9,9,0,0,1-.24,2,2.19,2.19,0,0,0,.36,0h.39a6.44,6.44,0,0,0,1.83-.24,5,5,0,0,0,1.48-.72,5.14,5.14,0,0,0,1.18-1.23,12.84,12.84,0,0,0,1-1.75.9.9,0,0,1,.39-.34,1.24,1.24,0,0,1,.6-.17,1.09,1.09,0,0,1,.74.32,1.06,1.06,0,0,1,.35.82,1.6,1.6,0,0,1-.12.53l-.25.53a12.91,12.91,0,0,1-1.18,1.73,7.36,7.36,0,0,1-1.6,1.44,7.73,7.73,0,0,1-4.61,1.31Zm-5.14-7.58a4.69,4.69,0,0,0,.15,1.2,5.56,5.56,0,0,0,.46,1.25,6.27,6.27,0,0,0,.78,1.17,4.57,4.57,0,0,0,1.1.95,8.69,8.69,0,0,0,.09-1.23,11.8,11.8,0,0,0-.12-1.66,9.82,9.82,0,0,0-.34-1.55,4,4,0,0,0-.56-1.14,1,1,0,0,0-.78-.43.84.84,0,0,0-.48.27A1.61,1.61,0,0,0,303.49,143.65Z"/><path class="cls-3" d="M320.9,151.83c.32-.66.69-1.39,1.11-2.18s.87-1.6,1.35-2.41,1-1.62,1.52-2.42,1.09-1.56,1.67-2.28a5.85,5.85,0,0,1,1.76-1.52,3.63,3.63,0,0,1,1.67-.47,2.57,2.57,0,0,1,2.31,1.14,5.08,5.08,0,0,1,.75,2.83c0,.26,0,.58,0,.95s-.06.77-.09,1.19l-.09,1.27c0,.44-.05.84-.05,1.22a12.2,12.2,0,0,0,.08,1.38,4.11,4.11,0,0,0,.28,1.16,1.77,1.77,0,0,0,.61.78,1.69,1.69,0,0,0,1,.29,3.48,3.48,0,0,0,2.22-.89,12.15,12.15,0,0,0,2-2.1,19.29,19.29,0,0,0,1.6-2.48c.45-.84.78-1.53,1-2a1.16,1.16,0,0,1,1.06-.69,1,1,0,0,1,.82.38,1.21,1.21,0,0,1,.32.79,1.06,1.06,0,0,1-.09.42l-.48,1c-.24.5-.56,1.07-.95,1.73s-.85,1.34-1.37,2.07a13.89,13.89,0,0,1-1.73,2,9.74,9.74,0,0,1-2,1.5,4.73,4.73,0,0,1-2.3.6,4.12,4.12,0,0,1-2.2-.52,3.8,3.8,0,0,1-1.32-1.38,5.78,5.78,0,0,1-.65-1.9,13.28,13.28,0,0,1-.16-2.09c0-.3,0-.64,0-1s.07-.78.12-1.2.09-.85.12-1.27.05-.82.05-1.2a2.08,2.08,0,0,0-.3-1.31.79.79,0,0,0-.54-.34,1.75,1.75,0,0,0-1.1.55,10.31,10.31,0,0,0-1.29,1.46c-.45.6-.92,1.28-1.39,2s-.91,1.5-1.32,2.24-.79,1.45-1.14,2.12-.63,1.23-.83,1.67a4.49,4.49,0,0,1-1.2,1.7,2.08,2.08,0,0,1-1.23.44,1.88,1.88,0,0,1-1.4-.53,2,2,0,0,1-.53-1.49c0-.14,0-.42.06-.83s.09-.9.15-1.47.12-1.19.18-1.85l.18-2c.06-.65.11-1.26.15-1.82s.06-1,.06-1.41,0-1-.06-1.44-.12-.75-.24-.85c-.18.06-.5.44-1,1.13a23.57,23.57,0,0,0-1.77,3.65,1.11,1.11,0,0,1-.46.52,1.21,1.21,0,0,1-.63.18,1,1,0,0,1-.81-.35,1.19,1.19,0,0,1-.3-.8,1.29,1.29,0,0,1,.09-.45,21.57,21.57,0,0,1,2.54-4.73,3.18,3.18,0,0,1,2.36-1.52,2,2,0,0,1,1.17.34,2.48,2.48,0,0,1,.77.92,4.91,4.91,0,0,1,.42,1.26,7.51,7.51,0,0,1,.14,1.42c0,.36,0,.92-.08,1.68s-.11,1.58-.19,2.45-.16,1.74-.23,2.6S321,151.25,320.9,151.83Z"/><path class="cls-3" d="M366,124.43a1,1,0,0,1-.33.77,1.2,1.2,0,0,1-.81.29H349.58v.33a30.5,30.5,0,0,1-.27,3.91c-.18,1.38-.42,2.76-.73,4.13s-.67,2.71-1.06,4-.79,2.5-1.2,3.6a31.27,31.27,0,0,1-1.22,2.88,10.3,10.3,0,0,1-1.08,1.81,18.16,18.16,0,0,0,.93,2.58,10.76,10.76,0,0,0,1.22,2.07,6,6,0,0,0,1.46,1.4,3,3,0,0,0,1.68.51,3.23,3.23,0,0,0,2.09-.89,12.64,12.64,0,0,0,1.93-2.1,22.06,22.06,0,0,0,1.56-2.47,20.48,20.48,0,0,0,1-2,1.13,1.13,0,0,1,1.88-.36,1.16,1.16,0,0,1,.31.78,1.06,1.06,0,0,1-.09.42c-.06.14-.2.47-.43,1s-.54,1.08-.91,1.74-.8,1.36-1.29,2.09a12.82,12.82,0,0,1-1.65,2,9.6,9.6,0,0,1-2,1.5,4.45,4.45,0,0,1-2.23.61,5.78,5.78,0,0,1-3.73-1.36,10.69,10.69,0,0,1-2.81-3.79,22.83,22.83,0,0,1-1.76-5.77,41.43,41.43,0,0,1-.6-7.31c0-.66,0-1.43,0-2.33s.06-1.83.12-2.82.15-2,.27-3.07.28-2.08.48-3.08H330.7a1.2,1.2,0,0,1-.81-.29,1.05,1.05,0,0,1,0-1.53,1.2,1.2,0,0,1,.81-.29H342a13.87,13.87,0,0,1,.71-2,7.66,7.66,0,0,1,.93-1.57,4.21,4.21,0,0,1,1.18-1,2.77,2.77,0,0,1,1.42-.38,2.27,2.27,0,0,1,1.31.38,3.16,3.16,0,0,1,.95,1,6.05,6.05,0,0,1,.62,1.57,15.06,15.06,0,0,1,.34,2h15.37a1.2,1.2,0,0,1,.81.29A1,1,0,0,1,366,124.43Zm-22.64,18.74a39.57,39.57,0,0,0,1.64-4.29c.49-1.53.91-3.08,1.26-4.64s.62-3.1.81-4.6a33.48,33.48,0,0,0,.29-4.15h-3.55a36.86,36.86,0,0,0-.68,4.61q-.25,2.76-.25,6.69c0,1.47,0,2.69.12,3.69A23.46,23.46,0,0,0,343.33,143.17Zm2.79-22.49c-.18,0-.44.19-.78.58a6.59,6.59,0,0,0-1,2.12h2.89a8.17,8.17,0,0,0-.44-2C346.58,120.92,346.37,120.68,346.12,120.68Z"/><path class="cls-3" d="M359.14,142.18a14.94,14.94,0,0,1-.3,1.51c-.12.47-.23.89-.34,1.24s-.21.63-.29.85a2,2,0,0,1-.15.36,1.06,1.06,0,0,1-1.05.7,1.17,1.17,0,0,1-.78-.32,1,1,0,0,1-.36-.8.49.49,0,0,1,.06-.27,2.86,2.86,0,0,0,.18-.36,7.63,7.63,0,0,0,.3-.9q.18-.63.45-1.95l-1.05,0a3,3,0,0,1-1-.22,1.75,1.75,0,0,1-.77-.57,1.73,1.73,0,0,1-.3-1.08A4.78,4.78,0,0,1,354,139a9.61,9.61,0,0,1,.76-1.72,7.53,7.53,0,0,1,1.09-1.45,1.68,1.68,0,0,1,1.2-.62,1.42,1.42,0,0,1,1.13.51,3.65,3.65,0,0,1,.67,1.25,8.54,8.54,0,0,1,.35,1.55,11.26,11.26,0,0,1,.11,1.41c.34,0,.67,0,1,0h.95a4,4,0,0,1,2.62.75,3.06,3.06,0,0,1,.9,2.47,12.1,12.1,0,0,1-.09,1.44c-.06.5-.13,1-.21,1.55s-.15,1.06-.21,1.58a13.34,13.34,0,0,0-.09,1.53,4.61,4.61,0,0,0,.3,1.79,3.28,3.28,0,0,0,.75,1.13,2.43,2.43,0,0,0,1,.58,3.06,3.06,0,0,0,.93.17,4.05,4.05,0,0,0,2.44-.84,11.47,11.47,0,0,0,2.1-2,18.65,18.65,0,0,0,1.73-2.51c.51-.88.94-1.66,1.28-2.32a1.06,1.06,0,0,1,.42-.42,1.16,1.16,0,0,1,.57-.15,1.06,1.06,0,0,1,.84.35,1.14,1.14,0,0,1,.31.76,1.24,1.24,0,0,1-.13.55c-.46.82-1,1.74-1.6,2.78a20.73,20.73,0,0,1-2.09,2.9,12.32,12.32,0,0,1-2.63,2.28,5.87,5.87,0,0,1-3.21.94,5.2,5.2,0,0,1-2-.41,4.77,4.77,0,0,1-1.67-1.17,5.74,5.74,0,0,1-1.13-1.9,7.24,7.24,0,0,1-.42-2.54,15.09,15.09,0,0,1,.3-3,14.37,14.37,0,0,0,.3-2.84,1.26,1.26,0,0,0-.25-.86,1.57,1.57,0,0,0-1.13-.28h-.92Zm-2-2.23c0-.14,0-.33,0-.56s0-.45-.07-.67a3.53,3.53,0,0,0-.12-.57c-.05-.16-.1-.24-.16-.24s-.14.07-.23.22-.18.33-.28.54a6,6,0,0,0-.27.68q-.12.36-.18.6Z"/><path class="cls-3" d="M388.52,151.23a6.46,6.46,0,0,1-1.32-.12,9.17,9.17,0,0,1-1.08,1.67,7.11,7.11,0,0,1-1.46,1.33,7.41,7.41,0,0,1-1.85.91,7.19,7.19,0,0,1-2.23.33,6.56,6.56,0,0,1-2.58-.5,6.28,6.28,0,0,1-2.05-1.38,6.2,6.2,0,0,1-1.35-2.14,8.31,8.31,0,0,1,.21-6.1,9.32,9.32,0,0,1,1.59-2.38,7.14,7.14,0,0,1,1.81-1.41,3.4,3.4,0,0,1,1.35-.47,1,1,0,0,1,.77.27,1,1,0,0,1,.25.72.92.92,0,0,1-.31.77,4.43,4.43,0,0,1-.8.5,5.51,5.51,0,0,0-2,1.77,5.89,5.89,0,0,0-.77,1.57,6.33,6.33,0,0,0-.3,2,5.56,5.56,0,0,0,.3,1.85,4.18,4.18,0,0,0,.88,1.47,4,4,0,0,0,3.09,1.31,4.77,4.77,0,0,0,2.85-.8,5.21,5.21,0,0,0,1.72-2,7.84,7.84,0,0,1-2.91-2.64,6.8,6.8,0,0,1-1.14-3.85,4.5,4.5,0,0,1,.82-2.8,2.61,2.61,0,0,1,2.18-1.08,3.23,3.23,0,0,1,1.54.39,3.61,3.61,0,0,1,1.27,1.23,7.16,7.16,0,0,1,.89,2.17,13.16,13.16,0,0,1,.33,3.16,9,9,0,0,1-.24,2,2.19,2.19,0,0,0,.36,0h.39a6.51,6.51,0,0,0,1.84-.24A4.79,4.79,0,0,0,392,148a5.17,5.17,0,0,0,1.19-1.23,12.84,12.84,0,0,0,1-1.75,1,1,0,0,1,.4-.34,1.24,1.24,0,0,1,.6-.17,1.07,1.07,0,0,1,.73.32,1.06,1.06,0,0,1,.35.82,1.39,1.39,0,0,1-.12.53c-.08.19-.16.37-.24.53a13,13,0,0,1-1.19,1.73,7.3,7.3,0,0,1-1.59,1.44,7.73,7.73,0,0,1-4.62,1.31Zm-5.14-7.58a5.18,5.18,0,0,0,.15,1.2,5.6,5.6,0,0,0,.47,1.25,6.27,6.27,0,0,0,.78,1.17,4.39,4.39,0,0,0,1.1.95A8.69,8.69,0,0,0,386,147a11.8,11.8,0,0,0-.12-1.66,9.81,9.81,0,0,0-.35-1.55,3.79,3.79,0,0,0-.56-1.14,1,1,0,0,0-.78-.43.84.84,0,0,0-.48.27A1.61,1.61,0,0,0,383.38,143.65Z"/><path class="cls-3" d="M411.22,146.2c-.22.47-.49,1-.82,1.64s-.71,1.29-1.13,2a23.19,23.19,0,0,1-1.41,2,12.76,12.76,0,0,1-1.7,1.81,8.51,8.51,0,0,1-2,1.29,5,5,0,0,1-2.21.5,4.54,4.54,0,0,1-3.09-1.12,9.08,9.08,0,0,1-2.2-2.91,19.41,19.41,0,0,1-1.46-4.11,42.58,42.58,0,0,1-.85-4.69c-.2-1.59-.34-3.14-.41-4.64s-.11-2.84-.11-4c0-1.69.06-3.43.17-5.24s.29-3.56.53-5.29.54-3.36.91-4.9a23.3,23.3,0,0,1,1.33-4.06,9.11,9.11,0,0,1,1.76-2.76,3,3,0,0,1,2.25-1,3.49,3.49,0,0,1,1.79.47,3.61,3.61,0,0,1,1.34,1.52,9.81,9.81,0,0,1,.84,2.73,24.06,24.06,0,0,1,.3,4.12,32.07,32.07,0,0,1-.63,6.21,50.51,50.51,0,0,1-1.72,6.45,64.89,64.89,0,0,1-2.55,6.48c-1,2.16-2,4.26-3.16,6.3a19.46,19.46,0,0,0,2,6c.84,1.45,1.85,2.18,3,2.18a3.56,3.56,0,0,0,2.32-1,12.26,12.26,0,0,0,2-2.24,22.39,22.39,0,0,0,1.64-2.63c.47-.89.84-1.61,1.1-2.15a1.1,1.1,0,0,1,.42-.46,1.13,1.13,0,0,1,.6-.17,1.05,1.05,0,0,1,.83.36,1.19,1.19,0,0,1,.31.81A1.38,1.38,0,0,1,411.22,146.2Zm-15.06-12.08c0,1.28,0,2.51.09,3.7s.14,2.31.24,3.39q1.26-2.43,2.41-5.18c.76-1.84,1.43-3.69,2-5.57a50.2,50.2,0,0,0,1.4-5.59,28.56,28.56,0,0,0,.52-5.31,16,16,0,0,0-.57-5.08q-.57-1.53-1.53-1.53c-.42,0-.83.29-1.22.87a10.49,10.49,0,0,0-1.1,2.38,29.76,29.76,0,0,0-.93,3.54c-.28,1.37-.51,2.83-.7,4.39s-.34,3.2-.45,4.9S396.16,132.43,396.16,134.12Z"/><path class="cls-3" d="M157.7,253.57c0,.48,0,1.16.09,2s.14,1.84.23,2.88.18,2.1.28,3.19.19,2.08.28,3,.16,1.63.23,2.22.09.9.09.92a1,1,0,0,1-1.05,1.05,1,1,0,0,1-.7-.26,1.16,1.16,0,0,1-.36-.68c0-.07,0-.41-.09-1s-.14-1.35-.22-2.24-.19-1.87-.29-2.95-.19-2.13-.28-3.17-.16-2-.22-2.88-.1-1.56-.1-2.07,0-1.16,0-1.91-.06-1.56-.13-2.41-.13-1.72-.2-2.59-.15-1.71-.23-2.48c-.6,1-1.27,2.06-2,3.1l-2,2.8c-.25.35-.59.87-1,1.58s-.88,1.47-1.37,2.33-1,1.72-1.47,2.61-.94,1.7-1.35,2.42-.75,1.33-1,1.81a6.85,6.85,0,0,0-.39.75,1,1,0,0,1-.9.53A1.28,1.28,0,0,1,143,262a1,1,0,0,1-.53-.94,1,1,0,0,1,.12-.49l.56-1.27c-.05-.05-.25-.3-.6-.74l-1.32-1.65-1.74-2.2c-.64-.8-1.26-1.59-1.85-2.37s-1.12-1.49-1.61-2.16-.86-1.19-1.11-1.6l-1.45-2.33c-.54-.85-1.09-1.67-1.67-2.48.1.83.19,1.71.26,2.65s.14,1.86.19,2.75.09,1.71.13,2.48.06,1.41.06,1.93,0,1.16.09,2,.14,1.84.23,2.88.18,2.1.28,3.19.2,2.08.3,3,.18,1.63.24,2.22.1.9.1.92a1,1,0,0,1-.28.71,1.08,1.08,0,0,1-.77.34,1,1,0,0,1-.7-.26,1.16,1.16,0,0,1-.36-.68c0-.07,0-.41-.09-1s-.14-1.35-.24-2.24-.21-1.87-.31-2.95-.19-2.13-.28-3.17-.16-2-.22-2.88-.1-1.56-.1-2.07c0-.75,0-1.71-.09-2.89s-.15-2.39-.25-3.63-.21-2.42-.33-3.55-.25-2-.38-2.71a1.28,1.28,0,0,1,0-.17,1.15,1.15,0,0,0,0-.35,1,1,0,0,1,.3-.75,1.22,1.22,0,0,1,.75-.31,1,1,0,0,1,.75.31,14.69,14.69,0,0,1,1.47,1.71c.5.66,1,1.35,1.49,2.06s1,1.44,1.42,2.16.89,1.39,1.26,2,.79,1.17,1.47,2.08,1.4,1.88,2.18,2.88,1.53,2,2.27,2.87l1.68,2.09c.4-.75.84-1.55,1.33-2.39s1-1.65,1.41-2.44.88-1.52,1.28-2.18.72-1.17,1-1.52c.41-.55.84-1.17,1.32-1.85s.94-1.35,1.39-2,.88-1.37,1.28-2a13.69,13.69,0,0,0,.94-1.88,1.25,1.25,0,0,1,.3-.41q.11-.72,1.05-.87a1,1,0,0,1,1,.83c.15.7.28,1.63.41,2.8s.24,2.38.34,3.66.18,2.52.24,3.71S157.7,252.87,157.7,253.57Z"/><path class="cls-3" d="M181.23,259.25c.55.12.82.54.82,1.24q-.18.75-.51,1.71a11.89,11.89,0,0,1-.84,1.93c.15,1.21.29,2.25.41,3.12s.2,1.37.23,1.47a1,1,0,0,1-.26.7,1.35,1.35,0,0,1-.79.35,1,1,0,0,1-.7-.24,1.08,1.08,0,0,1-.36-.66q0-.08-.09-.66c-.06-.38-.13-.88-.21-1.48a9.81,9.81,0,0,1-2.78,2.18,7.93,7.93,0,0,1-3.76.86,6.33,6.33,0,0,1-2.82-.62,7,7,0,0,1-2.18-1.63,7.63,7.63,0,0,1-1.39-2.28,7.15,7.15,0,0,1-.49-2.57c0-.75,0-1.47-.09-2.14s-.13-1.31-.21-1.88-.1-1-.15-1.45a12.7,12.7,0,0,1-.07-1.37c0-.5,0-1,0-1.35a9.39,9.39,0,0,0-.11-1.06c0-.22-.05-.43-.06-.62s0-.38,0-.58a4.69,4.69,0,0,0-.13-1.09c-.09-.38-.19-.73-.3-1.07a7.37,7.37,0,0,0-.36-.92c-.12-.28-.22-.49-.3-.64a.77.77,0,0,1-.15-.49,1,1,0,0,1,.57-.94,1,1,0,0,1,.49-.11,1,1,0,0,1,.93.52,3,3,0,0,0,.23.47,9,9,0,0,1,.47,1.11c.16.45.31,1,.45,1.51a6.67,6.67,0,0,1,.21,1.65,3.7,3.7,0,0,0,0,.45c0,.18,0,.36.05.57s.09.69.12,1.1,0,.91,0,1.49a9.88,9.88,0,0,0,.08,1.18c.05.42.1.87.15,1.37.05.66.11,1.33.19,2s.11,1.46.11,2.26a4.77,4.77,0,0,0,.32,1.65,5.69,5.69,0,0,0,.92,1.62,5,5,0,0,0,1.48,1.24,4.14,4.14,0,0,0,2,.49,6.11,6.11,0,0,0,2.11-.34,6.82,6.82,0,0,0,1.69-.9,8.39,8.39,0,0,0,1.33-1.26,9.63,9.63,0,0,0,1-1.45c-.13-.93-.23-1.85-.32-2.78s-.16-1.77-.21-2.52-.14-1.88-.28-3-.27-2.19-.41-3.19-.27-1.86-.38-2.57-.17-1.1-.17-1.15a1,1,0,0,1,.27-.68,1.2,1.2,0,0,1,.79-.37,1,1,0,0,1,.65.24,1.06,1.06,0,0,1,.36.62c0,.08.06.47.17,1.17s.24,1.55.39,2.55.3,2.08.44,3.22.23,2.16.28,3.06c0,.2,0,.41,0,.62s0,.44,0,.69a2,2,0,0,1,.42-.3A1.22,1.22,0,0,1,181.23,259.25Z"/><path class="cls-3" d="M195.17,255.64q6.66,3.24,6.65,6.8a5,5,0,0,1-.49,2.15,10.09,10.09,0,0,1-1.16,1.93,11.13,11.13,0,0,1-1.41,1.54,6.75,6.75,0,0,1-1.22.92,6,6,0,0,1-1.19.51c-.48.16-1,.31-1.5.43s-1,.23-1.46.3a7.11,7.11,0,0,1-1.15.12,7.71,7.71,0,0,1-2.09-.32A7,7,0,0,1,188,269a7.19,7.19,0,0,1-1.82-1.93,9.43,9.43,0,0,1-1.26-3q0-.82,1.05-1.05a1.15,1.15,0,0,1,.64.2.91.91,0,0,1,.37.59,6,6,0,0,0,1.19,2.46,5.92,5.92,0,0,0,1.58,1.33,4.32,4.32,0,0,0,1.5.55,8.78,8.78,0,0,0,1,.09,6.84,6.84,0,0,0,.94-.09,9.23,9.23,0,0,0,1.22-.27l1.2-.35a4.36,4.36,0,0,0,.89-.38,6,6,0,0,0,.9-.69,9.36,9.36,0,0,0,1.07-1.17,8.54,8.54,0,0,0,.88-1.41,3.22,3.22,0,0,0,.38-1.43,2.25,2.25,0,0,0-.23-.88,4.49,4.49,0,0,0-.8-1.13A10.29,10.29,0,0,0,197,259.1a23,23,0,0,0-2.76-1.54L192,256.47l-2.19-1-1.7-.8-.67-.3-.6-.27v-.68a5.27,5.27,0,0,1,.86-3,8.27,8.27,0,0,1,2.11-2.18,9.79,9.79,0,0,1,2.61-1.34,7.87,7.87,0,0,1,2.42-.45,5.46,5.46,0,0,1,1.84.27,5.33,5.33,0,0,1,1.24.58,3.52,3.52,0,0,1,.74.6,3.76,3.76,0,0,1,.28.36,1,1,0,0,1-.3,1.43,1.11,1.11,0,0,1-.56.18,1,1,0,0,1-.87-.48s-.08-.05-.17-.14a2,2,0,0,0-.41-.28,4.34,4.34,0,0,0-.72-.28,3.59,3.59,0,0,0-1.07-.13,5.87,5.87,0,0,0-1.54.26,7.94,7.94,0,0,0-1.8.81,7.37,7.37,0,0,0-1.62,1.33,3.58,3.58,0,0,0-.9,1.85l1.2.54q.72.32,1.56.72l1.75.82Z"/><path class="cls-3" d="M206.18,246a1.5,1.5,0,0,1-1.07-.43,1.46,1.46,0,0,1-.43-1.08,1.4,1.4,0,0,1,.43-1,1.52,1.52,0,0,1,1.07-.41,1.48,1.48,0,0,1,1,.41,1.43,1.43,0,0,1,.43,1,1.5,1.5,0,0,1-.43,1.08A1.46,1.46,0,0,1,206.18,246Zm.49,1.58a1,1,0,0,1,1.05.86c0,.08.06.47.17,1.17s.25,1.55.4,2.55.29,2.08.43,3.22.23,2.16.28,3.06.14,1.9.27,3.08.26,2.3.41,3.37.28,2,.39,2.74.17,1.17.17,1.22a1,1,0,0,1-.26.7,1.35,1.35,0,0,1-.79.35,1,1,0,0,1-.7-.24,1.12,1.12,0,0,1-.35-.66c0-.07-.06-.49-.17-1.24s-.25-1.66-.4-2.72-.28-2.19-.41-3.37-.21-2.22-.26-3.12-.15-1.88-.28-3-.28-2.2-.42-3.2-.26-1.86-.37-2.57-.17-1.1-.17-1.15a1.11,1.11,0,0,1,.22-.68,1,1,0,0,1,.64-.37Z"/><path class="cls-3" d="M224.45,266.39a1.21,1.21,0,0,1,.6-.15,1,1,0,0,1,.87.45,1.16,1.16,0,0,1,.18.6,1.09,1.09,0,0,1-.48.87l-.27.18a4.51,4.51,0,0,1-.79.38,11.21,11.21,0,0,1-1.11.36,5.1,5.1,0,0,1-1.33.17,5.84,5.84,0,0,1-2.18-.55,7.58,7.58,0,0,1-2.5-1.84,12.26,12.26,0,0,1-2.16-3.42,15.72,15.72,0,0,1-1.17-5.24,3.37,3.37,0,0,1,0-.44v-.43a10.57,10.57,0,0,1,.88-4.4,12.87,12.87,0,0,1,2.12-3.32,10.92,10.92,0,0,1,2.58-2.15,5.75,5.75,0,0,1,2.27-.84,1.75,1.75,0,0,1,.4,0h.39a7.61,7.61,0,0,1,1.9.21,6.49,6.49,0,0,1,1.11.36,1.62,1.62,0,0,1,.86.58,3,3,0,0,1,.45,1.93,1,1,0,0,1-.32.76,1.06,1.06,0,0,1-1.48,0,1,1,0,0,1-.3-.76,2.47,2.47,0,0,0-.08-.6l-.78-.22a5.38,5.38,0,0,0-1.36-.15h-.28l-.32,0a4.77,4.77,0,0,0-1.6.68,8.36,8.36,0,0,0-2,1.71,10.89,10.89,0,0,0-1.67,2.69,8.49,8.49,0,0,0-.72,3.57v.34a1.48,1.48,0,0,0,0,.34,13.49,13.49,0,0,0,.86,4.28,10.24,10.24,0,0,0,1.64,2.8,6.12,6.12,0,0,0,1.84,1.54,3.47,3.47,0,0,0,1.56.47A3.58,3.58,0,0,0,223,267c.27-.08.52-.16.75-.25a1.78,1.78,0,0,0,.52-.28Z"/><path class="cls-3" d="M138.52,352.81a9.14,9.14,0,0,1,3.23,1.6,11.43,11.43,0,0,1,2.4,2.52,11.83,11.83,0,0,1,1.51,2.93,8.75,8.75,0,0,1,.52,2.84l0,.56q0,1-.15,2.16a6.1,6.1,0,0,1-2.47,4.33,9.62,9.62,0,0,1-3.4,1.56,14.17,14.17,0,0,1-2,.47,12.78,12.78,0,0,1-1.71.13,11.36,11.36,0,0,1-2.39-.26c-.79-.18-1.75-.42-2.87-.72a6.87,6.87,0,0,1-2.63-1.22,12,12,0,0,1-1.81-1.69,8.54,8.54,0,0,1-1-1.51c-.23-.43-.35-.68-.38-.73a.71.71,0,0,1-.11-.41,1.06,1.06,0,0,1,.64-1,2,2,0,0,1,.41-.07,1.09,1.09,0,0,1,.59.17.93.93,0,0,1,.39.46l.26.49a6.2,6.2,0,0,0,.83,1.19,9.27,9.27,0,0,0,1.43,1.31,6,6,0,0,0,2.07,1c1,.27,1.92.49,2.61.64a9.44,9.44,0,0,0,2,.22,12.77,12.77,0,0,0,3.12-.48,9.07,9.07,0,0,0,2.52-1.13,4.16,4.16,0,0,0,1.31-1.43,4.54,4.54,0,0,0,.51-1.69c.06-.6.11-1.23.13-1.88l0-.68a6.13,6.13,0,0,0-.4-1.95,9.85,9.85,0,0,0-1.14-2.3,9.42,9.42,0,0,0-1.9-2.06,6.68,6.68,0,0,0-2.65-1.32,11.32,11.32,0,0,0-2.16-.41l-2.28-.23c-.87-.07-1.73-.16-2.57-.26a8.88,8.88,0,0,1-2.27-.55,4.41,4.41,0,0,1-1.68-1.09,3.08,3.08,0,0,1-.77-1.89,1.14,1.14,0,0,0,0-.27,1.62,1.62,0,0,1,0-.22,5,5,0,0,1,.58-2.5,6.3,6.3,0,0,1,1.43-1.75,9.28,9.28,0,0,1,1.76-1.17c.62-.3,1.15-.55,1.6-.75a7.19,7.19,0,0,1,2.09-.58,19.68,19.68,0,0,1,2.65-.17,22.28,22.28,0,0,1,2.57.15,21.05,21.05,0,0,1,2.54.45c.55.13.81.54.79,1.24a1,1,0,0,1-.42.61,1.3,1.3,0,0,1-.86.18,12.94,12.94,0,0,0-2.31-.41c-.82-.08-1.6-.11-2.35-.11a16.49,16.49,0,0,0-2.2.13,6.23,6.23,0,0,0-1.67.43c-.53.23-1,.47-1.54.73a6.19,6.19,0,0,0-1.32.92,3.85,3.85,0,0,0-.88,1.24,4,4,0,0,0-.32,1.7c0,.65.54,1.09,1.48,1.31a25.86,25.86,0,0,0,3.85.53l2.43.24A17.33,17.33,0,0,1,138.52,352.81Z"/><path class="cls-3" d="M160.47,349.73a3.25,3.25,0,0,1,1.82.77,8.42,8.42,0,0,1,2,2.18,14.51,14.51,0,0,1,1.58,3.4,14.2,14.2,0,0,1,.66,4.48,12.46,12.46,0,0,1-.86,4.66,14.06,14.06,0,0,1-2.17,3.72,10.52,10.52,0,0,1-2.81,2.46,5.66,5.66,0,0,1-2.8.88,7.75,7.75,0,0,1-2.9-.56,8,8,0,0,1-2.55-1.63,8.39,8.39,0,0,1-1.85-2.65,8.9,8.9,0,0,1-.71-3.65,13.54,13.54,0,0,1,.34-2.89,22.4,22.4,0,0,1,.92-3.18,23,23,0,0,1,1.39-3.08,17.14,17.14,0,0,1,1.75-2.65,8.61,8.61,0,0,1,2-1.86,3.79,3.79,0,0,1,2.14-.7,2.3,2.3,0,0,1,.73.1,2.6,2.6,0,0,1,.59.24l.37,0Zm-2.63,20.45a3.68,3.68,0,0,0,1.82-.7,9.17,9.17,0,0,0,2.16-2,12,12,0,0,0,1.8-3,10,10,0,0,0,.76-3.94,12.12,12.12,0,0,0-.51-3.7,13,13,0,0,0-1.17-2.71,6.55,6.55,0,0,0-1.31-1.67,3,3,0,0,0-1-.64,6.63,6.63,0,0,0-1.15.09l-.69.13a1.15,1.15,0,0,1-.83-.37,4.94,4.94,0,0,0-1.95,1.69,17.91,17.91,0,0,0-1.88,3.06,21.54,21.54,0,0,0-1.43,3.72,13.21,13.21,0,0,0-.57,3.63,6.5,6.5,0,0,0,.61,2.95,6,6,0,0,0,1.5,2,6.23,6.23,0,0,0,1.92,1.11A5.61,5.61,0,0,0,157.84,370.18Z"/><path class="cls-3" d="M187.27,362.25c.55.12.82.54.82,1.24q-.18.75-.51,1.71a11.89,11.89,0,0,1-.84,1.93c.15,1.21.29,2.25.41,3.12s.2,1.37.23,1.47a1,1,0,0,1-.26.7,1.35,1.35,0,0,1-.79.35,1,1,0,0,1-.7-.24,1.08,1.08,0,0,1-.36-.66q0-.08-.09-.66c-.06-.38-.13-.88-.21-1.48a9.81,9.81,0,0,1-2.78,2.18,7.93,7.93,0,0,1-3.76.86,6.33,6.33,0,0,1-2.82-.62,7,7,0,0,1-2.18-1.63,7.63,7.63,0,0,1-1.39-2.28,7.15,7.15,0,0,1-.49-2.57c0-.75,0-1.47-.09-2.14s-.13-1.31-.21-1.88-.1-1-.15-1.45a12.7,12.7,0,0,1-.07-1.37c0-.5,0-.95,0-1.35a9.39,9.39,0,0,0-.11-1.06c0-.22,0-.43-.06-.62s0-.38,0-.58a4.69,4.69,0,0,0-.13-1.09c-.09-.38-.19-.73-.3-1.07a7.37,7.37,0,0,0-.36-.92c-.12-.28-.22-.49-.3-.64a.77.77,0,0,1-.15-.49,1,1,0,0,1,.57-.94,1,1,0,0,1,.49-.11,1,1,0,0,1,.93.52,3,3,0,0,0,.23.47,9,9,0,0,1,.47,1.11c.16.45.31,1,.45,1.51a6.67,6.67,0,0,1,.21,1.65,3.7,3.7,0,0,0,0,.45c0,.18,0,.36,0,.57s.09.69.12,1.1,0,.91,0,1.49a9.88,9.88,0,0,0,.08,1.18c0,.42.1.87.15,1.37,0,.66.11,1.33.19,2s.11,1.46.11,2.26a4.77,4.77,0,0,0,.32,1.65,5.69,5.69,0,0,0,.92,1.62,5,5,0,0,0,1.48,1.24,4.14,4.14,0,0,0,2.05.49,6.11,6.11,0,0,0,2.11-.34,6.82,6.82,0,0,0,1.69-.9,8.39,8.39,0,0,0,1.33-1.26,9.63,9.63,0,0,0,1-1.45c-.13-.93-.23-1.85-.32-2.78s-.16-1.77-.21-2.52-.14-1.88-.28-3-.27-2.19-.41-3.19-.26-1.86-.38-2.57-.17-1.1-.17-1.15a1,1,0,0,1,.27-.68,1.2,1.2,0,0,1,.79-.37,1,1,0,0,1,.65.24,1.06,1.06,0,0,1,.36.62c0,.08.06.47.17,1.17s.24,1.55.39,2.55.3,2.08.44,3.22.23,2.16.28,3.06c0,.2,0,.41,0,.62s0,.44.05.69a2,2,0,0,1,.42-.3A1.22,1.22,0,0,1,187.27,362.25Z"/><path class="cls-3" d="M210.19,367a4.74,4.74,0,0,0,.14,1.1,7.37,7.37,0,0,0,.32,1.07c.12.33.25.64.37.92l.3.64a1.08,1.08,0,0,1,.11.52,1,1,0,0,1-.52.9l-.26.12a1.12,1.12,0,0,1-.27,0,1,1,0,0,1-.9-.56,3.12,3.12,0,0,1-.26-.47,9,9,0,0,1-.47-1.11,12.19,12.19,0,0,1-.45-1.5,6.69,6.69,0,0,1-.21-1.66c0-.12,0-.26,0-.43s0-.34-.06-.54,0-.74-.07-1.15,0-.91,0-1.48a10,10,0,0,0-.07-1.19c-.05-.41-.1-.87-.15-1.37s-.15-1.3-.21-2-.1-1.47-.1-2.28a4.86,4.86,0,0,0-.31-1.63,5.88,5.88,0,0,0-.93-1.63,4.69,4.69,0,0,0-1.48-1.24,4.12,4.12,0,0,0-2.05-.49,6,6,0,0,0-2.61.54,7.07,7.07,0,0,0-2,1.37,8.82,8.82,0,0,0-1.41,1.79,11.83,11.83,0,0,0-.92,1.8,13.74,13.74,0,0,0-.51,1.45,6.36,6.36,0,0,0-.17.68,1.43,1.43,0,0,1-.3.52v.68a9.9,9.9,0,0,0,.26,2.07c.18.77.38,1.6.6,2.48.28,1.12.55,2.3.81,3.53a18.11,18.11,0,0,1,.4,3.76,1,1,0,0,1-1.06,1.05,1,1,0,0,1-.73-.3,1,1,0,0,1-.32-.75,16.94,16.94,0,0,0-.36-3.46c-.23-1.15-.49-2.25-.77-3.31s-.47-1.82-.65-2.68a11.25,11.25,0,0,1-.29-2.39c0-.73,0-1.64-.15-2.74s-.22-2.18-.35-3.22-.27-1.94-.38-2.7-.17-1.18-.17-1.23a1,1,0,0,1,.26-.67,1.26,1.26,0,0,1,.79-.38,1,1,0,0,1,.7.25,1.08,1.08,0,0,1,.36.65,3.6,3.6,0,0,0,.07.47c.05.27.1.62.15,1.06s.11.93.19,1.48.15,1.13.22,1.73a16.91,16.91,0,0,1,1.34-2.07,9.31,9.31,0,0,1,4.11-3.08,7.91,7.91,0,0,1,2.86-.49,6.29,6.29,0,0,1,2.8.62,6.87,6.87,0,0,1,2.16,1.64A7.69,7.69,0,0,1,209,354a6.82,6.82,0,0,1,.51,2.55c0,.76,0,1.47.09,2.15s.13,1.3.21,1.88.1,1,.15,1.46a13.17,13.17,0,0,1,.08,1.36,19.31,19.31,0,0,0,.11,2.4c0,.23,0,.43.06.62S210.19,366.78,210.19,367Z"/><path class="cls-3" d="M229.1,354.54c0,.81,0,1.77.13,2.9s.21,2.3.36,3.53.31,2.45.47,3.67.31,2.31.45,3.3.26,1.8.36,2.43.15,1,.15,1a1,1,0,0,1-.27.68,1.2,1.2,0,0,1-.79.37,1,1,0,0,1-.67-.24,1.05,1.05,0,0,1-.38-.66s0-.29-.09-.71-.15-1-.25-1.69a9.8,9.8,0,0,1-3.3,2.29,8.89,8.89,0,0,1-3.35.71,4.43,4.43,0,0,1-2.07-.41,9.53,9.53,0,0,1-2.16-1.41,10.4,10.4,0,0,1-1.82-2,9.88,9.88,0,0,1-1.26-2.54,9.13,9.13,0,0,1-.47-2.93,10.48,10.48,0,0,1,.34-2.59,12.61,12.61,0,0,1,1.22-2.93,19.24,19.24,0,0,1,4.3-5.21,12.28,12.28,0,0,1,2.56-1.67,5.81,5.81,0,0,1,2.48-.64,4.14,4.14,0,0,1,.87.09,5.49,5.49,0,0,1,.94.36c-.06-.93-.11-1.83-.17-2.71s-.13-1.65-.19-2.34-.11-1.25-.15-1.68-.06-.66-.06-.71a1,1,0,0,1,.28-.7,1.41,1.41,0,0,1,.77-.35.94.94,0,0,1,.7.28,1.28,1.28,0,0,1,.36.69c0,.08,0,.5.11,1.28s.16,1.74.24,2.9.17,2.41.25,3.77S229.1,353.32,229.1,354.54Zm-1.47,12.52a1.07,1.07,0,0,1,.57-.38c-.15-1-.3-2-.43-3.13s-.27-2.22-.38-3.31-.21-2.13-.28-3.12-.11-1.85-.11-2.58V354c0-.18,0-.37,0-.57a1,1,0,0,1-.72-.86.68.68,0,0,0-.09-.25.87.87,0,0,0-.39-.31,1.63,1.63,0,0,0-.72-.16,2.73,2.73,0,0,0-.83.14,6.53,6.53,0,0,0-.75.28,9.17,9.17,0,0,0-2.14,1.43,16.33,16.33,0,0,0-2,2.1,17.61,17.61,0,0,0-1.69,2.46,11.19,11.19,0,0,0-1.07,2.5,8,8,0,0,0-.26,2.07,6.69,6.69,0,0,0,.43,2.44,8.75,8.75,0,0,0,1.09,2,8.13,8.13,0,0,0,1.44,1.53,7.9,7.9,0,0,0,1.51.95,2.6,2.6,0,0,0,1.16.23,7.13,7.13,0,0,0,2.84-.7A7.82,7.82,0,0,0,227.63,367.06Z"/><path class="cls-3" d="M263.08,369.77a.94.94,0,0,1,.69.26,1.27,1.27,0,0,1,.36.79,1,1,0,0,1-.24.69,1.13,1.13,0,0,1-.66.36l-.68.09c-.4.07-.88.14-1.43.21s-1.12.14-1.73.19-1.11.07-1.54.07c-3.33,0-5.89-.88-7.66-2.65a10.94,10.94,0,0,1-2.94-7.46,14.45,14.45,0,0,1,.44-4.28,11.62,11.62,0,0,1,1.35-3.16,9.26,9.26,0,0,1,1.9-2.18,10.45,10.45,0,0,1,2.05-1.35,9.29,9.29,0,0,1,1.8-.7,5.78,5.78,0,0,1,1.18-.2,5.11,5.11,0,0,1,2.09.49,6.5,6.5,0,0,1,2.07,1.48,8.49,8.49,0,0,1,1.63,2.54,11,11,0,0,1,.83,3.64,1.12,1.12,0,0,1,.23.68,1,1,0,0,1-.23.64,1,1,0,0,1-1.65.52,16.16,16.16,0,0,0-2.11.64q-1,.35-1.92.6a6.15,6.15,0,0,1-1.69.27,8.16,8.16,0,0,0-1.11.11c-.46.08-1,.18-1.52.3l-1.67.4c-.56.13-1.07.27-1.52.39a7.63,7.63,0,0,0,1.07,3.74,6.87,6.87,0,0,0,2.18,2.18,7.77,7.77,0,0,0,2.67,1,15.2,15.2,0,0,0,2.53.24,14.3,14.3,0,0,0,1.47-.08q.87-.08,1.65-.18l1.39-.19.57-.08ZM256,352.55a5.07,5.07,0,0,0-1.33.36,6.78,6.78,0,0,0-2.07,1.28,9.34,9.34,0,0,0-2,2.55,10.45,10.45,0,0,0-1.15,4.19l1.45-.34,1.62-.35c.54-.12,1.05-.21,1.54-.28a7.66,7.66,0,0,1,1.18-.12,4.94,4.94,0,0,0,1.34-.24q.81-.24,1.59-.51c.43-.15.83-.28,1.21-.39s.74-.22,1.09-.32a8.54,8.54,0,0,0-.64-2.6,7.11,7.11,0,0,0-1.13-1.8,4.67,4.67,0,0,0-1.35-1.07A3,3,0,0,0,256,352.55Z"/><path class="cls-3" d="M281.76,350.41a1,1,0,0,1-.64-.23,1,1,0,0,1-.38-.6,5.92,5.92,0,0,0-.26-.84,7.41,7.41,0,0,0-.84-1.66,6,6,0,0,0-1.6-1.59,4.26,4.26,0,0,0-2.52-.72,3.34,3.34,0,0,0-2.41,1.09,4.58,4.58,0,0,0-.84,1.28,3.59,3.59,0,0,0-.32,1.46l.15,5.72,2.27-.15,2.43-.15a1,1,0,0,1,.71.3,1.14,1.14,0,0,1,.34.75,1,1,0,0,1-.3.73.93.93,0,0,1-.72.32l-2.36.15-2.26.15q.15,2.07.51,4.53c.24,1.64.47,3.19.69,4.64s.43,2.68.61,3.67.26,1.52.26,1.6q0,.86-1,1.05a1,1,0,0,1-1.06-.87,7.56,7.56,0,0,0-.13-.82c-.09-.48-.2-1.1-.34-1.86s-.28-1.63-.43-2.6-.3-2-.45-3-.29-2.11-.41-3.16-.23-2-.3-3l-2.63.26-1.17.15a1,1,0,0,1-.68-.26,1.23,1.23,0,0,1-.37-.79,1,1,0,0,1,.26-.69,1.19,1.19,0,0,1,.68-.36l1.07-.11,2.72-.3V354l-.15-5.49a5.52,5.52,0,0,1,.47-2.18,6.59,6.59,0,0,1,1.3-2,6,6,0,0,1,1.82-1.28,5,5,0,0,1,2.09-.45,6.28,6.28,0,0,1,3,.69,8,8,0,0,1,2.16,1.71,9,9,0,0,1,1.41,2.18,9.69,9.69,0,0,1,.71,2.11.93.93,0,0,1-.79,1Z"/><path class="cls-3" d="M297.17,350.41a1,1,0,0,1-.64-.23,1,1,0,0,1-.38-.6,5.92,5.92,0,0,0-.26-.84,7.41,7.41,0,0,0-.84-1.66,6,6,0,0,0-1.6-1.59,4.26,4.26,0,0,0-2.52-.72,3.34,3.34,0,0,0-2.41,1.09,4.58,4.58,0,0,0-.84,1.28,3.59,3.59,0,0,0-.32,1.46l.15,5.72,2.27-.15,2.43-.15a1,1,0,0,1,.71.3,1.14,1.14,0,0,1,.34.75,1,1,0,0,1-.3.73.93.93,0,0,1-.72.32l-2.36.15-2.26.15q.15,2.07.51,4.53c.24,1.64.47,3.19.7,4.64s.42,2.68.6,3.67.26,1.52.26,1.6q0,.86-1.05,1.05a1,1,0,0,1-1.06-.87,7.56,7.56,0,0,0-.13-.82c-.08-.48-.2-1.1-.33-1.86s-.29-1.63-.44-2.6-.3-2-.45-3-.29-2.11-.41-3.16-.23-2-.3-3l-2.63.26-1.17.15a1,1,0,0,1-.68-.26,1.23,1.23,0,0,1-.37-.79,1,1,0,0,1,.26-.69,1.19,1.19,0,0,1,.68-.36l1.07-.11,2.72-.3V354l-.15-5.49a5.52,5.52,0,0,1,.47-2.18,6.59,6.59,0,0,1,1.3-2,6,6,0,0,1,1.82-1.28,5,5,0,0,1,2.09-.45,6.28,6.28,0,0,1,3,.69,8,8,0,0,1,2.16,1.71,9,9,0,0,1,1.41,2.18,9.69,9.69,0,0,1,.71,2.11.93.93,0,0,1-.79,1Z"/><path class="cls-3" d="M312.88,369.77a1,1,0,0,1,.7.26,1.32,1.32,0,0,1,.35.79,1,1,0,0,1-.24.69,1.08,1.08,0,0,1-.66.36l-.68.09c-.4.07-.87.14-1.42.21s-1.13.14-1.73.19-1.12.07-1.54.07c-3.34,0-5.89-.88-7.67-2.65a10.89,10.89,0,0,1-2.93-7.46,14.47,14.47,0,0,1,.43-4.28,11.62,11.62,0,0,1,1.35-3.16,9.49,9.49,0,0,1,1.9-2.18,10.45,10.45,0,0,1,2.05-1.35,9.29,9.29,0,0,1,1.8-.7,5.85,5.85,0,0,1,1.19-.2,5.1,5.1,0,0,1,2.08.49,6.5,6.5,0,0,1,2.07,1.48,8.49,8.49,0,0,1,1.63,2.54,10.72,10.72,0,0,1,.83,3.64,1.12,1.12,0,0,1,.23.68,1,1,0,0,1-.23.64.92.92,0,0,1-1,.75,1,1,0,0,1-.64-.23,16.16,16.16,0,0,0-2.11.64c-.65.23-1.29.43-1.91.6a6.22,6.22,0,0,1-1.7.27,7.9,7.9,0,0,0-1.1.11q-.71.12-1.53.3l-1.67.4c-.56.13-1.07.27-1.52.39a7.73,7.73,0,0,0,1.07,3.74,6.87,6.87,0,0,0,2.18,2.18,7.77,7.77,0,0,0,2.67,1,15.22,15.22,0,0,0,2.54.24,14.12,14.12,0,0,0,1.46-.08c.58-.05,1.13-.11,1.66-.18l1.39-.19.56-.08Zm-7.1-17.22a5.1,5.1,0,0,0-1.34.36,6.78,6.78,0,0,0-2.07,1.28,9.54,9.54,0,0,0-2,2.55,10.45,10.45,0,0,0-1.14,4.19l1.44-.34,1.62-.35c.54-.12,1.05-.21,1.54-.28a7.66,7.66,0,0,1,1.18-.12,4.94,4.94,0,0,0,1.34-.24c.54-.16,1.07-.33,1.6-.51s.82-.28,1.2-.39.74-.22,1.09-.32a8.26,8.26,0,0,0-.64-2.6,7.11,7.11,0,0,0-1.13-1.8,4.42,4.42,0,0,0-1.35-1.07A3,3,0,0,0,305.78,352.55Z"/><path class="cls-3" d="M326.6,369.39a1.19,1.19,0,0,1,.6-.15,1,1,0,0,1,.87.45,1.16,1.16,0,0,1,.18.6,1.07,1.07,0,0,1-.49.87l-.26.18a4.51,4.51,0,0,1-.79.38,11.21,11.21,0,0,1-1.11.36,5.15,5.15,0,0,1-1.33.17,5.84,5.84,0,0,1-2.18-.55,7.58,7.58,0,0,1-2.5-1.84,12,12,0,0,1-2.16-3.42,15.72,15.72,0,0,1-1.17-5.24,3.37,3.37,0,0,1,0-.44v-.43a10.57,10.57,0,0,1,.88-4.4,12.87,12.87,0,0,1,2.12-3.32,10.92,10.92,0,0,1,2.58-2.15,5.7,5.7,0,0,1,2.27-.84,1.75,1.75,0,0,1,.4,0h.39a7.61,7.61,0,0,1,1.9.21,6.49,6.49,0,0,1,1.11.36,1.62,1.62,0,0,1,.86.58,3,3,0,0,1,.45,1.93,1,1,0,0,1-.32.76,1.06,1.06,0,0,1-1.48,0,1,1,0,0,1-.3-.76,2.47,2.47,0,0,0-.08-.6l-.79-.22a5.24,5.24,0,0,0-1.35-.15h-.28l-.32,0a4.69,4.69,0,0,0-1.6.68,8.36,8.36,0,0,0-1.95,1.71A11.22,11.22,0,0,0,319,356.8a8.65,8.65,0,0,0-.71,3.57v.34a1.48,1.48,0,0,0,0,.34,13.49,13.49,0,0,0,.86,4.28,10.24,10.24,0,0,0,1.64,2.8,6,6,0,0,0,1.84,1.54,3.47,3.47,0,0,0,1.56.47,3.43,3.43,0,0,0,.86-.11c.28-.08.53-.16.76-.25a1.78,1.78,0,0,0,.52-.28Z"/><path class="cls-3" d="M344.83,351.87a1,1,0,0,1,.56.42,1.3,1.3,0,0,1,.19.86c-.13.53-.55.79-1.28.79a11.62,11.62,0,0,0-1.39-.26,26.32,26.32,0,0,0-3.72-.26c.08,1.42.11,2.6.11,3.53,0,.48,0,1.15.1,2s.13,1.83.22,2.87.18,2.11.29,3.2.2,2.08.3,3,.18,1.63.24,2.22.09.89.09.92a.94.94,0,0,1-.28.69,1.32,1.32,0,0,1-.77.36,1.07,1.07,0,0,1-.71-.26,1,1,0,0,1-.34-.68c0-.08,0-.41-.11-1s-.16-1.34-.25-2.23-.18-1.87-.28-2.95-.19-2.14-.28-3.18-.16-2-.23-2.87-.09-1.57-.09-2.07c0-.95,0-2.11-.11-3.46-.66.05-1.29.11-1.92.19l-1.67.21-1.21.16a4.06,4.06,0,0,1-.54.08,1,1,0,0,1-.68-.26,1.25,1.25,0,0,1-.37-.79,1,1,0,0,1,.24-.66,1.08,1.08,0,0,1,.66-.36l.51-.09c.31-.06.71-.13,1.2-.19l1.67-.19,2-.17c-.05-.7-.11-1.39-.17-2.08s-.13-1.36-.19-2-.13-1.24-.21-1.79-.15-1-.22-1.43a1,1,0,0,1,.26-.68,1.23,1.23,0,0,1,.79-.37,1,1,0,0,1,.66.22,1.06,1.06,0,0,1,.35.64,29.65,29.65,0,0,1,.49,3.2q.23,2,.42,4.17c.85,0,1.62,0,2.31.08s1.28.11,1.76.18l1.17.21Z"/><path class="cls-3" d="M357.76,358.64q6.64,3.24,6.65,6.8a5,5,0,0,1-.49,2.15,10.09,10.09,0,0,1-1.16,1.93,11.13,11.13,0,0,1-1.41,1.54,6.75,6.75,0,0,1-1.22.92,6,6,0,0,1-1.19.51c-.49.16-1,.31-1.5.43a14.77,14.77,0,0,1-1.47.3,6.9,6.9,0,0,1-1.14.12,7.65,7.65,0,0,1-2.09-.32,6.91,6.91,0,0,1-2.12-1.06,7.38,7.38,0,0,1-1.83-1.93,9.67,9.67,0,0,1-1.26-3c0-.55.36-.9,1.06-1.05a1.18,1.18,0,0,1,.64.2.91.91,0,0,1,.37.59,6,6,0,0,0,1.19,2.46,5.92,5.92,0,0,0,1.58,1.33,4.18,4.18,0,0,0,1.5.55,8.78,8.78,0,0,0,1,.09,6.84,6.84,0,0,0,.94-.09,9.23,9.23,0,0,0,1.22-.27l1.2-.35a4,4,0,0,0,.88-.38,5.53,5.53,0,0,0,.91-.69,9.36,9.36,0,0,0,1.07-1.17,8.54,8.54,0,0,0,.88-1.41,3.22,3.22,0,0,0,.38-1.43,2.25,2.25,0,0,0-.23-.88,4.32,4.32,0,0,0-.81-1.13,10.15,10.15,0,0,0-1.65-1.33,23.83,23.83,0,0,0-2.76-1.54l-2.28-1.09-2.2-1-1.69-.8-.67-.3-.61-.27v-.68a5.28,5.28,0,0,1,.87-3,8.39,8.39,0,0,1,2.1-2.18,10,10,0,0,1,2.62-1.34,7.87,7.87,0,0,1,2.42-.45,5.46,5.46,0,0,1,1.84.27,5.54,5.54,0,0,1,1.24.58,3.52,3.52,0,0,1,.74.6,3.76,3.76,0,0,1,.28.36,1,1,0,0,1-.3,1.43,1.11,1.11,0,0,1-.57.18,1,1,0,0,1-.86-.48s-.08-.05-.17-.14a2.37,2.37,0,0,0-.41-.28,4.34,4.34,0,0,0-.72-.28,3.64,3.64,0,0,0-1.07-.13,5.81,5.81,0,0,0-1.54.26,7.94,7.94,0,0,0-1.8.81,6.93,6.93,0,0,0-1.62,1.33,3.58,3.58,0,0,0-.9,1.85l1.2.54q.72.31,1.56.72l1.75.82Z"/></g></svg>
