<svg xmlns="http://www.w3.org/2000/svg" width="80mm" height="70mm" viewBox="0 0 226.77 198.43"><defs><style>.cls-1{fill:#543729;}.cls-2{fill:#3f2a1e;}.cls-3{fill:#442d20;stroke:#492f22;}.cls-10,.cls-12,.cls-15,.cls-16,.cls-17,.cls-18,.cls-3{stroke-miterlimit:10;}.cls-4{fill:#543728;}.cls-5{fill:#5390cc;}.cls-6{fill:#5390cd;}.cls-7{fill:#020202;}.cls-8{fill:#4a3222;}.cls-9{fill:#d12728;}.cls-10{fill:#211e19;}.cls-10,.cls-18{stroke:#211e19;}.cls-11,.cls-12,.cls-15,.cls-16,.cls-17,.cls-18{fill:none;}.cls-12{stroke:#231f20;}.cls-13{fill:#231f20;}.cls-14{fill:#fff;}.cls-15{stroke:#442d20;}.cls-16{stroke:#1d1a1b;}.cls-17{stroke:#050606;}</style></defs><title>dog_icon</title><g id="startskærm"><g id="hund"><path class="cls-1" d="M83.62,125.25s9.21,16.43,9.12,42.49S109,194.31,115.48,189s5.5-4.5,6.67-21c0,0,4.83,5.84,22.66-2.66,0,0,5.5,22.16,20.67,15.66,0,0,16.33-1.83-4-70.33C161.48,110.64,81.09,118,83.62,125.25Z"/><path class="cls-2" d="M49.14,125.48A61.13,61.13,0,0,1,17.5,102.26c4.53.48,7.82,4.32,11.69,6.72,6.51,4,14.63,3.92,22.22,4.85,5.13.63,10.61,2,14.71,5.34,3.16,2.55,7.94,10.27,5.67,14.53-1.57,3-4.84-.93-6.83-2.33C60.09,127.93,54.74,127.23,49.14,125.48Z"/><path class="cls-3" d="M67.82,117.8c.1-.49-.77-.65-1-.23a1.66,1.66,0,0,0,0,1.44,126.3,126.3,0,0,1,6.32,31.48c.31,4.29.75,8.5.8,12.8a19.69,19.69,0,0,0,.51,5.14c1.49,5.26,8.06,7.21,12.76,5.42a9.76,9.76,0,0,0,6.12-7.34c1.54-6.49-.75-13.54-2.21-19.84-.45-2-5.83-21.84-7.46-21.42a10.14,10.14,0,0,0,5-3.07"/><path class="cls-4" d="M49.81,27.64S91.56-7,149.18,9.22c0,0,24.47,50.92,18.63,62.09S166.15,89,166.48,87.64s-100,11.67-100,11.67-3.5-16-9.33-16.67S49.81,27.64,49.81,27.64Z"/><path class="cls-5" d="M123.48,75s-4-32,12-28.33,11.83,8.17,9.67,30.33C145.15,77,128,79,123.48,75Z"/><path class="cls-6" d="M80.48,86S66.15,55.81,83.81,51.31s16.17,17,20.34,28S80.48,86,80.48,86Z"/><path d="M83.68,83.41s-9.63-20.28,2.24-23.3S96.79,71.53,99.59,78.93,83.68,83.41,83.68,83.41Z"/><path class="cls-7" d="M126.86,74.85s-2.59-20.73,7.78-18.35,7.67,5.29,6.26,19.65C140.9,76.15,129.78,77.44,126.86,74.85Z"/><ellipse class="cls-2" cx="121.44" cy="118.42" rx="29.17" ry="12.67" transform="translate(-11.22 12.72) rotate(-5.73)"/><path class="cls-8" d="M65.48,96.31s31.75-33.5,89.5-17.5c0,0,24.5,9,11.5,26.5s-27.5,5.5-27.5,5.5-25.75-12-43,11.5C96,122.31,58.23,134.56,65.48,96.31Z"/><path class="cls-9" d="M120,121.16c1.69,1.77,3.4,3.76,5.77,4.38a9,9,0,0,0,6.45-1.22A7.16,7.16,0,0,0,135,122c1.57-2.53.2-5.84-1.49-8.29a13.76,13.76,0,0,0-4.18-4.21c-4-2.34-9.14-1-13.61.35-3.9,1.2-8.16,1.41-3.64,4.67A55.41,55.41,0,0,1,120,121.16Z"/><path class="cls-10" d="M114.48,98.81s17.25-10.75,8.5-13.5-19.5,2-19.5,2-5,5.5,3,8.5Z"/><path class="cls-11" d="M32.25,142.86l-.6.3"/><path class="cls-12" d="M118.07,108.79a24.62,24.62,0,0,1,9,6.73"/><path class="cls-8" d="M38.9,19.81a16.45,16.45,0,0,0-6.21,3.83,29.88,29.88,0,0,0-8.44,13.6c-1.31,4.52-1.54,9.32-3.17,13.73s-4.65,8.31-7,12.48S10,72.51,11.27,77.12c1.53,5.74,7.18,9.41,12.82,11.28,6.46,2.15,13.35,2.65,20.16,2.93,4.81.19,10.37,0,13.34-3.83,2.14-2.74,2.21-6.51,2.12-10a54.43,54.43,0,0,0-1-10.51c-1.4-6.2-4.71-11.81-6.41-17.94A35.48,35.48,0,0,1,51,38.18c.12-3.54,2.11-7.58,1.83-11C52.34,21.33,43.83,18.31,38.9,19.81Z"/><path class="cls-8" d="M149.18,9.22c-1.1,3.31-.16,7,1.42,10.09s3.77,5.87,5.4,9c5,9.36,4.29,20.53,4.76,31.11.21,4.56.86,9.56,4.25,12.61,2.87,2.58,7.12,3.11,10.92,2.43s7.33-2.39,10.91-3.84c4.33-1.75,8.82-3.14,12.95-5.32s8-5.3,9.91-9.54,1.68-9.71-1.54-13.09c-2.7-2.82-6.82-3.73-9.95-6.05-5.52-4.08-7-11.59-10.76-17.33C182.36,11.48,154.37-6.32,149.18,9.22Z"/><path class="cls-13" d="M81.16,99.24a.51.51,0,0,0-.23-.75,1,1,0,0,0-.86.13,1.88,1.88,0,0,0-.44,2.78,1.66,1.66,0,0,0,2.65-.52,1.49,1.49,0,0,0-1.84-1.8"/><path class="cls-13" d="M136.69,98.3c-.16-.48-.85-.52-1.29-.29a1.93,1.93,0,0,0-.7,2.67,1.77,1.77,0,0,0,2.69.12,1.63,1.63,0,0,0-.8-2.49"/><path class="cls-13" d="M147.78,91.47c-.16-.48-.85-.52-1.29-.29a1.92,1.92,0,0,0-.7,2.67,1.77,1.77,0,0,0,2.69.12,1.64,1.64,0,0,0-.8-2.49"/><path class="cls-13" d="M136.69,86.3c-.16-.48-.85-.52-1.29-.29a1.93,1.93,0,0,0-.7,2.67,1.77,1.77,0,0,0,2.69.12,1.63,1.63,0,0,0-.8-2.49"/><path class="cls-13" d="M92.69,90.3c-.16-.48-.85-.52-1.29-.29a1.93,1.93,0,0,0-.7,2.67,1.77,1.77,0,0,0,2.69.12,1.63,1.63,0,0,0-.8-2.49"/><path class="cls-13" d="M95.69,101.3c-.16-.48-.85-.52-1.29-.29a1.93,1.93,0,0,0-.7,2.67,1.77,1.77,0,0,0,2.69.12,1.63,1.63,0,0,0-.8-2.49"/><path class="cls-14" d="M80.06,67.14s.39-6.11,5.86-7,7.06-.55,9.48,3.78S81.94,73.43,80.06,67.14Z"/><path class="cls-14" d="M127.81,60.47s1.17-6.41,8.42-3.75,5.75,3.25,6,7.34S127.06,65.43,127.81,60.47Z"/><path class="cls-11" d="M84.69,125l6.64,20.66a57.56,57.56,0,0,1,2.43,9.3c1.44,10-2.28,21.23,3,29.91a14.75,14.75,0,0,0,8.82,6.73,12.2,12.2,0,0,0,10.7-2.3c3.55-3,4.85-7.84,5.38-12.44a54.88,54.88,0,0,0-1.12-18.9c-.09-.35-.13-.81.18-1s.59.54.24.47"/><path class="cls-15" d="M143.26,154.44A36.23,36.23,0,0,0,151,177c1.73,2.19,3.83,4.25,6.51,5,4.61,1.36,9.67-1.61,12.08-5.78s2.71-9.21,2.54-14c-.44-12.41-3.64-24.54-6.82-36.54l-3.88-14.64"/><path class="cls-16" d="M156.16,169.25a21.09,21.09,0,0,0,5.11,12.28"/><path class="cls-16" d="M164.36,167.36a26.51,26.51,0,0,1,1.77,12.55"/><path class="cls-16" d="M103,174.94l.09,1.13c.12,1.35.24,2.7.49,4,.74,4,2.6,7.66,4.44,11.28"/><path class="cls-16" d="M86.15,159.86v.31c0,3.87.69,9.9-.14,13.69"/><path class="cls-16" d="M113.77,174.13a52.54,52.54,0,0,1-1.21,16.39"/><path class="cls-16" d="M79.75,159A47.94,47.94,0,0,0,81,173.81"/><path class="cls-15" d="M84.13,124.73c4.23,10.64,8,21.64,8.78,33.07.32,4.69.13,9.39.38,14.09s1,9.44,3.37,13.46,6.72,7.15,11.39,7c4.85-.17,9-3.83,11.15-8.2s2.47-9.36,2.56-14.21-.1-9.63-2-14"/><path class="cls-15" d="M144.46,165.11a48.72,48.72,0,0,1-21.9,3.94"/><line class="cls-17" x1="114.48" y1="98.81" x2="115.48" y2="108.64"/><path class="cls-18" d="M97,109.81s10.5,5.5,18-1c0,0,22.5.25,24-4.5"/></g></g></svg>
