<svg xmlns="http://www.w3.org/2000/svg" width="50mm" height="70mm" viewBox="0 0 141.73 198.43"><defs><style>.cls-1{fill:#b9cdd3;}.cls-2,.cls-7{fill:none;stroke-linecap:round;stroke-linejoin:round;}.cls-2{stroke:#acbec2;stroke-width:2px;}.cls-3{fill:#0d0d0d;}.cls-4{fill:#1b3f1e;}.cls-5{fill:#99908a;}.cls-6{fill:#2b4c2c;}.cls-7{stroke:#d9e2e2;stroke-width:3px;}</style></defs><title>drink_icon</title><g id="startskærm"><g id="alkohol"><path class="cls-1" d="M24.11,31.46c1.44.07,65.5,5,86.5-3.5s8,15,8,15-24.25,32.75-32,40-5.5,71-5.5,71-1.5,18.25,22,24-5,10.5-5,10.5-35.5,3.25-49-2.5-5-9.5-5-9.5,23.5-2.75,24.5-16,6-54.5,2-69.5-13-18-13-18S23.55,39.53,22.11,37C21.11,33,22.86,31.15,24.11,31.46Z"/><path class="cls-2" d="M39.11,52.23s35.44,2.84,69.5-3.49"/><polygon class="cls-3" points="86.99 74.59 35.11 24.96 37.36 22.71 86.99 74.59"/><ellipse class="cls-4" cx="70.06" cy="57.72" rx="10.06" ry="8.76" transform="translate(-18.95 75.56) rotate(-50.82)"/><ellipse class="cls-5" cx="66.61" cy="62.21" rx="1.5" ry="3.25" transform="translate(-20.57 88.8) rotate(-60)"/><ellipse class="cls-6" cx="59.11" cy="51.46" rx="11" ry="8.75" transform="translate(-17.56 67.7) rotate(-53)"/><ellipse class="cls-5" cx="54.61" cy="57.21" rx="1.5" ry="3.25" transform="translate(-24.48 58.22) rotate(-47.06)"/><ellipse class="cls-3" cx="29.54" cy="16.96" rx="9.1" ry="4.75" transform="translate(-2.58 28.31) rotate(-49.32)"/><ellipse class="cls-3" cx="34.11" cy="21.81" rx="5.83" ry="3.3" transform="translate(-4.67 33.46) rotate(-49.32)"/><path class="cls-7" d="M72.37,80.71a6.37,6.37,0,0,0,8.07.53"/><path class="cls-7" d="M57.62,180l-1.29.78,11.6,2.14A35.2,35.2,0,0,1,57,179c.42-.86,1.69-.65,2.58-.31l8.38,3.18A40.11,40.11,0,0,1,56.79,179"/></g></g></svg>
