<svg xmlns="http://www.w3.org/2000/svg" width="110mm" height="30mm" viewBox="0 0 311.81 85.04"><defs><style>.cls-1{fill:#ddd;}.cls-2{fill:#d283b7;}.cls-3{fill:#6797cf;}.cls-4{fill:#9fbee1;}</style></defs><title>liv</title><g id="værelse"><g id="liv"><rect class="cls-1" x="96.22" y="28.06" width="48.17" height="48.17" rx="22.68" ry="22.68"/><rect class="cls-1" x="209.7" y="28.3" width="48.05" height="48.17" rx="22.68" ry="22.68"/><rect class="cls-1" x="153.23" y="28.96" width="48.05" height="48.17" rx="22.68" ry="22.68"/><path class="cls-2" d="M43.53,73c-7.16-3.52-14-8-18.94-14.28s-7.8-14.47-6.38-22.32a14.26,14.26,0,0,1,3.66-7.64c4.14-4.08,11.15-3.82,16.22-1C41.62,29.73,49.75,36,50,40.61c-.39-7.09-.44-13.56,3.2-20C54.8,17.79,57,15.16,60,13.89,66.84,11,74.66,16.43,78.08,23c4.74,9.12,4.17,20.29.63,29.94-2.66,7.23-8.36,19.89-14.93,24.38C58,81.31,49.4,75.87,43.53,73Z"/><path class="cls-3" d="M277.47,33.66c-1.33,5.61-3.19,11.17-4.17,16.81S272.28,62,274.53,67a15.92,15.92,0,0,0,13.12,9.51,20.51,20.51,0,0,0,8.82-1.5c2.13-.83,4.28-2,5.44-3.89a9.18,9.18,0,0,0,.95-5.87,63.6,63.6,0,0,0-3.27-13.58c-5.24-16.15-11-32.19-13.59-49.11a3,3,0,0,0-.61-1.68A1.34,1.34,0,0,0,283.62.7a2,2,0,0,0-.45.78C279.24,12.07,280,22.93,277.47,33.66Z"/><path class="cls-4" d="M291.13,59.94c-.42,2-1.07,4.09-.37,6,1.55.08,2.81-1.28,3.47-2.68,1.17-2.44,2-9.18-.52-11.23C290.83,49.66,291.56,57.92,291.13,59.94Z"/></g></g></svg>
