<svg xmlns="http://www.w3.org/2000/svg" width="60mm" height="70mm" viewBox="0 0 170.08 198.43"><defs><style>.cls-1{fill:#262626;}.cls-1,.cls-7{stroke:#262626;}.cls-1,.cls-2,.cls-4,.cls-5,.cls-6{stroke-miterlimit:10;}.cls-2{fill:#4a494a;}.cls-2,.cls-4,.cls-5{stroke:#4a494a;}.cls-3{fill:#161818;}.cls-4,.cls-5,.cls-7{fill:none;}.cls-4{stroke-width:0.75px;}.cls-6{fill:#303030;stroke:#303030;}.cls-7{stroke-linecap:round;stroke-linejoin:round;stroke-width:2px;}</style></defs><title>music_icon</title><g id="startskærm"><g id="musik"><ellipse class="cls-1" cx="109.67" cy="105.52" rx="5.76" ry="4.13" transform="translate(-38.07 68.97) rotate(-30)"/><path class="cls-2" d="M77.08,70.66s22.38,35.35,27.15,36.8c0,0,8.8-3.09,9.17-6.55,0,0-15.75-37.45-18.71-36.08S76.53,65,77.08,70.66Z"/><ellipse class="cls-3" cx="80.73" cy="59.46" rx="16.33" ry="15.67"/><path class="cls-4" d="M68.09,50.08c.56.83.13,1.93-.08,2.91a10.74,10.74,0,0,0,.55,5.4,38.47,38.47,0,0,0,8.93,15.3"/><path class="cls-4" d="M72.34,46.64c2.46,9.71,5.2,19.92,12.29,27"/><path class="cls-4" d="M76.52,44.56,88.65,70.5"/><path class="cls-4" d="M80.89,44.77A4.39,4.39,0,0,0,82.29,47c5.84,6.24,8.71,14.61,11.43,22.7"/><path class="cls-4" d="M86.65,46.22A31.71,31.71,0,0,1,96,64.14"/><path class="cls-4" d="M64.79,59c-.18.09-.16-.32,0-.29s.26.27.29.47a21.42,21.42,0,0,0,6.2,12"/><path class="cls-4" d="M86,45.49a30.83,30.83,0,0,0-21.62,16.9c0,.09-.19-.09-.09-.11-.07-.21,1.5,4.07,1.69,4.18s.43-.06.59-.22l5.84-5.86a27.57,27.57,0,0,1,3.27-2.94,28.24,28.24,0,0,1,4-2.28l12.72-6.4"/><path class="cls-4" d="M69,68.54c6-2.23,11.89-4.74,17-8.51a80.31,80.31,0,0,0,7.8-6.85"/><path class="cls-4" d="M65.37,56.14a1,1,0,0,1-.77,1.19,38.59,38.59,0,0,1,5-5.28c3.21-3,6.6-6,10.84-7.15"/><path class="cls-4" d="M71.07,71.21a30.09,30.09,0,0,0,24.79-13"/><path class="cls-5" d="M96.2,62.52c-2,5.22-7.61,8-12.73,10.25-2.13,1-4.59,1.9-6.71.93"/><path class="cls-4" d="M66.31,63.25a27.86,27.86,0,0,1,22.42-14.9"/><path class="cls-4" d="M93.82,54.36a14.58,14.58,0,0,1-4.28,4.85L84,63.9a33.07,33.07,0,0,1-3.33,2.56c-3,1.91-6.46,2.8-9.89,3.67"/><path class="cls-4" d="M67.64,50.29l8.11-4.47"/><path class="cls-4" d="M91.54,50.92,79.22,60.85c-3.71,3-7.48,6-11.89,7.82"/><path class="cls-6" d="M93.57,89.8s-3.12-3.17-3.74-6.34,2-3.33,2-3.33l3.24,6Z"/><path class="cls-7" d="M131,193a14.8,14.8,0,0,0,5.85-13.25c-.84-7.78-7.55-13.44-11.13-20.39s-4-15.1-4-22.93c-.05-4.86-.1-10-2.47-14.21-1.35-2.42-3.37-4.38-5-6.63s-2.87-5-2.33-7.72"/><path class="cls-7" d="M129.91,74.49c-1.56-.67-3.44.58-4,2.2a6.56,6.56,0,0,0,.81,4.9,4.12,4.12,0,0,0,1.07,1.4c1.43,1.05,3.63,0,4.29-1.69a7.48,7.48,0,0,0-.38-5.17c-1.33-3.71-9.47-13.79-11.5-15.33a47.65,47.65,0,0,0,10-12.88,36.17,36.17,0,0,1,12.85,19,6.34,6.34,0,0,1,.22,3.6,2.49,2.49,0,0,1-2.78,1.81,3.14,3.14,0,0,1-1.84-2.18,9.33,9.33,0,0,1,2-9.14"/><path class="cls-7" d="M125.52,65.56a57.63,57.63,0,0,0,10-12"/><path class="cls-7" d="M131.39,78.45a2.4,2.4,0,0,1-1.39.87,2.79,2.79,0,0,0-1.21-1.17,5.57,5.57,0,0,1,.28,2.22,10.67,10.67,0,0,1-.62-2.55,9,9,0,0,1,2.22,2.39,1.08,1.08,0,0,1-1.51.53,2.13,2.13,0,0,1-1-1.48,2.44,2.44,0,0,1,.24-1.8,1.36,1.36,0,0,1,1.62-.56c.78.37.81,1.49.59,2.33a1.79,1.79,0,0,1-.59,1,1.35,1.35,0,0,1-1.76-.39,3.44,3.44,0,0,1-.61-1.86,2.58,2.58,0,0,1,.15-1.51,1.81,1.81,0,0,1,2.74-.16,4,4,0,0,1,.94,3,2.15,2.15,0,0,1-.32,1.32,1.58,1.58,0,0,1-1.91.34,3.58,3.58,0,0,1-1.43-1.48,3.51,3.51,0,0,1-.61-2.69c.27-.91,1.45-1.56,2.21-1a2.43,2.43,0,0,0-1.75,2.56,7,7,0,0,0,1.17,3.14c.17.3.38.63.72.69a4,4,0,0,1-2.23-6,7.43,7.43,0,0,0,2,4.21,11.72,11.72,0,0,1-.58-3.9,2.36,2.36,0,0,1,1.67,1.88,6.92,6.92,0,0,1-.12,2.64,6.71,6.71,0,0,0-1.06-4.87,7.33,7.33,0,0,1,.48,4.21l-1.22-2.6,1.19,1a16.11,16.11,0,0,1-.65-3c1.49.61,1.75,2.57,1.78,4.17a2.31,2.31,0,0,1-.28,1.43c-.71,1-2.38.26-3-.82a4.39,4.39,0,0,1,.26-4.54,3.51,3.51,0,0,0,2.41,4.77,2.67,2.67,0,0,1-3.08-2.62,7.79,7.79,0,0,0,2.34,4,4,4,0,0,1-1.72-5L130,81.05l-1.38,1.3a4.23,4.23,0,0,0,.58-7.2,4.28,4.28,0,0,1,1.74,5.4"/><path class="cls-7" d="M141.16,65.74l-.4-.63c-1.53,2.14-1.45,3.38-.07,5.63a8.57,8.57,0,0,1-1.52-3,2.86,2.86,0,0,1,1.07-3,2.85,2.85,0,0,0-1.09,3,8.31,8.31,0,0,0,1.58,3,15,15,0,0,1-.67-5.19,18.17,18.17,0,0,1,.66,5.49,12,12,0,0,0,.23-4.81,25.07,25.07,0,0,0,1,4.84,13.28,13.28,0,0,0-.52-5.53,3.91,3.91,0,0,1,1.18,3.26c-.27,1.17-1.86,2-2.74,1.17a2.37,2.37,0,0,1-.6-1.24,8,8,0,0,1,.21-4.16,7.19,7.19,0,0,0,1.34,6.94,3.78,3.78,0,0,0,1.79-4,11.15,11.15,0,0,0-1.84-4.23l-.48,4.35a8.49,8.49,0,0,1,0-4.19,4.81,4.81,0,0,0-.48,3.54,6.09,6.09,0,0,1,.65-4.18C141.68,65.06,142.41,63.52,141.16,65.74Z"/><path class="cls-7" d="M105,37.75c-1.28-1.1-3.43-.46-4.38.94a6.65,6.65,0,0,0-.68,4.92,4,4,0,0,0,.6,1.66c1,1.41,3.44,1,4.55-.37a7.46,7.46,0,0,0,1.16-5c-.16-3.93-4.88-15.94-6.35-18a47.89,47.89,0,0,0,13.22-9.4,36.26,36.26,0,0,1,6.54,21.93,6.49,6.49,0,0,1-.86,3.51,2.47,2.47,0,0,1-3.16.92,3.1,3.1,0,0,1-1.09-2.62,9.35,9.35,0,0,1,4.6-8.14"/><path class="cls-7" d="M103.5,28a57.55,57.55,0,0,0,13.08-8.57"/><path class="cls-7" d="M105.31,42a2.4,2.4,0,0,1-1.58.42,2.79,2.79,0,0,0-.81-1.47,5.53,5.53,0,0,1-.39,2.2,10.45,10.45,0,0,1,.17-2.62,9.13,9.13,0,0,1,1.41,2.93,1.08,1.08,0,0,1-1.6.07,2.11,2.11,0,0,1-.49-1.7,2.39,2.39,0,0,1,.76-1.65,1.34,1.34,0,0,1,1.71-.06c.64.59.34,1.66-.12,2.4a1.81,1.81,0,0,1-.88.83,1.36,1.36,0,0,1-1.57-.89,3.62,3.62,0,0,1,0-2,2.49,2.49,0,0,1,.59-1.4,1.81,1.81,0,0,1,2.66.66,4,4,0,0,1,0,3.09,2.17,2.17,0,0,1-.7,1.17,1.58,1.58,0,0,1-1.92-.24,3.56,3.56,0,0,1-.93-1.84,3.49,3.49,0,0,1,.21-2.75,1.55,1.55,0,0,1,2.4-.29,2.45,2.45,0,0,0-2.43,1.93,7.19,7.19,0,0,0,.19,3.35c.08.34.18.72.49.87a4,4,0,0,1-.36-6.41,7.48,7.48,0,0,0,.67,4.61,11.51,11.51,0,0,1,.59-3.9,2.36,2.36,0,0,1,1,2.29,6.85,6.85,0,0,1-.9,2.49,6.7,6.7,0,0,0,.43-5,7.34,7.34,0,0,1-.78,4.17l-.4-2.85.83,1.36a16.57,16.57,0,0,1,.26-3.06c1.24,1,.91,3,.47,4.52a2.33,2.33,0,0,1-.69,1.29c-1,.74-2.35-.46-2.59-1.67a4.39,4.39,0,0,1,1.59-4.26,3.51,3.51,0,0,0,.89,5.27,2.67,2.67,0,0,1-2.17-3.41,7.91,7.91,0,0,0,1,4.56,4,4,0,0,1-.16-5.33l.93,4.31-1.7.84a4.23,4.23,0,0,0,2.67-6.71,4.27,4.27,0,0,1,.08,5.67"/><path class="cls-7" d="M118.19,32.66,118,32c-2.08,1.6-2.36,2.81-1.72,5.35a8.5,8.5,0,0,1-.55-3.34,2.91,2.91,0,0,1,1.91-2.57A2.87,2.87,0,0,0,115.71,34a8.27,8.27,0,0,0,.59,3.35,15.35,15.35,0,0,1,.9-5.16,18,18,0,0,1-1,5.44,12.24,12.24,0,0,0,1.65-4.53,24.66,24.66,0,0,0-.49,4.92,13.57,13.57,0,0,0,1.14-5.44,3.88,3.88,0,0,1,.15,3.46c-.59,1-2.33,1.36-2.93.32a2.3,2.3,0,0,1-.2-1.35,8,8,0,0,1,1.42-3.92,7.26,7.26,0,0,0-.78,7A3.82,3.82,0,0,0,119,34.82a11.18,11.18,0,0,0-.5-4.58l-1.74,4a8.74,8.74,0,0,1,1.22-4,4.81,4.81,0,0,0-1.5,3.24,6.18,6.18,0,0,1,1.85-3.81C118.88,32.17,120,30.91,118.19,32.66Z"/><path class="cls-7" d="M45.26,78.3a12.84,12.84,0,0,0,4.35-7.91c3.28,7.08,6.59,14.21,8.47,21.78a10,10,0,0,1,.4,3.84,3.8,3.8,0,0,1-2.12,3,3.53,3.53,0,0,1-4.28-1.93,5.58,5.58,0,0,1,.44-5A14.45,14.45,0,0,1,56,88.34l.42.79"/><path class="cls-7" d="M26.26,61a15.91,15.91,0,0,0,4.08-7.76,225.1,225.1,0,0,1,3.09,24c.14,2,.23,4.12-.78,5.84s-3.56,2.66-5,1.34a3.37,3.37,0,0,1-.88-3.19,8,8,0,0,1,1.54-3.06,16.35,16.35,0,0,1,4.5-4.39"/><path class="cls-7" d="M55.06,91.46a4.29,4.29,0,0,0-1.38,3.4,2.17,2.17,0,0,0,.6,1.47,1.13,1.13,0,0,0,1.48.09,1.69,1.69,0,0,0,.4-.89,12.74,12.74,0,0,0,.16-4.13,2.52,2.52,0,0,0-1.07,4A1.82,1.82,0,0,0,55,92.83a1.39,1.39,0,0,0,.31,2,2.79,2.79,0,0,0,.1-3,2.58,2.58,0,0,0-1.74,2.81,7,7,0,0,0,1.5,3.25A9.08,9.08,0,0,0,57,90a4,4,0,0,0-3.93,6.72,2.28,2.28,0,0,0,2.42.66,2.45,2.45,0,0,0,1-1.07A6.1,6.1,0,0,0,56.86,91a1.93,1.93,0,0,0-.54-.8c-.74-.58-1.83,0-2.48.64a4.64,4.64,0,0,0-1.38,4.5c.52,1.56,2.66,2.51,3.94,1.47s1-3,.49-4.6c-.24-.86-.86-1.94-1.71-1.67-.64.21-.79,1-.8,1.7a24.5,24.5,0,0,0,.35,4.61,1.3,1.3,0,0,0,.26.7,1,1,0,0,0,1.4-.22,2.83,2.83,0,0,0,.37-1.55,5.32,5.32,0,0,0-.25-2.25,1.78,1.78,0,0,0-1.75-1.2,1.82,1.82,0,0,0-1.37,2,5.24,5.24,0,0,0,1.08,2.42c.3.46.77,1,1.28.79a1.13,1.13,0,0,0,.43-.35,4,4,0,0,0,.86-3.1"/><path class="cls-7" d="M30.58,78.71c-.84,1-1.73,2.06-1.67,3.34s1.7,2.41,2.63,1.54a1.49,1.49,0,0,0-.41-2.29,1.93,1.93,0,0,0-2.37.75c.17,1,1.85.6,2-.35s-.66-1.78-1.49-2.27a2.51,2.51,0,0,0-1.42,2.68c.29,1,2,1.48,2.5.51a2.29,2.29,0,0,0,0-1.57c-.23-1-1-2.36-2-1.89a1.42,1.42,0,0,0-.53,1.62c.22.9,1.06,1.75,2,1.56s1-1.84.12-1.93a1.23,1.23,0,0,0-1,.55,2,2,0,0,0-.39,1.93,1.42,1.42,0,0,0,1.64.9c.75-.22,1.08-1.09,1.24-1.86a3.14,3.14,0,0,0-.19-2.32c-.43-.67-1.56-.89-2-.23S29.48,81,30.28,81a1.85,1.85,0,0,0,1.6-1.53,4.88,4.88,0,0,0-.22-2.36l-.76.12c-.4.64-.79,1.52-.29,2.08s1.7.11,1.94-.69a3.59,3.59,0,0,0-.43-2.4,2.17,2.17,0,0,0-1.25,2.64,1.83,1.83,0,0,0,1.18-1.58c0-.7-.93-1.28-1.47-.84a1.53,1.53,0,0,0-.4.7,21,21,0,0,0-1.14,7"/></g></g></svg>
