<svg xmlns="http://www.w3.org/2000/svg" width="160mm" height="230mm" viewBox="0 0 453.54 651.97"><defs><style>.cls-1{fill:#72594b;}.cls-2{fill:#8b97cc;}.cls-3{fill:#e4b69d;}.cls-4{fill:#efc7b0;}.cls-5{fill:#f69989;}.cls-6{fill:#f48684;}.cls-7{fill:#f4837a;}.cls-8{fill:#cea28b;}.cls-9{fill:#231f20;}.cls-10{fill:#543e36;}.cls-11{fill:#8c715d;}</style></defs><title>pige_ked</title><g id="værelse"><g id="pige_trist"><g id="pige_trist-2" data-name="pige_trist"><g id="hår"><path class="cls-1" d="M220.55,29.89s-42-24.66-101,2S19.19,148.75,21.24,224.39c.79,29.46,5.93,74.19,5.63,121.4-.51,80-10.25,150.29-11.13,154.8-2.21,11.33,10.75-6.53,15.05-26.31,0,0,14,8.44,15,32.41,0,0,22.87-39.51,19.11-43.9,0,0,11.6,32.76,12.29,43.23s24.91-32.76,24.57-36.47c0,0,16.72.67,19.8,33.77,0,0,15.35-18.91,17.06-24.32s9.56,3,10.24,25.67c0,0,18.18-11.64,19.79-19.59,1.31-6.42-1.28-54.86,3.84-37,11.3,39.41,117.21,6.78,111.35-16.71-2.59-10.4-2.37,58-.51,47.61l14.33,12.83s11.26-27,18.43-24.31,28.33,28,30.72,33.77,7.16-36.13,4.09-44.57,19.11,32.75,23.89,30.39,4.78-43.23,4.1-52.68,9.55,50,20.48,56.73c0,0,12.28-37.15,8.87-34.44s23.21,20.93,27.3,20.26-36.17-93.88-23.89-149.26,16.38-211-60.75-274.87S220.55,29.89,220.55,29.89Z"/><path class="cls-1" d="M78.18,508.65a1.8,1.8,0,0,1-.76-.17,2.75,2.75,0,0,1-1.21-2.4c-.51-7.81-7.33-28.6-10.56-38.1-2.79,10.69-14.66,31.75-19,39.21a1,1,0,0,1-1.86-.45C44,487.68,34.72,478.61,31.43,476c-3.29,13.6-11.42,29.15-15.29,29.15a1.12,1.12,0,0,1-.27,0c-1.95-.4-1.34-3.52-1.11-4.69,1.07-5.45,10.6-75.49,11.11-154.62.19-29.7-1.75-58-3.46-83-1-14.72-1.88-27.44-2.17-38.36-1-37.2,8.59-79.14,26.34-115.07C65.26,71.52,91,43.69,119.12,31c55.1-24.9,96-5.11,101.35-2.3,2.73-1.93,15.54-10.24,36.24-12.26,21.14-2.06,54.74,2.45,94.85,35.64,42.36,35.05,58.33,96.15,64.26,141.24,6.87,52.17,3.35,105.2-3.17,134.62-8.83,39.81,10.06,100.54,19.14,129.73,4.61,14.81,5.61,18.4,4.81,19.7a1.26,1.26,0,0,1-.87.59c-3.73.61-20.42-10.33-26.49-16.75-.93,4.65-3.34,13.44-8.91,30.26a1,1,0,0,1-.6.63,1,1,0,0,1-.87-.09c-7.89-4.88-15.08-34.53-18.72-49.93.23,14.43-.07,43.54-4.88,45.92-3.23,1.6-9.11-6.54-20.26-24.26-.82-1.3-1.65-2.63-2.39-3.79.79,6.82-.1,18.12-.45,22-.67,7.4-2.13,19.95-4.39,20.83-.2.08-1.25.4-1.87-1.07-2.24-5.38-23.14-30.57-30.14-33.21-4.56-1.72-12.95,13.66-17.16,23.76a1,1,0,0,1-.7.59,1,1,0,0,1-.89-.23l-13.23-11.85a1,1,0,0,1-.88.35c-1-.07-1.43-.1-1.75-9.71-.25-7.27-.29-17.41-.1-25.83,0-1.19.05-2.3.08-3.32-7.32,8.42-23.78,16.17-40.87,20.75-29.83,8-62.64,6.58-68.71-14.59-.31-1.07-.56-1.8-.76-2.3-.68,3.7-.68,14.77-.68,22.43s0,14.52-.46,16.77c-1.68,8.26-19.48,19.74-20.23,20.23a1,1,0,0,1-1,0,1,1,0,0,1-.53-.85c-.55-18-5.57-26-7.58-26.27-.32,0-.57.45-.71.87-1.74,5.53-16.61,23.87-17.24,24.65a1,1,0,0,1-1.77-.54c-2.54-27.37-14.62-32-18-32.72-1.84,7-17.16,33.47-22.68,37.3A3.14,3.14,0,0,1,78.18,508.65Zm-12-45.28c1.92,5.47,11.4,32.95,12,42.58a2.48,2.48,0,0,0,.11.68c4-.95,22.55-33.44,22.46-37a1.1,1.1,0,0,1,.3-.77,1,1,0,0,1,.74-.31c.7,0,16.81,1,20.49,32.24,3.9-4.9,14.06-17.91,15.38-22.09.74-2.36,2.4-2.32,2.89-2.25,4,.56,8.46,10.52,9.23,26.4,4.3-2.94,16.63-11.81,17.88-18,.42-2.06.42-9,.42-16.37,0-21,.37-25.05,2.36-25.33,1.34-.18,2.1,1.49,3,4.65,5.7,19.86,37.39,20.94,66.27,13.2,20.4-5.46,36.32-14.36,41.53-22.44.41-9.06,1.09-9.15,1.92-9.27,1.13-.16,1.48,1.18,1.64,1.83a10.62,10.62,0,0,1-1.58,8.2c-.5,11.86-.47,32.57.23,38.66a1,1,0,0,1,.53.25l13.3,11.9c2.84-6.59,12-26.26,19.15-23.57S343.51,493,347.33,500c2-6,5.18-36,2.65-43-.31-.86-.69-1.92.25-2.38s1.29-.22,6.47,8c4.13,6.56,15.12,24,17.69,23.52,3.59-1.77,4.47-38.56,3.52-51.7-.06-.9-.14-1.92.87-2.08s1.09-.17,3,7.95c3.06,12.94,10,42.45,17.09,49.13,3.48-10.62,7.76-24.72,8.77-30.24a4.8,4.8,0,0,1-.42-.75,2,2,0,0,1,.41-2.58,1.3,1.3,0,0,1,1.61-.14c.27.19.7.49.42,2.88a22.68,22.68,0,0,0,2.88,3c6.85,6.19,19,13.68,22.31,14.29-.14-2.15-2.4-9.4-5-17.7-9.13-29.35-28.13-90.42-19.18-130.76,6.48-29.24,10-82,3.14-133.92-5.89-44.73-21.69-105.32-63.55-140-39.53-32.7-72.53-37.19-93.26-35.2-22.44,2.15-35.74,12.16-35.87,12.26a1,1,0,0,1-1.12.07c-.41-.25-42.25-24.06-100.1,2.07-27.68,12.51-53.09,40-71.57,77.41-17.61,35.65-27.13,77.25-26.13,114.13.29,10.88,1.16,23.58,2.17,38.28,1.71,25,3.65,53.37,3.46,83.15-.51,79.27-10.08,149.52-11.15,155A8.76,8.76,0,0,0,16.5,503c2.35-1.65,10.09-14.07,13.31-28.89a1,1,0,0,1,.59-.7,1,1,0,0,1,.91.06c.56.34,13.19,8.2,15.27,29.92,9.35-16.47,17.93-34.33,17.84-39L64,463.13a1,1,0,0,1,.44-1.2,1,1,0,0,1,1.26.21A2.42,2.42,0,0,1,66.18,463.37Z"/></g><g id="bluse"><path class="cls-2" d="M44.14,632c3.51-23,3.8-47.33,15.48-67.38,2.53-4.34,5.63-8.46,9.81-11.24,5.08-3.38,11.29-4.49,17.3-5.52l24.81-4.28,6.17-1.08c12.12-2.18,24.26-4.89,35-10.55,1.6-.84,3.18-1.75,4.72-2.74l149.26-1.35a66.74,66.74,0,0,0,6.4,3.56c12.35,6,26.39,8.48,40.07,10.81l25.11,4.27c6.08,1,12.36,2.15,17.5,5.53,4.23,2.78,7.37,6.9,9.93,11.23,11.82,20.06,12.12,44.44,15.66,67.39Z"/></g><g id="hals"><path class="cls-3" d="M171.25,457.48s10.13,56-14.44,72.68c0,0,64.33,42.8,150.44-1.52,0,0-24.06-27.35-24.32-70.4S171.25,457.48,171.25,457.48Z"/></g><g id="ansigt"><path class="cls-4" d="M73.74,285c3.8,27.86,10.13,47.11,38,96.75s67.87,85.6,67.87,85.6,36,42,99.28-6.08,94.05-167.49,94.05-167.49c12.49,13.85,14.68-19.07,16.71-24.82s5.4-14.18,5.4-23.63-9.45-8.11-9.45-8.11,2.36-13.84-.68-13.51-27-25-27-25c12.49,15.19,3.38,33.76,3.38,33.76-5.74-24.65-41.88-45.92-41.88-45.92,3,7.77,3.38,29,3.38,29-26.68-26.68-53.35-31.74-53.35-31.74,7.09,26.34-7.43,40.52-7.43,40.52-8.44-41.2-28.37-47.28-28.37-47.28,10.47,31.75-2,39.85-2,39.85-4.06-22.29-22.29-28.36-22.29-28.36.34,15.19-12.16,28.36-12.16,28.36-3.71-25.32-21.61-58.76-21.61-58.76-32.08,33.77-33.43,61-33.43,61l-10.47-31.24c-23,24.14-25,42.55-25,42.55-11.82-14.52-8.1-37.15-8.1-37.15-21.28,27.36-25,43.23-25,43.23-1,2-1.58-2.6-4.73-7.43s-12.7-1.1-11.18,9.54c2.2,15.39,7.09,18.68,6,27.1s-2,5.69-.63,18.61S73.74,285,73.74,285Z"/></g><g id="læber"><path class="cls-5" d="M199.86,406.57s13.93-25.58,26.34-6.08c0,0,21.78-15.95,27.86,11.65l-3,3.55c-31.66,28.87-50.65-5.07-50.65-5.07l-1.52-2.53Z"/><path class="cls-6" d="M226.24,427.83a24.86,24.86,0,0,1-4-.32c-14.18-2.3-22.28-16.5-22.36-16.64l-1.51-2.52a.52.52,0,0,1,0-.54l1-1.5c.42-.78,7.45-13.35,16.16-13.64,3.91-.14,7.53,2.26,10.74,7.12,2-1.34,10.18-6.36,17.59-3.56,5.17,1.95,8.74,7.27,10.62,15.8a.53.53,0,0,1-.11.44l-3,3.54C242.79,423.88,234.35,427.83,226.24,427.83Zm-26.8-19.73,1.36,2.26c.08.16,8,13.95,21.65,16.16,9,1.45,18.49-2.31,28.24-11.2l2.83-3.31c-1.81-8-5.16-13-9.94-14.84-7.81-2.95-17,3.66-17.08,3.72a.46.46,0,0,1-.39.09.45.45,0,0,1-.33-.22c-3.07-4.83-6.49-7.21-10.15-7.09-8.23.28-15.26,13-15.33,13.14l0,0Zm.42-1.53h0Z"/></g><g id="læber-2" data-name="læber"><path class="cls-7" d="M225.64,414.67h-.1a.5.5,0,0,1-.35-.27c-.25-.52-6.34-12.52-25-4.7a.5.5,0,0,1-.38-.92c17.21-7.22,24.43,2.15,26,4.62,16-14,27.77-2.52,27.89-2.4a.5.5,0,0,1-.71.71c-.46-.46-11.44-11.13-27,2.84A.51.51,0,0,1,225.64,414.67Z"/></g><g id="næse"><path class="cls-8" d="M225,371.43a23.89,23.89,0,0,1-18.46-8.51.5.5,0,0,1,.81-.59c.48.66,12.06,16,34.8,2.9a.5.5,0,0,1,.68.19.49.49,0,0,1-.18.68C235.84,370,229.94,371.43,225,371.43Z"/></g><g id="øje_venstre"><path class="cls-9" d="M161.24,284.23a1,1,0,0,1-.83-.45,24.6,24.6,0,0,0-20.63-11.45c-39.46,3.27-57.53-6.05-58.28-6.45a1,1,0,0,1,.94-1.77c.18.1,18.39,9.44,57.19,6.22a26.28,26.28,0,0,1,22.45,12.35,1,1,0,0,1-.84,1.55Z"/></g><g id="øje_højre"><path class="cls-9" d="M282.55,282.59a1,1,0,0,1-.56-.18,1,1,0,0,1-.26-1.39A27.69,27.69,0,0,1,305,268.68c40.49,3.24,59.35-6.12,59.54-6.22a1,1,0,0,1,.91,1.78c-.78.4-19.56,9.72-60.59,6.44a26.12,26.12,0,0,0-21.48,11.47A1,1,0,0,1,282.55,282.59Z"/></g><g id="bryn_"><path class="cls-10" d="M170.82,223.38s2.37,24.31-10.8,24.31-42.89-4.56-66.86,6.42C93.16,254.11,125.91,214.6,170.82,223.38Z"/><path class="cls-10" d="M93.16,254.61a.5.5,0,0,1-.39-.82c.33-.4,33.47-39.64,78.15-30.9a.49.49,0,0,1,.4.44c.06.62,1.42,15.38-4.47,21.87a8.85,8.85,0,0,1-6.83,3c-2.57,0-5.74-.17-9.4-.37-15.15-.82-38-2-57.26,6.74A.46.46,0,0,1,93.16,254.61Zm64.7-32c-32.39,0-56.63,23.51-62.79,30.11,19-7.89,40.9-6.7,55.6-5.91,3.65.2,6.81.37,9.35.37a7.88,7.88,0,0,0,6.09-2.66c5.1-5.62,4.42-18.39,4.25-20.73A67.08,67.08,0,0,0,157.86,222.62Z"/></g><path class="cls-10" d="M271.78,222.81s-2.34,26.36,10.71,26.36,47.92-8.82,71.69,3.08C354.18,252.25,316.31,213.29,271.78,222.81Z"/><path class="cls-10" d="M354.18,252.75a.59.59,0,0,1-.22-.05c-17.84-8.93-42.27-6.07-58.43-4.18a128.76,128.76,0,0,1-13,1.15,8.39,8.39,0,0,1-6.44-2.85c-6.22-6.79-4.83-23.35-4.77-24a.51.51,0,0,1,.4-.45c44.28-9.46,82.48,29.19,82.86,29.58a.5.5,0,0,1,0,.64A.49.49,0,0,1,354.18,252.75Zm-32-7.21c10.06,0,20.44,1.18,29.48,5-8.63-7.87-41.79-35.13-79.4-27.31-.17,2.5-.9,17,4.53,22.93a7.46,7.46,0,0,0,5.71,2.52c3.16,0,7.68-.53,12.92-1.14A229.18,229.18,0,0,1,322.17,245.54Z"/><g id="hårglans"><path class="cls-11" d="M185.27,128.34a69.66,69.66,0,0,1,1.11,10.86c0,2.57-.27,5.23.66,7.62s3.57,4.38,6,3.51,3.15-3.71,3.39-6.18c.67-7-.59-14.11-2.23-21-1.41-5.86-3.14-11.75-6.36-16.86-1.07-1.7-7.08-8-6.4-2.59.66,5.16,1.62,10.3,2.42,15.44Z"/></g><g id="hårglans-2" data-name="hårglans"><path class="cls-11" d="M164.06,115.81a30.42,30.42,0,0,1,4.11-6.11c.29-.31.81-.62,1.09-.29a32,32,0,0,1-2.21,8.26q-2.34,6.39-4.64,12.8c-1.4,3.88-2.79,7.77-3.91,11.75-.85,3-1.54,6.12-2.35,9.17-.63,2.41-1.34,4.79-2.08,7.16-.2.64-1.41,5.81-2,5.84-2.22.12-.45-7.79-.3-8.6a184.14,184.14,0,0,1,6.45-26.4A91.68,91.68,0,0,1,164.06,115.81Z"/></g><g id="hårglans-3" data-name="hårglans"><path class="cls-11" d="M100.89,128.67c9.32-14.7,19.69-29.16,33.71-39.48,1.81-1.33,4-2.64,6.15-2.09a1.1,1.1,0,0,1,.53.26c.4.42.05,1.1-.3,1.55a102.1,102.1,0,0,1-9.86,10.92,202.62,202.62,0,0,0-35,44.41c-.59,1-3.41,7.24-4.59,7-2-.43-.08-5.16.24-5.95A111.1,111.1,0,0,1,100.89,128.67Z"/></g><g id="hårglans-4" data-name="hårglans"><path class="cls-11" d="M280.68,142.46a6.16,6.16,0,0,0,1.13,3,2.11,2.11,0,0,0,2.84.48,2.53,2.53,0,0,0,.62-.93c1.37-3,.9-6.52.33-9.79-1.89-10.9-4.85-22.09-12.06-30.49-.56-.66-2.46-2.83-3.42-1.9-.65.62.26,2.75.47,3.41,1.24,3.92,2.71,7.77,3.92,11.71A243.44,243.44,0,0,1,280.68,142.46Z"/></g><g id="hårglans-5" data-name="hårglans"><path class="cls-11" d="M304.85,113.42c8.08,8.08,16.21,16.23,22.62,25.69,4.95,7.3,8.89,15.4,15.13,21.65a1.37,1.37,0,0,0,1.07.55c.49-.08.75-.64.86-1.13a13.61,13.61,0,0,0-.41-6.78c-2.57-9.4-9.63-16.81-16.51-23.72a158.37,158.37,0,0,0-15.55-14.21,72.68,72.68,0,0,1-8.49-6.93c-1.25-1.3-3-2.87-4.57-2C298,107.1,304.28,112.85,304.85,113.42Z"/></g><g id="hårglans-6" data-name="hårglans"><path class="cls-11" d="M317.63,92.2c10.84,9.89,18.64,22.62,28.66,33.33a2.59,2.59,0,0,0,1.91,1.08,1.76,1.76,0,0,0,1.35-2,4.75,4.75,0,0,0-1.19-2.35c-3.88-5-8.45-9.48-12.23-14.57-1.8-2.42-3.42-5-5.34-7.31a59.78,59.78,0,0,0-8.39-8,211.05,211.05,0,0,0-26.84-18.74c-1-.59-5.87-4.22-6.89-3.83-1.23.47,0,2.48.65,3.07,1.78,1.68,4.73,2.8,6.83,4.06,2.33,1.4,4.66,2.83,7,4.3A108.15,108.15,0,0,1,317.63,92.2Z"/></g><g id="hårglans-7" data-name="hårglans"><path class="cls-11" d="M377.6,400.66c-.31,2-.37,4.55,1.44,5.47a3.13,3.13,0,0,0,3.23-.45,6.85,6.85,0,0,0,2-2.77,30.84,30.84,0,0,0,1.95-7.08c2.85-15.56,3.1-31.43,3-47.2,0-1.13.52-10.25-1.27-9.66-1.07.35-1.85,9.9-2.08,11.26q-2.06,11.92-4,23.85Q379.7,387.37,377.6,400.66Z"/></g><g id="hårglans-8" data-name="hårglans"><path class="cls-11" d="M353.42,417.35c-2,6.42-3.53,13.55-.91,19.77.13.31.31.65.64.72s.75-.28,1-.62a26.73,26.73,0,0,0,3.5-8.69q2.43-9.19,4.05-18.58c.43-2.5-.39-9.65-3.59-4.82C355.82,408.57,354.66,413.45,353.42,417.35Z"/></g><g id="hårglans-9" data-name="hårglans"><path class="cls-11" d="M114.18,451.91a23.21,23.21,0,0,0-.22,4.78,2.55,2.55,0,0,0,.45,1.43c.84,1,2.64.41,3.38-.71a8.36,8.36,0,0,0,1-4.23L120,430.45c0-.8.64-3.39-.3-3.66-1.17-.34-1.77,1.91-2,2.56a81,81,0,0,0-2.09,10.71C115.09,444,114.64,448,114.18,451.91Z"/></g><g id="hårglans-10" data-name="hårglans"><path class="cls-11" d="M84.11,430.35a38.75,38.75,0,0,0-1.74,8.94c0,.92.19,2.07,1.08,2.28a1.68,1.68,0,0,0,1.33-.39c1.29-1,1.8-2.63,2.23-4.18,4.21-15.21,8.44-30.62,8.71-46.4,0-1.24-1-8.28-3.58-5.54-1.1,1.17.34,5.56.24,7.06-.53,8.14-3,16.62-4.8,24.54Q86,423.54,84.11,430.35Z"/></g><g id="hårglans-11" data-name="hårglans"><path class="cls-11" d="M51.44,427.17c-1.27,5.49-2.87,11-3.06,16.59a1.73,1.73,0,0,0,.51,1.57c.62.41,1.44-.1,2-.64,2.35-2.47,3.51-5.8,4.5-9.06a153.71,153.71,0,0,0,5.23-23.81,81.3,81.3,0,0,0,.9-12c0-3.67-.44-7.33-.84-11l-1.79-16.16c-.54-4.86-.26-11-1.82-15.59-2.16.75-.83,9.84-.8,11.91,0,4.75.05,9.5,0,14.25a252,252,0,0,1-1.91,28.13C53.57,416.71,52.65,422,51.44,427.17Z"/></g></g></g></g></svg>
