<svg xmlns="http://www.w3.org/2000/svg" width="160mm" height="230mm" viewBox="0 0 453.54 651.97"><defs><style>.cls-1{fill:#72594b;}.cls-2{fill:#8b97cc;}.cls-3{fill:#e4b69d;}.cls-4{fill:#efc7b0;}.cls-5{fill:#f69989;}.cls-6{fill:#f48684;}.cls-7{fill:#f4837a;}.cls-8{fill:#cea28b;}.cls-9{fill:#8c715d;}.cls-10{fill:#543f37;}.cls-11{fill:#fff;}.cls-12{fill:#030407;}</style></defs><title>pige_glad</title><g id="værelse"><g id="pige_trist"><g id="pige_glad-2" data-name="pige_glad"><g id="hår"><path class="cls-1" d="M222.18,32.35s-42.06-24.7-101.22,2S20.41,151.46,22.46,227.25c.8,29.52,5.95,74.34,5.65,121.65C27.59,429.09,17.84,499.5,17,504c-2.22,11.35,10.77-6.55,15.08-26.37,0,0,14,8.46,15.05,32.48,0,0,22.91-39.59,19.15-44,0,0,11.63,32.82,12.31,43.31s25-32.82,24.62-36.54c0,0,16.76.68,19.84,33.84,0,0,15.39-18.95,17.1-24.37s9.57,3.05,10.26,25.72c0,0,18.21-11.67,19.83-19.63,1.31-6.43-1.29-55,3.85-37.05,11.32,39.49,117.44,6.79,111.57-16.75-2.6-10.42-2.37,58.15-.51,47.71l14.36,12.86s11.29-27.07,18.47-24.36,28.38,28.08,30.78,33.84,7.18-36.21,4.1-44.67S372,492.87,376.76,490.5s4.79-43.31,4.11-52.78,9.57,50.08,20.51,56.84c0,0,12.32-37.22,8.9-34.51s23.25,21,27.36,20.3-36.26-94.06-23.94-149.56,16.41-211.48-60.88-275.43S222.18,32.35,222.18,32.35Z"/><path class="cls-1" d="M79.52,512.09a1.8,1.8,0,0,1-.76-.17,2.75,2.75,0,0,1-1.21-2.4C77,501.69,70.21,480.84,67,471.33c-2.79,10.71-14.69,31.82-19,39.3a1,1,0,0,1-1.1.47,1,1,0,0,1-.76-.93C45.27,491,36,482,32.68,479.34c-3.38,14-11.83,29.94-15.6,29.18-1.94-.4-1.33-3.52-1.1-4.69,1.07-5.47,10.62-75.65,11.13-154.94.19-29.76-1.75-58.14-3.47-83.17-1-14.75-1.88-27.5-2.18-38.44C20.46,190,30.07,148,47.86,112c18.72-37.9,44.53-65.78,72.68-78.5,55.22-24.95,96.24-5.12,101.57-2.3,2.73-1.93,15.56-10.27,36.31-12.29,21.17-2.07,54.85,2.45,95,35.71,42.45,35.12,58.45,96.35,64.39,141.53,6.88,52.28,3.36,105.42-3.18,134.89-8.85,39.9,10.09,100.75,19.19,130,4.61,14.84,5.61,18.44,4.81,19.74a1.26,1.26,0,0,1-.87.59c-3.73.62-20.46-10.36-26.54-16.79-.93,4.66-3.35,13.46-8.93,30.33a1,1,0,0,1-.6.62,1,1,0,0,1-.87-.08c-7.91-4.9-15.11-34.63-18.76-50.05.23,14.45-.07,43.64-4.89,46-3.24,1.6-9.13-6.56-20.3-24.31-.82-1.31-1.66-2.64-2.4-3.8.8,6.82-.1,18.16-.45,22-.67,7.41-2.13,20-4.39,20.87-.21.08-1.26.4-1.87-1.07-2.25-5.4-23.2-30.64-30.21-33.29-4.58-1.72-13,13.7-17.19,23.82a1,1,0,0,1-1.59.36l-13.27-11.88a1,1,0,0,1-.88.36c-1-.08-1.43-.11-1.75-9.73-.25-7.3-.29-17.46-.1-25.89,0-1.2.05-2.3.08-3.33-7.34,8.44-23.83,16.2-41,20.79-29.89,8-62.76,6.59-68.84-14.61-.31-1.08-.57-1.82-.76-2.32-.69,3.7-.69,14.81-.69,22.49s0,14.54-.46,16.8c-1.68,8.28-19.52,19.79-20.27,20.27a1,1,0,0,1-1,0,1,1,0,0,1-.53-.85c-.55-18.07-5.59-26-7.6-26.32-.34-.05-.57.45-.71.87-1.75,5.54-16.64,23.92-17.28,24.7a1,1,0,0,1-1.06.32,1,1,0,0,1-.71-.86c-2.54-27.43-14.66-32-18-32.79-1.84,7-17.19,33.54-22.73,37.38A3.11,3.11,0,0,1,79.52,512.09Zm-12-45.37c1.92,5.48,11.42,33,12,42.67a2.48,2.48,0,0,0,.11.68c4-.94,22.6-33.5,22.52-37.08a1.06,1.06,0,0,1,.29-.76,1,1,0,0,1,.74-.32c.71,0,16.84,1,20.54,32.31,3.9-4.91,14.08-18,15.4-22.14.75-2.36,2.41-2.32,2.9-2.25,4,.55,8.47,10.54,9.25,26.45,4.3-2.94,16.66-11.83,17.92-18,.42-2.06.42-9,.42-16.4,0-21.07.37-25.1,2.36-25.38,1.36-.2,2.1,1.49,3,4.66,5.7,19.9,37.46,21,66.4,13.23,20.45-5.48,36.4-14.39,41.62-22.49.41-9.08,1.1-9.17,1.93-9.29,1.14-.16,1.47,1.19,1.63,1.83a10.66,10.66,0,0,1-1.58,8.22c-.51,11.88-.47,32.64.23,38.74a1,1,0,0,1,.54.25l13.32,11.92c2.85-6.6,12.06-26.31,19.19-23.62s27.11,26.45,30.93,33.52c2-6,5.2-36.1,2.66-43.07-.31-.85-.7-1.92.25-2.38s1.3-.21,6.48,8c4.13,6.57,15.16,24,17.73,23.57,3.59-1.78,4.48-38.65,3.53-51.81-.07-.9-.14-1.92.86-2.08s1.1-.16,3,8c3.07,13,10.05,42.54,17.13,49.24,3.49-10.64,7.77-24.78,8.79-30.31a4.46,4.46,0,0,1-.42-.75,2,2,0,0,1,.41-2.58,1.28,1.28,0,0,1,1.6-.15c.28.2.71.5.42,2.89a23.21,23.21,0,0,0,2.87,3c6.87,6.21,19.07,13.73,22.39,14.34-.14-2.15-2.41-9.43-5-17.74-9.16-29.41-28.2-90.61-19.23-131,6.5-29.31,10-82.16,3.15-134.2C410,151.56,394.13,90.84,352.19,56.13c-39.61-32.77-72.68-37.27-93.45-35.27C236.25,23,222.92,33,222.79,33.14a1,1,0,0,1-1.11.07c-.42-.24-42.34-24.11-100.31,2.08-27.73,12.53-53.2,40.08-71.72,77.57C32,148.58,22.46,190.27,23.46,227.22c.3,10.91,1.17,23.63,2.18,38.37,1.71,25.06,3.66,53.47,3.47,83.31C28.6,428.34,19,498.73,17.94,504.21a9,9,0,0,0-.23,2.18c2.36-1.65,10.12-14.09,13.35-29a1,1,0,0,1,.58-.7,1,1,0,0,1,.92.06c.56.34,13.21,8.22,15.3,30,9.37-16.5,18-34.4,17.87-39-.27-.77-.42-1.22-.43-1.25a1,1,0,0,1,.44-1.2,1,1,0,0,1,1.26.21A2.52,2.52,0,0,1,67.5,466.72Z"/></g><g id="bluse"><path class="cls-2" d="M45.42,635.68c3.51-23,3.8-47.42,15.51-67.52,2.53-4.34,5.64-8.48,9.83-11.26,5.08-3.38,11.3-4.5,17.33-5.53L113,547.08l6.19-1.08c12.14-2.19,24.31-4.9,35.08-10.57q2.42-1.26,4.74-2.75l149.56-1.35a68.23,68.23,0,0,0,6.41,3.57c12.38,6,26.44,8.5,40.15,10.83L380.24,550c6.1,1,12.39,2.15,17.54,5.54,4.24,2.78,7.39,6.91,10,11.26,11.85,20.09,12.14,44.52,15.7,67.52Z"/></g><g id="hals"><path class="cls-3" d="M172.78,460.81s10.15,56.09-14.47,72.84c0,0,64.46,42.88,150.75-1.53,0,0-24.11-27.4-24.37-70.55S172.78,460.81,172.78,460.81Z"/></g><g id="ansigt"><path class="cls-4" d="M75.07,288c3.81,27.92,10.16,47.2,38.07,96.94s68,85.78,68,85.78,36,42.13,99.48-6.09,94.24-167.83,94.24-167.83c12.52,13.87,14.72-19.12,16.75-24.87S397,257.71,397,248.23s-9.47-8.12-9.47-8.12,2.37-13.87-.68-13.53-27.07-25-27.07-25c12.52,15.22,3.39,33.83,3.39,33.83-5.76-24.7-42-46-42-46,3,7.79,3.38,29.1,3.38,29.1-26.73-26.73-53.46-31.8-53.46-31.8,7.11,26.39-7.44,40.6-7.44,40.6-8.46-41.28-28.43-47.37-28.43-47.37,10.49,31.81-2,39.93-2,39.93-4.06-22.33-22.33-28.43-22.33-28.43.34,15.23-12.18,28.43-12.18,28.43-3.72-25.38-21.66-58.88-21.66-58.88C145,194.77,143.59,222,143.59,222l-10.49-31.3c-23,24.19-25,42.63-25,42.63-11.85-14.55-8.13-37.22-8.13-37.22-21.31,27.41-25,43.31-25,43.31-1,2-1.59-2.6-4.74-7.44s-12.73-1.1-11.21,9.56c2.2,15.42,7.11,18.71,6,27.15s-2,5.71-.63,18.65S75.07,288,75.07,288Z"/></g><g id="læber"><path class="cls-5" d="M201.46,409.8s13.95-25.63,26.39-6.09c0,0,21.82-16,27.91,11.68l-3,3.55C221,447.87,202,413.86,202,413.86l-1.52-2.53Z"/><path class="cls-6" d="M227.89,431.1a24.07,24.07,0,0,1-4-.32c-14.2-2.3-22.31-16.53-22.39-16.67L200,411.58a.51.51,0,0,1,0-.53l1-1.51c.43-.78,7.47-13.37,16.19-13.67,3.93-.15,7.55,2.27,10.77,7.14,2-1.34,10.19-6.37,17.62-3.56,5.18,1.95,8.76,7.28,10.64,15.83a.46.46,0,0,1-.11.43l-3,3.55C244.46,427.14,236,431.1,227.89,431.1ZM201,411.34l1.36,2.27c.09.15,8,14,21.7,16.19,9,1.45,18.53-2.32,28.29-11.23l2.84-3.32c-1.82-8.06-5.17-13.06-10-14.87-7.83-3-17,3.67-17.12,3.74a.47.47,0,0,1-.38.08.45.45,0,0,1-.33-.22c-3.08-4.84-6.53-7.23-10.18-7.11-8.24.28-15.29,13-15.36,13.17a.05.05,0,0,1,0,0Zm.43-1.54h0Z"/></g><g id="læber-2" data-name="læber"><path class="cls-7" d="M235.42,417.28c-13.07,0-28.21-1.88-38.43-9a.5.5,0,0,1,.58-.82c21.05,14.76,63.58,6.67,64,6.59a.5.5,0,1,1,.19,1A156.27,156.27,0,0,1,235.42,417.28Z"/></g><g id="næse"><path class="cls-8" d="M226.66,374.59a23.92,23.92,0,0,1-18.5-8.52.49.49,0,0,1,.11-.7.5.5,0,0,1,.7.11c.48.66,12.08,16,34.87,2.9a.5.5,0,0,1,.68.19.49.49,0,0,1-.18.68C237.5,373.19,231.6,374.59,226.66,374.59Z"/></g><g id="hårglans"><path class="cls-9" d="M186.83,131A71,71,0,0,1,188,141.89c0,2.57-.27,5.23.65,7.63s3.58,4.39,6,3.52,3.16-3.71,3.4-6.2c.67-7-.6-14.13-2.24-21-1.41-5.88-3.14-11.78-6.37-16.9-1.08-1.71-7.1-8-6.41-2.59.65,5.17,1.62,10.32,2.42,15.47Z"/></g><g id="hårglans-2" data-name="hårglans"><path class="cls-9" d="M165.58,118.45a30.54,30.54,0,0,1,4.12-6.12c.29-.31.81-.62,1.09-.3a32,32,0,0,1-2.21,8.28q-2.34,6.41-4.66,12.83c-1.4,3.89-2.79,7.79-3.91,11.77-.85,3.05-1.55,6.14-2.36,9.2-.63,2.4-1.34,4.79-2.08,7.16-.2.65-1.41,5.83-2,5.86-2.22.12-.44-7.81-.3-8.61a183.34,183.34,0,0,1,6.47-26.46A91,91,0,0,1,165.58,118.45Z"/></g><g id="hårglans-3" data-name="hårglans"><path class="cls-9" d="M102.28,131.34c9.34-14.73,19.73-29.23,33.78-39.56,1.81-1.33,4-2.65,6.16-2.1a1,1,0,0,1,.53.27c.4.42.05,1.09-.3,1.55a101.43,101.43,0,0,1-9.88,10.94,203.13,203.13,0,0,0-35,44.5c-.6,1-3.41,7.25-4.6,7-2-.42-.08-5.17.25-6A111,111,0,0,1,102.28,131.34Z"/></g><g id="hårglans-4" data-name="hårglans"><path class="cls-9" d="M282.44,145.15a6.19,6.19,0,0,0,1.13,3,2.12,2.12,0,0,0,2.85.48,2.66,2.66,0,0,0,.62-.93c1.37-3,.9-6.53.33-9.81-1.9-10.92-4.87-22.13-12.09-30.55-.56-.66-2.46-2.83-3.42-1.91-.66.63.25,2.76.46,3.42,1.25,3.93,2.72,7.79,3.94,11.73A245.1,245.1,0,0,1,282.44,145.15Z"/></g><g id="hårglans-5" data-name="hårglans"><path class="cls-9" d="M306.66,116.06c8.09,8.09,16.24,16.26,22.66,25.74,5,7.31,8.91,15.43,15.16,21.69a1.36,1.36,0,0,0,1.07.55c.5-.07.75-.64.87-1.13a13.68,13.68,0,0,0-.41-6.8c-2.58-9.42-9.65-16.84-16.54-23.76a159.12,159.12,0,0,0-15.59-14.24c-2.9-2.24-6-4.3-8.51-7-1.25-1.3-3-2.87-4.58-2C299.78,109.72,306.09,115.48,306.66,116.06Z"/></g><g id="hårglans-6" data-name="hårglans"><path class="cls-9" d="M319.47,94.8c10.85,9.9,18.67,22.66,28.71,33.39a2.61,2.61,0,0,0,1.91,1.08,1.76,1.76,0,0,0,1.36-2,5,5,0,0,0-1.19-2.36c-3.9-5-8.47-9.49-12.26-14.59-1.8-2.43-3.42-5-5.35-7.33a60.66,60.66,0,0,0-8.41-8,211.8,211.8,0,0,0-26.89-18.77c-1-.6-5.88-4.23-6.91-3.84-1.23.47,0,2.48.66,3.07,1.78,1.68,4.73,2.81,6.83,4.07,2.35,1.41,4.68,2.83,7,4.31A109.39,109.39,0,0,1,319.47,94.8Z"/></g><g id="hårglans-7" data-name="hårglans"><path class="cls-9" d="M379.56,403.88c-.32,2-.38,4.56,1.43,5.49a3.16,3.16,0,0,0,3.25-.46,6.88,6.88,0,0,0,2-2.78,30.78,30.78,0,0,0,1.95-7.09c2.86-15.59,3.11-31.5,3-47.3,0-1.13.52-10.27-1.27-9.68-1.07.36-1.86,9.93-2.09,11.29q-2.06,11.94-4,23.9Q381.66,390.56,379.56,403.88Z"/></g><g id="hårglans-8" data-name="hårglans"><path class="cls-9" d="M355.33,420.61c-2.05,6.43-3.54,13.58-.92,19.8.13.31.31.65.64.73s.76-.28,1-.62a27,27,0,0,0,3.52-8.71c1.62-6.14,3-12.36,4.06-18.62.43-2.51-.39-9.67-3.61-4.83C357.73,411.8,356.57,416.7,355.33,420.61Z"/></g><g id="hårglans-9" data-name="hårglans"><path class="cls-9" d="M115.6,455.23a23.38,23.38,0,0,0-.23,4.8,2.68,2.68,0,0,0,.45,1.42c.85,1.05,2.65.41,3.39-.71a8.34,8.34,0,0,0,1-4.23l1.26-22.78c0-.8.64-3.4-.3-3.67-1.18-.34-1.78,1.92-2,2.57a81.34,81.34,0,0,0-2.09,10.73C116.51,447.3,116.05,451.27,115.6,455.23Z"/></g><g id="hårglans-10" data-name="hårglans"><path class="cls-9" d="M85.47,433.63a38.31,38.31,0,0,0-1.75,9c0,.92.19,2.07,1.09,2.28a1.66,1.66,0,0,0,1.33-.39c1.29-1,1.8-2.63,2.23-4.19,4.22-15.24,8.46-30.68,8.73-46.49,0-1.25-1-8.3-3.59-5.55-1.1,1.17.34,5.57.24,7.08-.53,8.15-3,16.64-4.81,24.59Q87.34,426.8,85.47,433.63Z"/></g><g id="hårglans-11" data-name="hårglans"><path class="cls-9" d="M52.73,430.44c-1.28,5.5-2.88,11-3.07,16.63a1.76,1.76,0,0,0,.51,1.58c.63.41,1.44-.11,2-.65,2.35-2.47,3.52-5.81,4.51-9.07a155.91,155.91,0,0,0,5.24-23.87,81.47,81.47,0,0,0,.9-12,109.8,109.8,0,0,0-.85-11l-1.79-16.19c-.53-4.87-.25-11-1.82-15.62-2.17.75-.83,9.86-.81,11.94.05,4.76.06,9.52,0,14.28a250.37,250.37,0,0,1-1.92,28.18C54.86,420,53.94,425.23,52.73,430.44Z"/></g><path class="cls-10" d="M98.46,239.37s48.48-19.54,73.09-10.66c0,0,6.85,11.68-4.06,9.65S104.56,238.1,98.46,239.37Z"/><path class="cls-10" d="M98.46,239.87a.5.5,0,0,1-.18-1c.48-.2,48.93-19.51,73.44-10.67a.51.51,0,0,1,.26.22c.15.25,3.59,6.18,1.54,9.1-1,1.42-3.06,1.86-6.12,1.29-11-2.06-63-.2-68.83,1Zm57.51-13c-19.9,0-44.34,8.15-53.56,11.51,13.92-1.15,55.42-2.37,65.17-.56,2.65.5,4.37.2,5.12-.87,1.36-1.93-.54-6.19-1.49-7.87A46.22,46.22,0,0,0,156,226.91Z"/><path class="cls-10" d="M347.67,241.4S300,221.86,275.75,230.74c0,0-6.74,11.68,4,9.65S341.68,240.13,347.67,241.4Z"/><path class="cls-10" d="M347.68,241.9h-.11c-5.7-1.21-56.86-3.07-67.73-1-3,.56-5,.14-6-1.26-2.06-2.91,1.35-8.88,1.49-9.13a.51.51,0,0,1,.26-.22c24.13-8.84,71.81,10.47,72.28,10.67a.5.5,0,0,1-.18,1ZM300.07,239c15.6,0,35.06.75,43.72,1.48-11.62-4.3-47.79-16.46-67.69-9.3-.94,1.69-2.81,6-1.45,7.89.75,1.05,2.43,1.34,5,.85C283.19,239.23,291,239,300.07,239Z"/><path d="M316.56,291.51l-.49-1.94c7.64-1.92,20.07-13.22,23.74-16.68-23.74-10.9-43.83-13.81-58.15-8.43-11.87,4.47-15.75,13.06-15.79,13.14l-1.83-.8c.17-.38,4.26-9.45,16.91-14.21,15.33-5.76,35.86-2.7,61,9.1l1.3.61-1,1C341.61,274,326.08,289.12,316.56,291.51Z"/><path d="M135.57,287.9c-17.22,0-28.13-13.76-28.25-13.91l-.64-.82.84-.6c23.41-16.89,43.63-15.7,56.46-11.73a58,58,0,0,1,22.49,12.85l-1.41,1.41a57.1,57.1,0,0,0-21.75-12.37c-12.23-3.77-31.41-4.89-53.73,10.83,2.81,3.13,14.15,14.33,30.36,12l.29,2A32.79,32.79,0,0,1,135.57,287.9Z"/><ellipse class="cls-11" cx="146.27" cy="269.19" rx="11.01" ry="9.77"/><path class="cls-12" d="M146.27,280c-6.62,0-12-4.83-12-10.77s5.39-10.77,12-10.77,12,4.83,12,10.77S152.89,280,146.27,280Zm0-19.54c-5.52,0-10,3.93-10,8.77s4.49,8.77,10,8.77,10-3.93,10-8.77S151.79,260.42,146.27,260.42Z"/><ellipse class="cls-11" cx="298.54" cy="271.73" rx="11.01" ry="9.77"/><path class="cls-12" d="M298.54,282.5c-6.62,0-12-4.83-12-10.77s5.39-10.77,12-10.77,12,4.83,12,10.77S305.16,282.5,298.54,282.5Zm0-19.54c-5.52,0-10,3.93-10,8.77s4.49,8.77,10,8.77,10-3.94,10-8.77S304.05,263,298.54,263Z"/></g></g></g></svg>
