<svg xmlns="http://www.w3.org/2000/svg" width="110mm" height="50mm" viewBox="0 0 311.81 141.73"><defs><style>.cls-1{fill:#514e4e;}.cls-2{fill:#a9c8dd;}.cls-3{fill:#231f20;}.cls-4{fill:#fff;}.cls-5{fill:#f2f1f0;}</style></defs><title>play_icon</title><g id="startskærm"><g id="startknap"><rect class="cls-1" x="20.13" y="24.46" width="275.2" height="107.77" rx="5.67" ry="5.67"/><rect class="cls-2" x="12.31" y="15.38" width="275.2" height="107.77" rx="5.67" ry="5.67"/><path class="cls-3" d="M107.33,41.38a11,11,0,0,1,4,2,13.24,13.24,0,0,1,2.88,3.12,15.4,15.4,0,0,1,1.75,3.64,11.76,11.76,0,0,1,.6,3.52,2.58,2.58,0,0,1,0,.42,2.58,2.58,0,0,0,0,.42l-.06.72A25.87,25.87,0,0,1,116,58a9.92,9.92,0,0,1-1.15,2.92,9.65,9.65,0,0,1-2.52,2.73,13,13,0,0,1-4.57,2.08,18.72,18.72,0,0,1-4.12.69c-1.55.1-3.2.15-5,.15H96c-.88,0-1.78,0-2.71-.06q-.78-.06-1.53-.06H90.25c.12,1.76.28,3.66.48,5.68s.39,3.92.57,5.69.34,3.24.48,4.45.21,1.84.21,1.92a1.61,1.61,0,0,1-.45,1.14,1.81,1.81,0,0,1-1.23.54,1.68,1.68,0,0,1-1.15-.42,1.57,1.57,0,0,1-.54-1.08,15.63,15.63,0,0,1-.21-1.62c-.1-1-.22-2.16-.36-3.58s-.29-3-.45-4.72-.31-3.42-.45-5.08-.26-3.2-.36-4.6-.15-2.51-.15-3.31c0-1,0-2.23-.09-3.67s-.15-3-.27-4.57S86,50,85.89,48.39s-.29-3-.45-4.3a.66.66,0,0,1-.18-.33c-.05-.14-.11-.37-.19-.69a2,2,0,0,1,.12-.6,4.39,4.39,0,0,1-.08-.67A7.1,7.1,0,0,0,85,41a1.56,1.56,0,0,1,.43-1.08,2,2,0,0,1,1.26-.6,1.6,1.6,0,0,1,1.08.42,2,2,0,0,1,.6,1.26c1.45-.36,2.81-.66,4.09-.9a22.58,22.58,0,0,1,4.15-.36,31.1,31.1,0,0,1,4.66.39C102.93,40.35,105,40.78,107.33,41.38Zm5.83,12.27a8.69,8.69,0,0,0-.39-2.37,10.21,10.21,0,0,0-1.23-2.68,11.38,11.38,0,0,0-2.11-2.41,7.68,7.68,0,0,0-3-1.56c-2.16-.56-4-1-5.59-1.2a28.35,28.35,0,0,0-4.27-.36,19.54,19.54,0,0,0-3.88.36c-1.18.24-2.47.52-3.88.84.16,1.36.31,2.86.46,4.48s.25,3.22.36,4.78.18,3,.24,4.45.09,2.55.09,3.43v.72a7.28,7.28,0,0,0,.06.9h1.65q.81,0,1.65.06c.89,0,1.76.06,2.62.06h2.62c1.6,0,3.11,0,4.54-.12a18.51,18.51,0,0,0,3.7-.54,11.78,11.78,0,0,0,3.24-1.41,6,6,0,0,0,1.81-1.78,6,6,0,0,0,.81-2.1c.14-.76.25-1.54.33-2.35l.06-.72Z"/><path class="cls-3" d="M127.11,58.34c0,1.29.08,2.83.24,4.63s.35,3.69.57,5.66.46,3.91.73,5.86.51,3.71.75,5.29.44,2.88.6,3.88.24,1.54.24,1.62c0,.93-.56,1.49-1.68,1.69a1.64,1.64,0,0,1-1.12-.39,1.75,1.75,0,0,1-.57-1.06q-.06-.18-.3-1.74c-.16-1-.35-2.34-.57-3.91s-.46-3.32-.72-5.26-.51-3.91-.75-5.89-.44-3.88-.58-5.69-.21-3.37-.21-4.69c0-1.92-.06-4-.18-6.13s-.24-4.18-.36-6.05-.24-3.41-.36-4.66-.18-1.9-.18-2a1.57,1.57,0,0,1,.42-1.11,2.07,2.07,0,0,1,1.27-.58,1.52,1.52,0,0,1,1.11.46A2,2,0,0,1,126,39.4q0,.18.18,2c.12,1.25.24,2.8.36,4.66s.24,3.88.36,6S127.11,56.38,127.11,58.34Z"/><path class="cls-3" d="M161.45,68.32q.54,3.74,1.26,6.68c.48,2,.94,3.63,1.36,5s.78,2.42,1.08,3.16.45,1.13.45,1.17a2.77,2.77,0,0,1,.09.33,1.69,1.69,0,0,1,0,.33,1.64,1.64,0,0,1-1,1.57,3.28,3.28,0,0,1-.72.12,1.44,1.44,0,0,1-1.51-1q-.12-.24-1.11-2.85a59.45,59.45,0,0,1-2.07-7.31,26.39,26.39,0,0,1-2.26,4.33,19.83,19.83,0,0,1-2.77,3.43,12.52,12.52,0,0,1-3.06,2.25,6.86,6.86,0,0,1-3.16.82q-6.14,0-9.08-4.21t-3-12.93a17.72,17.72,0,0,1,1.08-6.41,18.27,18.27,0,0,1,2.8-4.9,17.9,17.9,0,0,1,3.85-3.55A26.88,26.88,0,0,1,148,52a21.62,21.62,0,0,1,3.79-1.3,13.38,13.38,0,0,1,2.77-.39,6.65,6.65,0,0,1,3.12.69,9.26,9.26,0,0,1,2.2,1.57,7.71,7.71,0,0,1,1.29,1.62,6.08,6.08,0,0,1,.42.81,1.29,1.29,0,0,1,.18.67,2,2,0,0,1-.54,1.26,41.27,41.27,0,0,1,.54,7.46q0,1-.09,1.92T161.45,68.32ZM148.1,83a4.68,4.68,0,0,0,2.77-1.17,15.28,15.28,0,0,0,2.91-3.16A24.31,24.31,0,0,0,156.34,74,26.39,26.39,0,0,0,158,68.32q-.42-2.88-.66-6.07t-.3-6.8a1.65,1.65,0,0,1-.66-1.32,6.38,6.38,0,0,0-.87-.3,3.84,3.84,0,0,0-1-.12,10.73,10.73,0,0,0-2.23.33,17.45,17.45,0,0,0-3.13,1.08,21.75,21.75,0,0,0-3.4,2,15.46,15.46,0,0,0-5.44,7,14.07,14.07,0,0,0-.9,5.18,28.21,28.21,0,0,0,.75,7.27,10.63,10.63,0,0,0,2,4.15,5.81,5.81,0,0,0,2.76,1.9A11.23,11.23,0,0,0,148.1,83Z"/><path class="cls-3" d="M198.92,51.07a1.56,1.56,0,0,1,.84,1.44,1.31,1.31,0,0,1-.24.84l-.48.84-1.2,2.26c-.49.9-1,1.88-1.57,2.94s-1.08,2.1-1.56,3.1a10.35,10.35,0,0,0-.78,2.08q-.18.81-.3,1.71c-.09.4-.15.82-.22,1.26a12.88,12.88,0,0,1-.3,1.54q-.21.87-.57,2c-.24.72-.56,1.54-1,2.47a23.66,23.66,0,0,0-1.68,5c-.24,1.3-.44,2.59-.6,3.88L189.18,84a1.73,1.73,0,0,1-.19.78c-.08.44-.16.89-.24,1.36s-.18,1-.3,1.53c-.32,1.36-.61,2.47-.87,3.34s-.53,1.69-.81,2.49-.65,2-1,3.07-.71,2.67-1.12,4.63c-.36,1.8-.68,3.48-1,5s-.5,2.88-.66,4-.28,2-.36,2.65l-.12,1a1.69,1.69,0,0,1-.6,1,1.94,1.94,0,0,1-1.26.39,1.62,1.62,0,0,1-1.51-1.86s.05-.39.15-1.05.23-1.57.39-2.71.38-2.49.67-4,.6-3.24,1-5.08c.2-1,.4-2,.6-2.77s.39-1.52.57-2.16.36-1.23.54-1.75l.51-1.5c.28-.76.54-1.54.78-2.35s.5-1.82.79-3.06a13,13,0,0,0,.27-1.36q.09-.63.21-1.23c-.4-.56-1-1.35-1.66-2.37s-1.37-2.1-2-3.22c-.36-.64-.88-1.47-1.56-2.5l-2.14-3.15C177.52,72,176.8,71,176.1,70s-1.26-1.78-1.66-2.38l-.48-.72A9.63,9.63,0,0,1,173,65c-.38-.92-1-2.35-1.72-4.27-.32-.76-.64-1.55-1-2.35l-.93-2.31c-.3-.74-.59-1.41-.87-2a14.83,14.83,0,0,0-.72-1.35,2.75,2.75,0,0,1-.24-.84,1.57,1.57,0,0,1,.84-1.45,1.31,1.31,0,0,1,.84-.24,1.5,1.5,0,0,1,1.44.78c.44.77,1,1.94,1.69,3.52s1.36,3.26,2,5c.24.57.47,1.14.69,1.72s.44,1.12.66,1.62.41.95.58,1.36a4.31,4.31,0,0,0,.36.78l.48.66q.6.9,1.65,2.4l2.2,3.19c.76,1.12,1.48,2.21,2.16,3.25s1.22,1.88,1.63,2.52a9.32,9.32,0,0,0,.69,1.18q.39.57.75,1.17c.2-1,.45-2,.75-3.16a31.2,31.2,0,0,1,1.41-4,28.82,28.82,0,0,0,1.36-3.94q.33-1.41.51-2.49c.08-.68.2-1.38.36-2.11a13.62,13.62,0,0,1,1-2.64c.48-1,1-2,1.56-3.13s1.1-2.07,1.6-3l1.26-2.25.57-1a1.57,1.57,0,0,1,1.45-.85A1.31,1.31,0,0,1,198.92,51.07Z"/><path class="cls-4" d="M18.52,38.25c.45-3.12,1.13-6.47,3.48-8.57,2.16-1.92,5.22-2.34,8.09-2.68l25-2.94a6.6,6.6,0,0,1,3.22.17,2.24,2.24,0,0,1,1.46,2.58,3.12,3.12,0,0,1-1.53,1.51,40.26,40.26,0,0,1-12.16,4.73c-4.52,1-9.39,1.2-13.25,3.75-4.31,2.85-6.46,8-7.73,13.05s-1.95,10.28-4.39,14.84c-.77,1.44-1.87,2.91-3.48,3.18-1.3.23-.31-12-.27-13A156.86,156.86,0,0,1,18.52,38.25Z"/><path class="cls-5" d="M255.59,105.54c4.88-5.13,4.94-13.22,8.78-19.18,1.09-1.69,3.07-3.35,4.93-2.57s2,3.6,1.74,5.74c-.92,6.64-2.17,13.74-6.9,18.5-4,4-9.67,5.59-15.1,7-1.9.51-4,1-5.74,0-3.94-2.22,0-3.67,1.36-4.44C248.4,108.54,252.28,109,255.59,105.54Z"/></g></g></svg>
