<svg xmlns="http://www.w3.org/2000/svg" width="50mm" height="310mm" viewBox="0 0 141.73 878.74"><defs><style>.cls-1{fill:#72594b;}.cls-2{fill:#8b97cc;}.cls-3{fill:#e4b69d;}.cls-4{fill:#efc7b0;}.cls-5{fill:#f69989;}.cls-6{fill:#f48684;}.cls-7{fill:#f4837a;}.cls-8{fill:#cea28b;}.cls-9{fill:#8c715d;}.cls-10{fill:#543f37;}.cls-11{fill:#fff;}.cls-12{fill:#030407;}.cls-13{fill:#231f20;}.cls-14{fill:#543e36;}.cls-15{fill:#ddd;}</style></defs><title>pointsystem</title><g id="værelse"><g id="point"><g id="pige_glad-2" data-name="pige_glad"><g id="hår"><path class="cls-1" d="M68.65,6.18s-8.18-4.8-19.68.4S29.43,29.33,29.83,44.07C30,49.81,31,58.52,30.92,67.71a236.24,236.24,0,0,1-2.16,30.16c-.44,2.21,2.09-1.28,2.93-5.13,0,0,2.72,1.65,2.92,6.32,0,0,4.46-7.7,3.73-8.55,0,0,2.26,6.38,2.39,8.41s4.85-6.38,4.79-7.1c0,0,3.25.13,3.85,6.58,0,0,3-3.68,3.33-4.74s1.86.59,2,5c0,0,3.54-2.27,3.86-3.81.25-1.25-.26-10.69.74-7.21C61.49,95.32,82.12,89,81,84.39c-.5-2-.46,11.3-.1,9.27l2.79,2.5s2.2-5.26,3.59-4.73,5.52,5.46,6,6.57,1.39-7,.79-8.68,3.73,6.38,4.66,5.92.93-8.42.8-10.26,1.86,9.74,4,11c0,0,2.4-7.23,1.73-6.71s4.52,4.08,5.32,4-7-18.29-4.65-29.07S109.07,23.09,94,10.65,68.65,6.18,68.65,6.18Z"/><path class="cls-1" d="M40.92,99.44a.28.28,0,0,1-.15,0,.51.51,0,0,1-.23-.46,46.88,46.88,0,0,0-2.06-7.43c-.54,2.09-2.86,6.19-3.7,7.64a.19.19,0,0,1-.21.1.2.2,0,0,1-.15-.19,7.83,7.83,0,0,0-2.61-6c-.65,2.71-2.3,5.82-3,5.67-.38-.07-.26-.68-.21-.91a235.9,235.9,0,0,0,2.16-30.12c0-5.78-.34-11.3-.67-16.16-.2-2.87-.37-5.35-.43-7.48a49.57,49.57,0,0,1,5.13-22.41C38.4,14.29,43.42,8.87,48.89,6.4,59.63,1.55,67.6,5.4,68.63,6a15.34,15.34,0,0,1,7.06-2.39c4.12-.4,10.67.48,18.48,6.94,8.25,6.83,11.36,18.73,12.52,27.52,1.33,10.16.65,20.49-.62,26.22-1.72,7.75,2,19.58,3.73,25.27.89,2.88,1.09,3.58.93,3.83a.23.23,0,0,1-.17.12c-.72.12-4-2-5.16-3.26a58.94,58.94,0,0,1-1.73,5.89.18.18,0,0,1-.12.12.2.2,0,0,1-.17,0c-1.54-1-2.94-6.73-3.65-9.73,0,2.81,0,8.48-1,9-.63.31-1.77-1.28-3.94-4.73L94.37,90a26.24,26.24,0,0,1-.08,4.28c-.14,1.44-.42,3.89-.86,4.06,0,0-.24.07-.36-.21-.44-1-4.51-6-5.87-6.47-.89-.34-2.53,2.66-3.35,4.63a.16.16,0,0,1-.13.11.2.2,0,0,1-.18,0L81,94a.25.25,0,0,1-.18.07c-.19,0-.27,0-.34-1.89,0-1.42,0-3.4,0-5,0-.23,0-.44,0-.64-1.43,1.64-4.63,3.15-8,4-5.81,1.56-12.2,1.28-13.38-2.84a4.6,4.6,0,0,0-.15-.45,38.08,38.08,0,0,0-.14,4.37,28.8,28.8,0,0,1-.08,3.27c-.33,1.61-3.8,3.84-4,3.94a.18.18,0,0,1-.19,0,.18.18,0,0,1-.1-.16c-.11-3.52-1.09-5.06-1.48-5.12-.07,0-.11.09-.14.17-.34,1.08-3.23,4.65-3.36,4.8a.19.19,0,0,1-.21.06.17.17,0,0,1-.13-.16c-.5-5.34-2.85-6.23-3.51-6.38-.35,1.36-3.34,6.52-4.41,7.27A.69.69,0,0,1,40.92,99.44Zm-2.34-8.82C39,91.68,40.8,97,40.92,98.91A.49.49,0,0,0,41,99c.78-.18,4.39-6.51,4.37-7.2a.2.2,0,0,1,.06-.15.16.16,0,0,1,.14-.06c.14,0,3.28.2,4,6.28a28.38,28.38,0,0,0,3-4.31c.14-.46.47-.45.56-.43.79.1,1.65,2,1.8,5.14.84-.57,3.24-2.3,3.48-3.5a26.89,26.89,0,0,0,.09-3.19c0-4.1.07-4.88.46-4.93s.4.28.58.9c1.11,3.87,7.28,4.08,12.91,2.57,4-1.06,7.07-2.79,8.09-4.37.08-1.76.21-1.78.37-1.8s.29.23.32.35a2.08,2.08,0,0,1-.31,1.6c-.1,2.31-.09,6.34,0,7.53a.19.19,0,0,1,.1,0l2.59,2.32c.56-1.29,2.35-5.12,3.73-4.6s5.27,5.15,6,6.52c.4-1.17,1-7,.52-8.37-.06-.17-.13-.37,0-.46s.25-.05,1.26,1.55c.8,1.28,3,4.68,3.45,4.59.69-.35.87-7.52.68-10.08,0-.17,0-.37.17-.4s.21,0,.59,1.55c.59,2.52,2,8.27,3.33,9.57.67-2.07,1.51-4.82,1.7-5.89a1.09,1.09,0,0,1-.08-.15.39.39,0,0,1,.08-.5.25.25,0,0,1,.31,0c.06,0,.14.1.09.56a4.21,4.21,0,0,0,.55.58,16.12,16.12,0,0,0,4.35,2.79,28.2,28.2,0,0,0-1-3.45c-1.78-5.71-5.49-17.61-3.74-25.47,1.26-5.69,1.94-16,.61-26.08-1.15-8.72-4.23-20.52-12.38-27.27C86.22,4.43,79.79,3.56,75.76,4a14.62,14.62,0,0,0-7,2.39.22.22,0,0,1-.22,0c-.08,0-8.23-4.69-19.5.4-5.39,2.44-10.34,7.79-13.94,15.08A49.08,49.08,0,0,0,30,44.06c.06,2.12.23,4.6.42,7.46.34,4.87.72,10.4.68,16.2A234.41,234.41,0,0,1,29,97.91a1.73,1.73,0,0,0-.05.42,12.92,12.92,0,0,0,2.6-5.63.18.18,0,0,1,.29-.12c.11.06,2.57,1.59,3,5.82,1.82-3.2,3.5-6.68,3.48-7.59a1.54,1.54,0,0,0-.09-.24.19.19,0,0,1,.09-.23.19.19,0,0,1,.24,0A.44.44,0,0,1,38.58,90.62Z"/></g><g id="bluse"><path class="cls-2" d="M34.29,123.46c.68-4.47.74-9.22,3-13.12a6.52,6.52,0,0,1,1.91-2.19,8.56,8.56,0,0,1,3.37-1.08l4.84-.83,1.2-.21a23.73,23.73,0,0,0,6.82-2c.31-.17.62-.35.92-.54l29.07-.26c.41.25.82.48,1.25.69a29.13,29.13,0,0,0,7.8,2.11l4.89.83a8.69,8.69,0,0,1,3.41,1.08,6.45,6.45,0,0,1,1.94,2.18c2.3,3.91,2.36,8.66,3,13.13Z"/></g><g id="hals"><path class="cls-3" d="M59.05,89.47s2,10.9-2.82,14.16c0,0,12.53,8.33,29.31-.3A22.38,22.38,0,0,1,80.8,89.62C80.75,81.23,59.05,89.47,59.05,89.47Z"/></g><g id="ansigt"><path class="cls-4" d="M40.05,55.88c.74,5.42,2,9.17,7.4,18.84A73.65,73.65,0,0,0,60.67,91.39s7,8.19,19.34-1.18S98.33,57.59,98.33,57.59c2.43,2.69,2.86-3.72,3.26-4.84a13.7,13.7,0,0,0,1-4.6,1.53,1.53,0,0,0-1.84-1.58s.46-2.7-.13-2.63-5.27-4.87-5.27-4.87c2.44,3,.66,6.58.66,6.58-1.12-4.8-8.16-8.95-8.16-8.95.6,1.51.66,5.66.66,5.66a22.1,22.1,0,0,0-10.39-6.18c1.38,5.13-1.45,7.89-1.45,7.89-1.64-8-5.52-9.21-5.52-9.21,2,6.18-.4,7.76-.4,7.76a7.13,7.13,0,0,0-4.34-5.52c.07,3-2.37,5.52-2.37,5.52-.72-4.93-4.21-11.44-4.21-11.44-6.24,6.57-6.51,11.87-6.51,11.87l-2-6.09c-4.47,4.71-4.86,8.29-4.86,8.29C44.16,42.42,44.89,38,44.89,38,40.74,43.34,40,46.44,40,46.44c-.2.39-.31-.51-.92-1.45s-2.48-.21-2.18,1.86c.43,3,1.38,3.64,1.16,5.28A8.27,8.27,0,0,0,38,55.75C38.23,58.27,40.05,55.88,40.05,55.88Z"/></g><g id="læber"><path class="cls-5" d="M64.62,79.55s2.71-5,5.13-1.18c0,0,4.24-3.11,5.43,2.27l-.59.69c-6.17,5.62-9.87-1-9.87-1l-.3-.49Z"/><path class="cls-6" d="M69.76,83.69a4.9,4.9,0,0,1-.77-.06c-2.76-.44-4.34-3.21-4.36-3.24l-.29-.49a.09.09,0,0,1,0-.1l.2-.3c.08-.15,1.45-2.6,3.14-2.65a2.51,2.51,0,0,1,2.1,1.38,4.14,4.14,0,0,1,3.42-.69c1,.38,1.71,1.42,2.07,3.08a.08.08,0,0,1,0,.08l-.59.69A7.46,7.46,0,0,1,69.76,83.69Zm-5.22-3.84.26.44S66.35,83,69,83.44c1.75.28,3.6-.45,5.5-2.18l.55-.65c-.35-1.56-1-2.54-1.93-2.89-1.53-.57-3.31.72-3.33.73l-.08,0s0,0-.06,0a2.4,2.4,0,0,0-2-1.38c-1.6.06-3,2.54-3,2.56h0Zm.08-.3Z"/></g><g id="læber-2" data-name="læber"><path class="cls-7" d="M71.22,81c-2.54,0-5.48-.37-7.47-1.76a.11.11,0,0,1,0-.14.09.09,0,0,1,.13,0C68,82,76.22,80.39,76.31,80.37a.1.1,0,0,1,.11.08.09.09,0,0,1-.07.11A30.06,30.06,0,0,1,71.22,81Z"/></g><g id="næse"><path class="cls-8" d="M69.52,72.71a4.65,4.65,0,0,1-3.6-1.66.09.09,0,0,1,0-.13.09.09,0,0,1,.14,0c.09.13,2.35,3.11,6.78.56a.1.1,0,0,1,.1.17A6.86,6.86,0,0,1,69.52,72.71Z"/></g><g id="hårglans"><path class="cls-9" d="M61.78,25.36A12.59,12.59,0,0,1,62,27.48,4.1,4.1,0,0,0,62.12,29a1,1,0,0,0,1.17.68c.45-.16.61-.72.66-1.2a12.6,12.6,0,0,0-.44-4.09,10.82,10.82,0,0,0-1.23-3.28c-.21-.33-1.39-1.57-1.25-.51s.31,2,.47,3Z"/></g><g id="hårglans-2" data-name="hårglans"><path class="cls-9" d="M57.65,22.92a5.28,5.28,0,0,1,.8-1.19c0-.06.15-.12.21-.06a6.39,6.39,0,0,1-.43,1.61l-.91,2.49c-.27.76-.54,1.52-.76,2.29-.16.59-.3,1.2-.45,1.79s-.27.93-.41,1.39c0,.13-.27,1.14-.4,1.14-.43,0-.08-1.52,0-1.67a36.46,36.46,0,0,1,1.25-5.15A18.18,18.18,0,0,1,57.65,22.92Z"/></g><g id="hårglans-3" data-name="hårglans"><path class="cls-9" d="M45.34,25.42a27.64,27.64,0,0,1,6.57-7.69,1.52,1.52,0,0,1,1.2-.4.24.24,0,0,1,.1.05c.08.08,0,.21-.06.3a20.4,20.4,0,0,1-1.92,2.13,39.1,39.1,0,0,0-6.81,8.65c-.12.2-.67,1.41-.9,1.36-.39-.08,0-1,0-1.16A21.2,21.2,0,0,1,45.34,25.42Z"/></g><g id="hårglans-4" data-name="hårglans"><path class="cls-9" d="M80.36,28.11a1.32,1.32,0,0,0,.22.58.42.42,0,0,0,.56.09.57.57,0,0,0,.12-.18,3.35,3.35,0,0,0,.06-1.91A12.11,12.11,0,0,0,79,20.75c-.11-.13-.48-.55-.66-.37s0,.54.09.67c.24.76.52,1.51.76,2.28A46.4,46.4,0,0,1,80.36,28.11Z"/></g><g id="hårglans-5" data-name="hårglans"><path class="cls-9" d="M85.07,22.45a35.55,35.55,0,0,1,4.41,5,27.09,27.09,0,0,0,2.94,4.21.28.28,0,0,0,.21.11c.1,0,.15-.12.17-.22a2.7,2.7,0,0,0-.08-1.32,11.15,11.15,0,0,0-3.22-4.62,31.67,31.67,0,0,0-3-2.77,12.71,12.71,0,0,1-1.66-1.35c-.24-.25-.58-.56-.89-.39S85,22.34,85.07,22.45Z"/></g><g id="hårglans-6" data-name="hårglans"><path class="cls-9" d="M87.56,18.32c2.11,1.93,3.63,4.41,5.58,6.49a.51.51,0,0,0,.37.21.33.33,0,0,0,.27-.38,1,1,0,0,0-.23-.46c-.76-1-1.65-1.85-2.39-2.84-.35-.47-.66-1-1-1.42a12,12,0,0,0-1.63-1.56,41.85,41.85,0,0,0-5.23-3.65c-.2-.11-1.14-.82-1.34-.74s0,.48.13.59a8,8,0,0,0,1.32.8c.46.27.91.55,1.36.83A21,21,0,0,1,87.56,18.32Z"/></g><g id="hårglans-7" data-name="hårglans"><path class="cls-9" d="M99.24,78.4c-.06.39-.07.89.28,1.07a.61.61,0,0,0,.63-.09,1.26,1.26,0,0,0,.39-.54,6.56,6.56,0,0,0,.38-1.38,50.46,50.46,0,0,0,.59-9.19c0-.22.1-2-.25-1.88s-.36,1.93-.4,2.19q-.4,2.33-.78,4.65C99.79,75,99.52,76.68,99.24,78.4Z"/></g><g id="hårglans-8" data-name="hårglans"><path class="cls-9" d="M94.53,81.65a5.63,5.63,0,0,0-.18,3.85c0,.06.06.13.13.15s.14-.06.19-.13a5.09,5.09,0,0,0,.68-1.69c.32-1.19.58-2.4.79-3.62.09-.48-.07-1.88-.7-.94A10.09,10.09,0,0,0,94.53,81.65Z"/></g><g id="hårglans-9" data-name="hårglans"><path class="cls-9" d="M47.93,88.39a4.8,4.8,0,0,0,0,.93.48.48,0,0,0,.08.27c.17.21.52.08.66-.13a1.67,1.67,0,0,0,.2-.83l.24-4.42c0-.16.13-.66-.06-.72s-.34.38-.38.5a16.42,16.42,0,0,0-.41,2.09C48.11,86.84,48,87.61,47.93,88.39Z"/></g><g id="hårglans-10" data-name="hårglans"><path class="cls-9" d="M42.07,84.19a8,8,0,0,0-.34,1.74c0,.18,0,.4.22.44a.32.32,0,0,0,.25-.07,1.47,1.47,0,0,0,.44-.82,36.34,36.34,0,0,0,1.69-9c0-.24-.19-1.61-.69-1.07-.22.22.06,1.08,0,1.37a29.9,29.9,0,0,1-.93,4.78C42.54,82.41,42.32,83.3,42.07,84.19Z"/></g><g id="hårglans-11" data-name="hårglans"><path class="cls-9" d="M35.71,83.57a17,17,0,0,0-.6,3.23.35.35,0,0,0,.1.3c.12.08.28,0,.38-.12a4.24,4.24,0,0,0,.88-1.76,30.74,30.74,0,0,0,1-4.64,15.22,15.22,0,0,0,.17-2.33,19.08,19.08,0,0,0-.16-2.14L37.15,73a15.31,15.31,0,0,0-.35-3c-.42.15-.16,1.92-.16,2.32,0,.93,0,1.86,0,2.78a47.88,47.88,0,0,1-.37,5.48C36.12,81.53,36,82.55,35.71,83.57Z"/></g><path class="cls-10" d="M44.6,46.42S54,42.63,58.81,44.35c0,0,1.33,2.27-.79,1.88S45.78,46.18,44.6,46.42Z"/><path class="cls-10" d="M44.6,46.52a.1.1,0,0,1,0-.19c.1,0,9.52-3.79,14.28-2.07a.1.1,0,0,1,0,0c0,.05.7,1.2.3,1.77-.19.28-.59.36-1.19.25-2.15-.4-12.25,0-13.38.2ZM55.78,44c-3.87,0-8.62,1.59-10.41,2.24,2.7-.22,10.77-.46,12.67-.11.51.1.84,0,1-.17.26-.37-.1-1.2-.29-1.53A9.12,9.12,0,0,0,55.78,44Z"/><path class="cls-10" d="M93,46.82s-9.27-3.8-14-2.07c0,0-1.31,2.27.78,1.87S91.88,46.57,93,46.82Z"/><path class="cls-10" d="M93,46.92h0c-1.1-.23-11-.59-13.16-.19-.58.11-1,0-1.17-.25-.4-.56.26-1.72.29-1.77a.07.07,0,0,1,0,0c4.69-1.72,14,2,14,2.07a.1.1,0,0,1,.06.12A.11.11,0,0,1,93,46.92Zm-9.25-.57c3,0,6.82.14,8.5.28C90,45.8,83,43.44,79.13,44.83c-.18.33-.55,1.16-.28,1.53.14.2.47.26,1,.17A28.27,28.27,0,0,1,83.79,46.35Z"/><path d="M87,56.56l-.09-.38c1.49-.37,3.9-2.57,4.62-3.24C86.9,50.82,83,50.25,80.21,51.3a5.5,5.5,0,0,0-3.07,2.56l-.35-.16a5.76,5.76,0,0,1,3.28-2.76c3-1.12,7-.53,11.87,1.77l.25.12L92,53C91.86,53.15,88.85,56.1,87,56.56Z"/><path d="M51.81,55.86a7.61,7.61,0,0,1-5.49-2.71L46.2,53l.16-.11c4.55-3.29,8.48-3.05,11-2.28a11.52,11.52,0,0,1,4.37,2.49l-.28.28A11,11,0,0,0,57.2,51c-2.37-.73-6.1-1-10.44,2.11a6.92,6.92,0,0,0,5.9,2.34l.06.38A5.67,5.67,0,0,1,51.81,55.86Z"/><ellipse class="cls-11" cx="53.89" cy="52.22" rx="2.14" ry="1.9"/><path class="cls-12" d="M53.89,54.31a2.1,2.1,0,1,1,2.34-2.09A2.22,2.22,0,0,1,53.89,54.31Zm0-3.79a1.72,1.72,0,1,0,2,1.7A1.83,1.83,0,0,0,53.89,50.52Z"/><ellipse class="cls-11" cx="83.49" cy="52.71" rx="2.14" ry="1.9"/><path class="cls-12" d="M83.49,54.81a2.11,2.11,0,1,1,2.34-2.1A2.22,2.22,0,0,1,83.49,54.81Zm0-3.8a1.72,1.72,0,1,0,2,1.7A1.83,1.83,0,0,0,83.49,51Z"/></g><g id="pige_trist-2" data-name="pige_trist"><g id="hår-2" data-name="hår"><path class="cls-1" d="M67.54,749.4s-8.16-4.79-19.64.39S28.39,772.5,28.79,787.21c.16,5.72,1.16,14.42,1.1,23.59a232.28,232.28,0,0,1-2.17,30.1c-.43,2.2,2.09-1.27,2.93-5.12,0,0,2.72,1.64,2.92,6.3,0,0,4.44-7.68,3.71-8.53,0,0,2.26,6.37,2.39,8.4s4.85-6.37,4.78-7.09c0,0,3.25.13,3.85,6.57,0,0,3-3.68,3.31-4.73s1.86.59,2,5c0,0,3.54-2.26,3.85-3.81.26-1.25-.25-10.66.75-7.19,2.19,7.66,22.78,1.32,21.64-3.25-.5-2-.46,11.28-.1,9.26l2.79,2.49s2.19-5.25,3.58-4.72,5.51,5.45,6,6.56,1.4-7,.8-8.66,3.71,6.36,4.64,5.91.93-8.41.8-10.24,1.86,9.71,4,11c0,0,2.39-7.22,1.72-6.69s4.52,4.07,5.31,3.94-7-18.25-4.64-29,3.18-41-11.81-53.43S67.54,749.4,67.54,749.4Z"/><path class="cls-1" d="M39.86,842.46a.4.4,0,0,1-.15,0,.52.52,0,0,1-.23-.47,47.57,47.57,0,0,0-2-7.4c-.55,2.08-2.85,6.17-3.69,7.62a.21.21,0,0,1-.22.09.2.2,0,0,1-.15-.18,7.81,7.81,0,0,0-2.6-6c-.64,2.64-2.22,5.67-3,5.67h-.05c-.38-.08-.26-.68-.22-.91a233.14,233.14,0,0,0,2.16-30.06c0-5.77-.34-11.27-.67-16.13-.2-2.86-.36-5.34-.42-7.46a49.27,49.27,0,0,1,5.12-22.37c3.63-7.35,8.64-12.76,14.1-15.23,10.71-4.84,18.67-1,19.7-.44a15.11,15.11,0,0,1,7-2.39c4.1-.4,10.64.48,18.43,6.93,8.24,6.81,11.34,18.69,12.49,27.46,1.34,10.14.66,20.45-.61,26.16-1.72,7.74,2,19.55,3.72,25.22.9,2.88,1.09,3.58.93,3.83a.23.23,0,0,1-.17.12c-.72.12-4-2-5.14-3.26a56.68,56.68,0,0,1-1.74,5.88.18.18,0,0,1-.11.13.2.2,0,0,1-.17,0c-1.54-1-2.93-6.71-3.64-9.71,0,2.81,0,8.47-1,8.93-.63.31-1.77-1.27-3.94-4.72l-.46-.73a26,26,0,0,1-.09,4.27c-.13,1.43-.41,3.87-.85,4,0,0-.25.08-.37-.2-.43-1.05-4.5-6-5.86-6.46-.88-.33-2.51,2.66-3.33,4.62a.19.19,0,0,1-.14.11.18.18,0,0,1-.17,0L79.83,837a.2.2,0,0,1-.17.06c-.2,0-.28,0-.34-1.88,0-1.42-.06-3.39,0-5,0-.23,0-.44,0-.64-1.42,1.64-4.62,3.14-7.94,4-5.8,1.56-12.18,1.28-13.36-2.83a4.6,4.6,0,0,0-.15-.45,40.79,40.79,0,0,0-.13,4.36,27.91,27.91,0,0,1-.09,3.26c-.32,1.61-3.78,3.84-3.93,3.93a.2.2,0,0,1-.2,0,.19.19,0,0,1-.1-.17c-.11-3.5-1.08-5.05-1.47-5.1-.07,0-.11.09-.14.17-.34,1.07-3.23,4.64-3.35,4.79a.2.2,0,0,1-.21.06.19.19,0,0,1-.14-.17c-.49-5.32-2.84-6.21-3.49-6.36-.36,1.36-3.34,6.51-4.41,7.25A.58.58,0,0,1,39.86,842.46Zm-2.33-8.8c.37,1.06,2.21,6.41,2.34,8.28a.31.31,0,0,0,0,.13c.78-.19,4.38-6.5,4.37-7.19a.17.17,0,0,1,.05-.15.17.17,0,0,1,.15-.06c.13,0,3.26.2,4,6.27a28.11,28.11,0,0,0,3-4.3c.14-.46.47-.45.56-.44.78.11,1.65,2,1.79,5.13.84-.57,3.24-2.29,3.48-3.49a30,30,0,0,0,.08-3.18c0-4.09.08-4.87.46-4.92s.41.29.59.9c1.1,3.86,7.26,4.07,12.88,2.57,4-1.07,7.06-2.8,8.07-4.37.08-1.76.21-1.78.37-1.8s.29.23.32.36a2.06,2.06,0,0,1-.31,1.59c-.09,2.31-.09,6.33,0,7.52a.14.14,0,0,1,.1,0l2.59,2.31c.55-1.28,2.34-5.11,3.72-4.58s5.26,5.13,6,6.5c.4-1.17,1-7,.52-8.36-.06-.16-.14-.37,0-.46s.26,0,1.26,1.56c.8,1.27,2.94,4.66,3.44,4.57.7-.35.87-7.5.69-10.05,0-.18,0-.37.16-.4s.22,0,.59,1.54c.59,2.52,2,8.25,3.32,9.55.68-2.06,1.51-4.8,1.71-5.88a.8.8,0,0,1-.09-.14.4.4,0,0,1,.08-.5.24.24,0,0,1,.32,0s.13.09.08.56a4.47,4.47,0,0,0,.56.58,16,16,0,0,0,4.34,2.78,30.59,30.59,0,0,0-1-3.44c-1.78-5.71-5.47-17.58-3.73-25.42,1.26-5.68,1.94-15.94.61-26-1.15-8.7-4.22-20.48-12.35-27.21-7.69-6.36-14.1-7.23-18.13-6.84a14.78,14.78,0,0,0-7,2.38.18.18,0,0,1-.21,0c-.08,0-8.22-4.67-19.46.41-5.38,2.43-10.32,7.77-13.91,15A48.7,48.7,0,0,0,29,787.2c.05,2.12.22,4.58.42,7.44.33,4.87.71,10.38.67,16.17a233.08,233.08,0,0,1-2.17,30.12,2.29,2.29,0,0,0,0,.43,13,13,0,0,0,2.59-5.62.22.22,0,0,1,.11-.14.22.22,0,0,1,.18,0c.11.07,2.56,1.6,3,5.82,1.82-3.2,3.48-6.67,3.47-7.57a2.13,2.13,0,0,1-.09-.25.2.2,0,0,1,.09-.23.19.19,0,0,1,.24,0A.53.53,0,0,1,37.53,833.66Z"/></g><g id="bluse-2" data-name="bluse"><path class="cls-2" d="M33.25,866.44c.68-4.46.73-9.2,3-13.1a6.47,6.47,0,0,1,1.91-2.18,8.51,8.51,0,0,1,3.36-1.08l4.83-.83,1.2-.21a23.29,23.29,0,0,0,6.8-2c.31-.16.62-.34.92-.53l29-.26c.41.25.82.48,1.25.69a28.59,28.59,0,0,0,7.79,2.1l4.88.83a8.85,8.85,0,0,1,3.4,1.07,6.56,6.56,0,0,1,1.93,2.19c2.3,3.9,2.36,8.64,3,13.1Z"/></g><g id="hals-2" data-name="hals"><path class="cls-3" d="M58,832.52s2,10.88-2.8,14.12c0,0,12.5,8.32,29.24-.29a22.35,22.35,0,0,1-4.73-13.69C79.61,824.29,58,832.52,58,832.52Z"/></g><g id="ansigt-2" data-name="ansigt"><path class="cls-4" d="M39,799c.74,5.41,2,9.16,7.38,18.81a73.81,73.81,0,0,0,13.2,16.64s7,8.17,19.3-1.19S97.16,800.7,97.16,800.7c2.43,2.69,2.85-3.71,3.25-4.83a13.64,13.64,0,0,0,1-4.59,1.54,1.54,0,0,0-1.84-1.58s.46-2.69-.13-2.62-5.25-4.86-5.25-4.86c2.42,2.95.65,6.56.65,6.56-1.11-4.79-8.14-8.93-8.14-8.93.59,1.51.66,5.65.66,5.65C82.22,780.31,77,779.33,77,779.33c1.38,5.12-1.45,7.88-1.45,7.88-1.64-8-5.51-9.19-5.51-9.19,2,6.17-.39,7.74-.39,7.74a7.12,7.12,0,0,0-4.34-5.51c.07,3-2.36,5.51-2.36,5.51-.72-4.92-4.2-11.42-4.2-11.42-6.24,6.56-6.5,11.85-6.5,11.85l-2-6.07c-4.47,4.69-4.86,8.27-4.86,8.27-2.3-2.82-1.58-7.22-1.58-7.22-4.13,5.31-4.85,8.4-4.85,8.4-.2.39-.31-.51-.92-1.44s-2.47-.22-2.18,1.85c.43,3,1.38,3.63,1.16,5.27a8.11,8.11,0,0,0-.12,3.62C37.18,801.38,39,799,39,799Z"/></g><g id="læber-3" data-name="læber"><path class="cls-5" d="M63.52,822.62s2.7-5,5.12-1.18c0,0,4.23-3.1,5.41,2.26l-.59.69c-6.15,5.61-9.85-1-9.85-1l-.29-.49Z"/><path class="cls-6" d="M68.64,826.75a5,5,0,0,1-.77-.06,7,7,0,0,1-4.34-3.23l-.3-.49a.14.14,0,0,1,0-.11l.19-.29c.08-.15,1.45-2.6,3.14-2.65a2.49,2.49,0,0,1,2.09,1.38,4.15,4.15,0,0,1,3.42-.69c1,.38,1.7,1.41,2.07,3.07a.16.16,0,0,1,0,.09l-.59.69A7.44,7.44,0,0,1,68.64,826.75Zm-5.21-3.83.27.44a6.71,6.71,0,0,0,4.21,3.14c1.74.28,3.59-.45,5.48-2.18l.56-.64c-.36-1.57-1-2.54-1.94-2.89-1.52-.57-3.3.71-3.32.73a.09.09,0,0,1-.07,0,.1.1,0,0,1-.07,0,2.38,2.38,0,0,0-2-1.38c-1.6.06-3,2.53-3,2.56h0Zm.09-.3Z"/></g><g id="læber-4" data-name="læber"><path class="cls-7" d="M68.53,824.19h0a.08.08,0,0,1-.07-.05c0-.1-1.23-2.43-4.86-.91a.1.1,0,0,1-.13-.06.09.09,0,0,1,0-.12c3.35-1.41,4.75.42,5,.9,3.12-2.72,5.4-.49,5.42-.47a.1.1,0,0,1,0,.14.12.12,0,0,1-.14,0c-.09-.09-2.22-2.17-5.24.55A.07.07,0,0,1,68.53,824.19Z"/></g><g id="næse-2" data-name="næse"><path class="cls-8" d="M68.4,815.79a4.63,4.63,0,0,1-3.58-1.65.09.09,0,0,1,0-.14.09.09,0,0,1,.13,0c.1.13,2.35,3.11,6.77.56a.1.1,0,0,1,.13,0,.09.09,0,0,1,0,.13A6.8,6.8,0,0,1,68.4,815.79Z"/></g><g id="øje_venstre"><path class="cls-13" d="M56,798.84a.2.2,0,0,1-.17-.09,4.79,4.79,0,0,0-4-2.23c-7.66.64-11.18-1.17-11.32-1.25a.19.19,0,0,1-.08-.26.19.19,0,0,1,.26-.08s3.57,1.83,11.12,1.21a5.09,5.09,0,0,1,4.36,2.4.2.2,0,0,1-.06.27A.19.19,0,0,1,56,798.84Z"/></g><g id="øje_højre"><path class="cls-13" d="M79.59,798.52a.15.15,0,0,1-.11,0,.19.19,0,0,1,0-.27A5.36,5.36,0,0,1,84,795.82c7.87.62,11.54-1.19,11.58-1.21a.2.2,0,0,1,.26.08.19.19,0,0,1-.09.26c-.15.08-3.8,1.89-11.77,1.25a5.1,5.1,0,0,0-4.18,2.23A.19.19,0,0,1,79.59,798.52Z"/></g><g id="bryn_"><path class="cls-14" d="M57.87,787s.46,4.73-2.1,4.73-8.34-.89-13,1.24C42.77,793,49.14,785.3,57.87,787Z"/><path class="cls-14" d="M42.77,793.08a.07.07,0,0,1-.07,0,.09.09,0,0,1,0-.12c.06-.08,6.5-7.7,15.19-6A.12.12,0,0,1,58,787c0,.12.27,3-.87,4.25a1.71,1.71,0,0,1-1.33.58c-.5,0-1.12,0-1.83-.07-2.94-.16-7.39-.4-11.13,1.31Zm12.58-6.22c-6.3,0-11,4.57-12.21,5.85,3.69-1.53,8-1.3,10.81-1.14.71,0,1.33.07,1.82.07a1.55,1.55,0,0,0,1.18-.52c1-1.09.86-3.57.83-4A12.8,12.8,0,0,0,55.35,786.86Z"/></g><path class="cls-14" d="M77.49,786.9S77,792,79.58,792s9.31-1.71,13.93.6C93.51,792.62,86.15,785.05,77.49,786.9Z"/><path class="cls-14" d="M93.51,792.72h0c-3.47-1.74-8.22-1.18-11.36-.81a25,25,0,0,1-2.53.22,1.67,1.67,0,0,1-1.26-.55c-1.2-1.32-.93-4.54-.92-4.68a.1.1,0,0,1,.07-.09c8.61-1.84,16,5.68,16.11,5.75a.09.09,0,0,1,0,.13A.12.12,0,0,1,93.51,792.72Zm-6.22-1.4a14.9,14.9,0,0,1,5.73,1c-1.68-1.53-8.12-6.83-15.43-5.31,0,.48-.18,3.3.88,4.46a1.47,1.47,0,0,0,1.11.49c.61,0,1.49-.11,2.51-.23A45.33,45.33,0,0,1,87.29,791.32Z"/><g id="hårglans-12" data-name="hårglans"><path class="cls-9" d="M60.68,768.54a12.47,12.47,0,0,1,.21,2.11,4.08,4.08,0,0,0,.13,1.48,1,1,0,0,0,1.17.68c.45-.16.61-.72.65-1.2a12.53,12.53,0,0,0-.43-4.08,10.68,10.68,0,0,0-1.24-3.28c-.2-.33-1.37-1.56-1.24-.5s.32,2,.47,3Z"/></g><g id="hårglans-13" data-name="hårglans"><path class="cls-9" d="M56.56,766.1a5.86,5.86,0,0,1,.79-1.19c.06-.06.16-.12.22-.06a6.39,6.39,0,0,1-.43,1.61c-.31.83-.61,1.66-.91,2.49s-.54,1.51-.75,2.28c-.17.59-.31,1.19-.46,1.79s-.26.93-.41,1.39c0,.12-.27,1.13-.39,1.13-.43,0-.09-1.51-.06-1.67a34.91,34.91,0,0,1,1.26-5.13A16.69,16.69,0,0,1,56.56,766.1Z"/></g><g id="hårglans-14" data-name="hårglans"><path class="cls-9" d="M44.28,768.6a27.19,27.19,0,0,1,6.55-7.67,1.49,1.49,0,0,1,1.19-.41.22.22,0,0,1,.11.05c.07.08,0,.21-.06.3A20.29,20.29,0,0,1,50.15,763a39.53,39.53,0,0,0-6.8,8.64c-.11.2-.66,1.4-.89,1.35-.39-.08,0-1,0-1.15A21.1,21.1,0,0,1,44.28,768.6Z"/></g><g id="hårglans-15" data-name="hårglans"><path class="cls-9" d="M79.22,771.28a1.32,1.32,0,0,0,.22.58A.44.44,0,0,0,80,772a.71.71,0,0,0,.12-.18,3.32,3.32,0,0,0,.06-1.9,12.12,12.12,0,0,0-2.34-5.93c-.11-.13-.48-.55-.67-.37s0,.53.09.66c.24.76.53,1.51.77,2.28A46.17,46.17,0,0,1,79.22,771.28Z"/></g><g id="hårglans-16" data-name="hårglans"><path class="cls-9" d="M83.92,765.64a35.32,35.32,0,0,1,4.4,5,27.57,27.57,0,0,0,2.94,4.21c.06,0,.13.12.21.1s.14-.12.17-.21a2.69,2.69,0,0,0-.08-1.32,11,11,0,0,0-3.21-4.61,32.93,32.93,0,0,0-3-2.77,14.3,14.3,0,0,1-1.66-1.34c-.24-.26-.58-.56-.88-.39S83.81,765.52,83.92,765.64Z"/></g><g id="hårglans-17" data-name="hårglans"><path class="cls-9" d="M86.41,761.51c2.1,1.92,3.62,4.4,5.57,6.48a.49.49,0,0,0,.37.21.34.34,0,0,0,.26-.39.88.88,0,0,0-.23-.45c-.75-1-1.64-1.84-2.38-2.83-.35-.48-.66-1-1-1.43a12.07,12.07,0,0,0-1.64-1.55,41.88,41.88,0,0,0-5.21-3.64c-.2-.12-1.14-.82-1.34-.74s0,.48.13.59a7,7,0,0,0,1.32.79q.69.41,1.35.84A21.74,21.74,0,0,1,86.41,761.51Z"/></g><g id="hårglans-18" data-name="hårglans"><path class="cls-9" d="M98.07,821.47c-.07.39-.08.89.27,1.07a.63.63,0,0,0,.63-.09,1.39,1.39,0,0,0,.39-.54,6.56,6.56,0,0,0,.38-1.38,50.24,50.24,0,0,0,.59-9.17c0-.22.1-2-.25-1.88s-.36,1.92-.4,2.19c-.27,1.54-.53,3.09-.78,4.63Q98.48,818.9,98.07,821.47Z"/></g><g id="hårglans-19" data-name="hårglans"><path class="cls-9" d="M93.36,824.72a5.65,5.65,0,0,0-.17,3.84.21.21,0,0,0,.12.14c.08,0,.15-.06.19-.12a5.33,5.33,0,0,0,.69-1.69c.31-1.19.57-2.4.78-3.61.09-.49-.07-1.88-.7-.94A10.36,10.36,0,0,0,93.36,824.72Z"/></g><g id="hårglans-20" data-name="hårglans"><path class="cls-9" d="M46.86,831.43a4.14,4.14,0,0,0,0,.93.46.46,0,0,0,.08.28c.17.2.52.08.66-.14a1.53,1.53,0,0,0,.19-.82c.09-1.47.17-2.94.25-4.42,0-.15.12-.66-.06-.71s-.34.37-.38.5a16.27,16.27,0,0,0-.41,2.08C47,829.89,47,830.66,46.86,831.43Z"/></g><g id="hårglans-21" data-name="hårglans"><path class="cls-9" d="M41,827.24a7.43,7.43,0,0,0-.33,1.74c0,.18,0,.4.21.44a.32.32,0,0,0,.25-.07,1.44,1.44,0,0,0,.44-.81,36.36,36.36,0,0,0,1.69-9c0-.25-.19-1.61-.7-1.08-.21.23.07,1.08,0,1.37a30,30,0,0,1-.93,4.77C41.48,825.47,41.26,826.36,41,827.24Z"/></g><g id="hårglans-22" data-name="hårglans"><path class="cls-9" d="M34.66,826.62a17.82,17.82,0,0,0-.59,3.23.32.32,0,0,0,.1.31c.12.07.28,0,.38-.13a4.35,4.35,0,0,0,.87-1.76,30.34,30.34,0,0,0,1-4.63,16.46,16.46,0,0,0,.17-2.32,19.08,19.08,0,0,0-.16-2.14L36.1,816a15.12,15.12,0,0,0-.35-3c-.42.14-.16,1.91-.16,2.31,0,.93,0,1.85,0,2.78a49.91,49.91,0,0,1-.38,5.46A28.84,28.84,0,0,1,34.66,826.62Z"/></g></g><rect class="cls-15" x="44.74" y="154.3" width="48.55" height="48.55" rx="22.68" ry="22.68"/><rect class="cls-15" x="44.49" y="669.94" width="48.55" height="48.55" rx="22.68" ry="22.68"/><rect class="cls-15" x="44.49" y="495.58" width="48.55" height="48.55" rx="22.68" ry="22.68"/><rect class="cls-15" x="43.83" y="553.85" width="48.55" height="48.55" rx="22.68" ry="22.68"/><rect class="cls-15" x="45.4" y="611.82" width="48.55" height="48.55" rx="22.68" ry="22.68"/><rect class="cls-15" x="44.49" y="438.37" width="48.55" height="48.55" rx="22.68" ry="22.68"/><rect class="cls-15" x="44.49" y="381.16" width="48.55" height="48.55" rx="22.68" ry="22.68"/><rect class="cls-15" x="44.74" y="325.02" width="48.55" height="48.55" rx="22.68" ry="22.68"/><rect class="cls-15" x="44.49" y="268.56" width="48.55" height="48.55" rx="22.68" ry="22.68"/><rect class="cls-15" x="43.83" y="211.51" width="48.55" height="48.55" rx="22.68" ry="22.68"/></g></g></svg>
