<svg xmlns="http://www.w3.org/2000/svg" width="150mm" height="150mm" viewBox="0 0 425.2 425.2"><defs><style>.cls-1{fill:#e2e2e2;stroke:#bcbbbb;stroke-linecap:round;stroke-linejoin:round;stroke-width:4px;}</style></defs><title>tankebobbel3</title><g id="værelse"><g id="tankeboks"><path class="cls-1" d="M403.73,161.62a29.44,29.44,0,0,1,5.11,13.27c1.16,12.34-8.89,23.73-20.72,27.41s-24.77,1.13-36.33-3.33c26.71,14.81,42.47,47.16,37.67,77.32-1.48,9.31-4.93,18.64-11.71,25.18-8.91,8.62-22.46,11.13-34.68,9s-23.38-8.17-33.79-14.91c-.39,16.82-4.58,34.05-14.91,47.34s-27.55,21.88-44.14,19-30.73-18.92-28.7-35.63c-9.42,12-27.24,12-42.45,10.91-11.64-.83-23.44-1.7-34.45-5.55s-21.34-11.12-26.3-21.68c-6.52-13.9-2.43-31,6.67-43.37s22.44-20.87,35.84-28.38c-20.74-7.11-41.82-16.5-55.4-33.72s-17-44.22-2.17-60.42c12-13.15,31.6-15.61,49.41-15.88-7.5-10.8-14.62-22.1-18.39-34.69s-3.91-26.74,2.18-38.38c10.23-19.54,35.3-27,57.19-24.36,18.4,2.26,37.82,12.42,42.76,30.29,4.93-17.13,12.88-35.3,29-43,21.6-10.36,47.91,3.45,62.37,22.56C338.76,55.23,345,77.07,333.2,91c2.44-14.52,22.69-20.76,35-12.74s16.18,25.17,12.41,39.39c-2.48,9.38-9.14,21.6-19.16,24.15C377.68,140.43,394.68,147.92,403.73,161.62Z"/><path class="cls-1" d="M122.29,364.08c1.3,5.3.46,12.81-4.94,13.6-2,.29-4-.57-5.84-1.44-14.37-6.75-28.24-15-39.44-26.28-8-8-19.5-22-20-34C51.38,302,62,298.06,73,303.75,94,314.66,116.65,341.15,122.29,364.08Z"/><path class="cls-1" d="M28.39,353.67c-5.24-2.42-12.25-3.55-16.16.7-2.82,3.07-2.84,7.79-1.9,11.85,2.82,12.28,25,34,39.51,25.44C65.56,382.43,37.88,358.05,28.39,353.67Z"/></g></g></svg>
