<svg xmlns="http://www.w3.org/2000/svg" width="170mm" height="130mm" viewBox="0 0 481.89 368.5"><defs><style>.cls-1{fill:#e2e2e2;stroke:#bcbbbb;stroke-linecap:round;stroke-linejoin:round;stroke-width:4px;}</style></defs><title>tankebobbel4</title><g id="værelse"><g id="tankeboks"><path class="cls-1" d="M457.92,202.12A29.44,29.44,0,0,1,459,216.29c-2.4,12.16-15.27,20.22-27.67,20.37s-24.06-6-33.87-13.54c21.38,21.8,27.28,57.31,14.09,84.85-4.07,8.5-10,16.46-18.4,20.81-11,5.72-24.7,4.26-35.82-1.21s-20.09-14.49-28.14-23.92c-5.17,16-14.09,31.34-27.78,41.13s-32.65,13.13-47.74,5.68-24.07-26.9-17.36-42.34c-12.44,8.81-29.53,3.74-43.79-1.63-10.92-4.11-22-8.3-31.45-15.13s-17.29-16.74-19-28.28c-2.3-15.18,6.5-30.4,18.75-39.67s27.45-13.61,42.43-17c-17.85-12.73-35.38-27.73-43.49-48.11s-3.66-47.21,15.12-58.53c15.26-9.19,34.74-6,51.89-1.15-4.12-12.49-7.72-25.35-7.75-38.49s3.87-26.75,13-36.17C247.41,8.15,273.58,8.1,293.8,16.91c17,7.4,32.72,22.68,32.36,41.21,9.61-15,22.4-30.17,40-33,23.66-3.79,44.94,17,53.36,39.39,6.42,17.09,6.19,39.82-9.1,49.8,6.47-13.22,27.65-13.44,37.19-2.24s8.35,28.74.68,41.3c-5.05,8.29-14.91,18.1-25.25,17.69C439,174.38,453.14,186.4,457.92,202.12Z"/><path class="cls-1" d="M130.47,316c-.26,5.45-3.21,12.41-8.61,11.62-2-.29-3.67-1.68-5.19-3-11.85-10.56-22.79-22.44-30.32-36.43-5.38-10-12.42-26.68-9.52-38.35,3.35-13.53,14.67-14.25,23.53-5.69C117.38,260.57,131.59,292.44,130.47,316Z"/><path class="cls-1" d="M43.42,279.3c-4.34-3.81-10.73-6.89-15.69-3.93-3.57,2.14-4.94,6.66-5.2,10.81-.78,12.58,14.29,39.68,30.63,35.65C70.86,317.46,51.27,286.2,43.42,279.3Z"/></g></g></svg>
