<svg xmlns="http://www.w3.org/2000/svg" width="140mm" height="160mm" viewBox="0 0 396.85 453.54"><defs><style>.cls-1{fill:#e2e2e2;stroke:#bcbbbb;stroke-linecap:round;stroke-linejoin:round;stroke-width:4px;}</style></defs><title>tankebobbel2</title><g id="værelse"><g id="tankeboks"><path class="cls-1" d="M154.2,37.83a29.55,29.55,0,0,1,13.26-5.13c12.34-1.18,23.74,8.85,27.44,20.68s1.17,24.76-3.27,36.33c14.76-26.73,47.1-42.55,77.26-37.8,9.31,1.47,18.65,4.9,25.2,11.67,8.63,8.9,11.16,22.44,9.11,34.67s-8.14,23.39-14.86,33.81c16.83.36,34.06,4.52,47.36,14.84s21.93,27.51,19.11,44.11-18.88,30.76-35.59,28.76c12,9.39,12,27.22,11,42.42-.81,11.64-1.66,23.44-5.49,34.47S313.62,318,303.07,323c-13.89,6.55-31,2.48-43.38-6.6S238.78,294,231.25,280.6c-7.08,20.75-16.43,41.84-33.63,55.45s-44.19,17-60.41,2.27c-13.18-12-15.66-31.57-16-49.38-10.78,7.51-22.07,14.65-34.65,18.44s-26.73,4-38.39-2.12C28.64,295.07,21.1,270,23.75,248.11,26,229.71,36.11,210.27,54,205.31c-17.14-4.91-35.32-12.83-43.06-28.88C.5,154.84,14.28,128.51,33.36,114c14.55-11,36.39-17.35,50.33-5.55-14.52-2.41-20.8-22.65-12.8-35S96,57.25,110.27,61c9.38,2.47,21.61,9.1,24.18,19.13C133.05,63.92,140.51,46.91,154.2,37.83Z"/><path class="cls-1" d="M357.12,318.94c5.29-1.31,12.81-.48,13.6,4.92.3,2-.56,4-1.42,5.84-6.73,14.38-15,28.27-26.23,39.48-8,8-22,19.54-34,20.11-13.92.66-17.85-10-12.19-20.92C307.74,347.36,334.2,324.62,357.12,318.94Z"/><path class="cls-1" d="M346.86,412.86c-2.41,5.25-3.53,12.25.73,16.16,3.07,2.81,7.79,2.82,11.84,1.88,12.28-2.85,33.92-25,25.38-39.55C375.56,375.64,351.22,403.36,346.86,412.86Z"/></g></g></svg>
