<svg xmlns="http://www.w3.org/2000/svg" width="180mm" height="140mm" viewBox="0 0 510.24 396.85"><defs><style>.cls-1{fill:#e2e2e2;stroke:#bcbbbb;stroke-linecap:round;stroke-linejoin:round;stroke-width:4px;}</style></defs><title>tankebobbel1</title><g id="værelse"><g id="tankeboks"><path class="cls-1" d="M152.36,46a29.37,29.37,0,0,1,10.71-9.35c11.18-5.34,25.33.18,32.86,10s9.57,22.87,9.35,35.26C210,51.76,235,25.83,265,20c9.24-1.81,19.19-1.77,27.67,2.34,11.15,5.41,18.17,17.27,20.42,29.46s.36,24.77-2.39,36.86c15.93-5.42,33.55-7.41,49.58-2.27s30,18.35,33,34.91-7.21,35.36-23.6,39.2c14.5,4.72,20.62,21.46,24.83,36.11,3.22,11.21,6.47,22.59,6.64,34.26S398,254.7,389.83,263c-10.82,10.9-28.28,12.93-43,8.64s-27.31-13.9-39-23.9c.45,21.92-1.12,45-12.63,63.61s-35.69,31.12-56,22.81c-16.49-6.75-25.52-24.31-31.9-40.93-7.56,10.75-15.73,21.31-26.26,29.19s-23.76,12.86-36.79,11.14c-21.87-2.89-37.53-23.85-42.53-45.33-4.21-18.05-1.34-39.78,13.74-50.56-17.78,1.25-37.57,0-50.34-12.41-17.17-16.72-13.23-46.17-.26-66.32,9.89-15.36,28.25-28.75,45.39-22.43C95.81,139.2,83,122.33,86.28,108S104.35,84.15,119,82.8c9.66-.9,23.42,1.16,29.26,9.69C141.41,77.74,142.6,59.2,152.36,46Z"/><path class="cls-1" d="M439.23,240.69c4.52-3.05,11.87-4.84,14.46,0,1,1.79.84,3.95.66,6-1.4,15.82-4.4,31.69-11.13,46.07-4.81,10.28-14,25.89-25.08,30.54-12.86,5.39-20.19-3.26-18.62-15.49C402.55,284.29,419.63,253.87,439.23,240.69Z"/><path class="cls-1" d="M461.73,332.44c-.47,5.76.87,12.73,6.21,14.94,3.85,1.59,8.29,0,11.78-2.28C490.28,338.22,503,310,490,299.25,476,287.65,462.58,322,461.73,332.44Z"/></g></g></svg>
