<svg xmlns="http://www.w3.org/2000/svg" width="170mm" height="130mm" viewBox="0 0 481.89 368.5"><defs><style>.cls-1{fill:#e2e2e2;stroke:#bcbbbb;stroke-linecap:round;stroke-linejoin:round;stroke-width:4px;}</style></defs><title>tankebobbel5</title><g id="værelse"><g id="tankeboks"><path class="cls-1" d="M424.76,290a29.46,29.46,0,0,1-7,12.39c-8.77,8.76-23.94,8.28-34.32,1.5s-16.65-18.36-20.58-30.11c5.6,30-9.29,62.78-35.58,78.31-8.12,4.79-17.51,8.07-26.87,7-12.32-1.38-22.89-10.21-29.08-21s-8.6-23.22-10-35.54c-13.22,10.42-29.16,18.18-46,18.67s-34.43-7.28-42.8-21.88-5-35.74,9.16-44.83c-15.24.39-26.6-13.34-35.45-25.75-6.78-9.5-13.63-19.14-17.69-30.09s-5-23.53,0-34.08c6.55-13.89,22.34-21.63,37.67-22.5s30.38,4,44.71,9.53c-7.74-20.51-13.94-42.74-9.32-64.18s23.27-41.24,45.17-40.18c17.79.87,32.17,14.41,43.73,27.95,3.54-12.65,7.72-25.34,15-36.27s18.11-20.06,31-22.78c21.57-4.57,43.33,10,55.22,28.55,10,15.61,14.53,37.06,3.91,52.25,16.34-7.12,35.41-12.57,51.59-5.1,21.76,10,27.88,39.12,22.37,62.44-4.2,17.77-17,36.52-35.31,36.28,12.74-7.37,30.46,4.25,32.14,18.87s-9.09,28.51-22.45,34.67c-8.81,4.07-22.47,6.72-30.83.62C424.48,256.39,429.55,274.26,424.76,290Z"/><path class="cls-1" d="M89.37,202.12c-3.25,4.38-9.57,8.52-13.62,4.86-1.51-1.36-2.11-3.44-2.62-5.42-3.95-15.38-6.42-31.34-4.88-47.14,1.11-11.3,4.56-29.08,13.46-37.16,10.33-9.36,20.13-3.66,22.72,8.39C109.4,148.78,103.45,183.16,89.37,202.12Z"/><path class="cls-1" d="M37.55,123.13c-1.47-5.59-5.06-11.71-10.84-12-4.15-.22-7.8,2.77-10.34,6.08-7.66,10-10.24,40.91,5.57,46.66C39.08,170.1,40.22,133.23,37.55,123.13Z"/></g></g></svg>
