<svg xmlns="http://www.w3.org/2000/svg" width="80mm" height="30mm" viewBox="0 0 226.77 85.04"><defs><style>.cls-1{fill:#ddd;}.cls-2{fill:#231f20;}</style></defs><title>timer</title><g id="værelse"><g id="tid"><rect class="cls-1" x="8.29" y="7.04" width="213.46" height="70.15" rx="22.68" ry="22.68"/><path class="cls-2" d="M59.44,23.86a10.14,10.14,0,0,1,4,1.06A19.85,19.85,0,0,1,68.23,28a27.09,27.09,0,0,1,4.48,5,20.87,20.87,0,0,1,3.1,6.75A17.78,17.78,0,0,1,76.35,44,16.69,16.69,0,0,1,75,50.46a18.08,18.08,0,0,1-3.88,5.75,16.84,16.84,0,0,1-3.94,3,11.45,11.45,0,0,1-4.14,1.39,5.8,5.8,0,0,1-1.11.1H60.79A22.57,22.57,0,0,1,55.2,60a19.25,19.25,0,0,1-5.26-2.19,16.54,16.54,0,0,1-4.21-3.65A13.76,13.76,0,0,1,43.14,49a18.26,18.26,0,0,1-.61-4.9A27.2,27.2,0,0,1,43,39.29a29.74,29.74,0,0,1,1.25-4.74,24.62,24.62,0,0,1,2-4.25,17.17,17.17,0,0,1,2.56-3.41,9.34,9.34,0,0,1,5.72-3,2.12,2.12,0,0,1,.44-.05h.44a5.85,5.85,0,0,1,2,.29,7.67,7.67,0,0,1,.81-.15l.88-.09Zm8.62,30.81a15.76,15.76,0,0,0,3.37-5A14.66,14.66,0,0,0,72.58,44a16.51,16.51,0,0,0-.11-1.88,10,10,0,0,0-.37-1.82,19.87,19.87,0,0,0-2.66-5.89,23.34,23.34,0,0,0-3.6-4.23,17.84,17.84,0,0,0-3.57-2.59,8,8,0,0,0-2.49-1,1.6,1.6,0,0,1-.88.77,2.43,2.43,0,0,1-.94.19,3.72,3.72,0,0,1-.81-.09l-.94-.24a2.73,2.73,0,0,1-.81.09A1.92,1.92,0,0,1,54,26.84a7,7,0,0,0-2.15,1.59,13,13,0,0,0-2.29,3.05,22.47,22.47,0,0,0-1.72,3.89,31.17,31.17,0,0,0-1.11,4.3A24.09,24.09,0,0,0,46.3,44c0,.8,0,1.57.11,2.31a9.19,9.19,0,0,0,.43,2.11,10.64,10.64,0,0,0,2.29,4.52,14.22,14.22,0,0,0,3.61,3,14.83,14.83,0,0,0,4.17,1.61A19.13,19.13,0,0,0,61,58h.77a3.63,3.63,0,0,0,.78-.1A7.19,7.19,0,0,0,65,57.05,12.32,12.32,0,0,0,68.06,54.67Z"/><path class="cls-2" d="M114.68,59a1.53,1.53,0,0,1,1.48,1.63,1.26,1.26,0,0,1-.74.77,3.27,3.27,0,0,1-1.55.24l-3.1-.34c-1-.09-2.19-.18-3.6-.26s-3-.14-4.68-.17h-.95c-1.7,0-3.43,0-5.18.12s-3.34.17-4.75.26l-3.54.27-1.55.12-.44,0-.91,0a2.14,2.14,0,0,1-1.34-.41,1.16,1.16,0,0,1-.54-.94,14.58,14.58,0,0,1,1.58-6.82,15.43,15.43,0,0,1,4.75-5.1,30.32,30.32,0,0,1,4.31-2.52c1.57-.75,3.14-1.5,4.72-2.23,1.39-.61,2.73-1.23,4-1.85a27.58,27.58,0,0,0,3.43-1.95,10.76,10.76,0,0,0,2.39-2.14,3.77,3.77,0,0,0,.91-2.43,16.68,16.68,0,0,0-.2-2.71,5.89,5.89,0,0,0-.94-2.38,6.65,6.65,0,0,0-2.22-2A16.39,16.39,0,0,0,102,26.6a24.65,24.65,0,0,0-2.6-.55,14.5,14.5,0,0,0-2.12-.17,16.37,16.37,0,0,0-3,.29c-1,.19-2.34.46-3.91.81a8.13,8.13,0,0,0-2.83,1.18,11.65,11.65,0,0,0-1.89,1.61,11,11,0,0,0-1.48,2.07c-.31.64-1.1.94-2.36.91a1.8,1.8,0,0,1-1-.55,1.24,1.24,0,0,1-.24-1.13,6.29,6.29,0,0,1,.47-1,9.47,9.47,0,0,1,1.52-1.95A15.11,15.11,0,0,1,85.31,26a12.39,12.39,0,0,1,4.11-1.61q2.35-.53,4.17-.84a21.39,21.39,0,0,1,3.64-.31,20.57,20.57,0,0,1,2.73.19c1,.13,2.05.33,3.27.62A17.84,17.84,0,0,1,109,26.38a9.87,9.87,0,0,1,3,3,7.64,7.64,0,0,1,1.08,3.1,26.72,26.72,0,0,1,.17,2.76,5.62,5.62,0,0,1-1.08,3.37,12.59,12.59,0,0,1-2.86,2.76,27.31,27.31,0,0,1-4.05,2.36c-1.5.72-3,1.43-4.54,2.14l-4.45,2.11a25.75,25.75,0,0,0-4,2.31A12.25,12.25,0,0,0,88.61,54a11.44,11.44,0,0,0-1.48,4.9c.58,0,1.39-.09,2.42-.17l3.5-.24c1.31-.08,2.69-.14,4.15-.19s2.93-.07,4.41-.07h.94q5.52.09,8.76.45C113.47,58.88,114.59,59,114.68,59Z"/><path class="cls-2" d="M123.7,43a3.12,3.12,0,0,1,1.86.55,1.61,1.61,0,0,1,.77,1.32,1.63,1.63,0,0,1-.77,1.37,3.13,3.13,0,0,1-1.86.56,3.18,3.18,0,0,1-1.91-.56,1.62,1.62,0,0,1-.78-1.37,1.6,1.6,0,0,1,.78-1.32A3.17,3.17,0,0,1,123.7,43Zm0,15a3.12,3.12,0,0,1,1.86.55,1.64,1.64,0,0,1,.77,1.37,1.58,1.58,0,0,1-.77,1.34,3.18,3.18,0,0,1-1.86.53,3.23,3.23,0,0,1-1.91-.53,1.57,1.57,0,0,1-.78-1.34,1.63,1.63,0,0,1,.78-1.37A3.17,3.17,0,0,1,123.7,58Z"/><path class="cls-2" d="M143.24,41.93c0,.61.06,1.48.17,2.6s.25,2.35.4,3.67.33,2.7.51,4.09.36,2.66.54,3.8.32,2.08.43,2.83.17,1.15.17,1.18a1.08,1.08,0,0,1-.5.89,3,3,0,0,1-1.38.46,2.39,2.39,0,0,1-1.28-.34,1.19,1.19,0,0,1-.61-.87,9.63,9.63,0,0,1-.23-1.29c-.12-.77-.25-1.73-.41-2.89s-.33-2.42-.5-3.79-.35-2.73-.51-4-.29-2.53-.4-3.65a26.09,26.09,0,0,1-.17-2.65c0-.86-.05-1.94-.14-3.22s-.2-2.61-.33-4-.31-2.74-.51-4.08-.39-2.5-.57-3.46l-2.59,1.29c-.84.42-1.55.79-2.16,1.11l-1.45.77-.6.34A2,2,0,0,1,130,31a2,2,0,0,1-1.41-.48,1,1,0,0,1-.48-.86,1.16,1.16,0,0,1,.54-1l.88-.5,2.05-1.11,2.8-1.44c1-.53,2.09-1,3.16-1.51a2.66,2.66,0,0,1,2.09.05,2.36,2.36,0,0,1,1.08.33,1.39,1.39,0,0,1,.61.72,28.1,28.1,0,0,1,.74,3.58c.22,1.49.42,3.06.6,4.69s.33,3.21.44,4.74S143.24,41,143.24,41.93Z"/><path class="cls-2" d="M170.59,23.86a10.14,10.14,0,0,1,4,1.06,19.85,19.85,0,0,1,4.75,3.1,27.09,27.09,0,0,1,4.48,5,20.87,20.87,0,0,1,3.1,6.75A17.78,17.78,0,0,1,187.5,44a16.52,16.52,0,0,1-1.32,6.46,17.89,17.89,0,0,1-3.87,5.75,16.84,16.84,0,0,1-3.94,3,11.45,11.45,0,0,1-4.14,1.39,5.8,5.8,0,0,1-1.11.1h-1.18a22.57,22.57,0,0,1-5.59-.72,19.25,19.25,0,0,1-5.26-2.19,16.37,16.37,0,0,1-4.21-3.65A13.76,13.76,0,0,1,154.29,49a18.26,18.26,0,0,1-.61-4.9,27.2,27.2,0,0,1,.44-4.76,29.74,29.74,0,0,1,1.25-4.74,24.62,24.62,0,0,1,1.95-4.25,17.17,17.17,0,0,1,2.56-3.41,9.34,9.34,0,0,1,5.72-3,2.12,2.12,0,0,1,.44-.05h.44a5.85,5.85,0,0,1,2,.29,7.67,7.67,0,0,1,.81-.15l.88-.09Zm8.62,30.81a15.76,15.76,0,0,0,3.37-5A14.66,14.66,0,0,0,183.73,44a16.51,16.51,0,0,0-.11-1.88,10,10,0,0,0-.37-1.82,19.87,19.87,0,0,0-2.66-5.89,23.34,23.34,0,0,0-3.6-4.23,17.84,17.84,0,0,0-3.57-2.59,8,8,0,0,0-2.49-1,1.6,1.6,0,0,1-.88.77,2.43,2.43,0,0,1-.94.19,3.72,3.72,0,0,1-.81-.09l-.94-.24a2.73,2.73,0,0,1-.81.09,1.92,1.92,0,0,1-1.42-.48A7,7,0,0,0,163,28.43a13,13,0,0,0-2.29,3.05A22.47,22.47,0,0,0,159,35.37a31.17,31.17,0,0,0-1.11,4.3,24.09,24.09,0,0,0-.41,4.33c0,.8,0,1.57.11,2.31a9.19,9.19,0,0,0,.43,2.11,10.64,10.64,0,0,0,2.29,4.52,14.22,14.22,0,0,0,3.61,3,14.83,14.83,0,0,0,4.17,1.61,19.13,19.13,0,0,0,4.08.48h.77a3.63,3.63,0,0,0,.78-.1,7.19,7.19,0,0,0,2.42-.84A12.32,12.32,0,0,0,179.21,54.67Z"/></g></g></svg>
