<svg xmlns="http://www.w3.org/2000/svg" width="110mm" height="50mm" viewBox="0 0 311.81 141.73"><defs><style>.cls-1{fill:#514e4e;}.cls-2{fill:#a9c8dd;}.cls-3{fill:#fff;}.cls-4{fill:#f2f1f0;}.cls-5{fill:#231f20;}</style></defs><title>tryagain_icon</title><g id="taber_side" data-name="taber side"><g id="startknap"><rect class="cls-1" x="21.18" y="23.97" width="275.2" height="107.77" rx="5.67" ry="5.67"/><rect class="cls-2" x="13.37" y="14.9" width="275.2" height="107.77" rx="5.67" ry="5.67"/><path class="cls-3" d="M19.58,37.76c.45-3.11,1.13-6.47,3.48-8.56,2.15-1.93,5.22-2.35,8.09-2.69l25-2.93a6.52,6.52,0,0,1,3.23.16,2.24,2.24,0,0,1,1.46,2.58,3.14,3.14,0,0,1-1.54,1.51,40,40,0,0,1-12.15,4.73c-4.53,1-9.4,1.2-13.25,3.75-4.32,2.86-6.46,8-7.73,13s-1.95,10.28-4.39,14.85c-.77,1.44-1.88,2.9-3.49,3.18-1.3.22-.3-12-.26-13A154.28,154.28,0,0,1,19.58,37.76Z"/><path class="cls-4" d="M256.65,105.05c4.87-5.13,4.94-13.22,8.77-19.17,1.09-1.7,3.07-3.36,4.93-2.58s2,3.6,1.74,5.74c-.91,6.64-2.17,13.74-6.89,18.5-4,4-9.67,5.6-15.1,7-1.9.51-4,1-5.75,0-3.94-2.21,0-3.67,1.37-4.44C249.45,108.05,253.33,108.55,256.65,105.05Z"/><path class="cls-5" d="M90.25,55.38a.81.81,0,0,1,.58.3.92.92,0,0,1,.19.7.76.76,0,0,1-.29.56,1.06,1.06,0,0,1-.7.21l-.62-.07-1.8-.16c-.77-.06-1.7-.11-2.79-.16s-2.29-.06-3.62-.06h-.49l-.48,0c.08.71.18,1.53.27,2.47s.18,1.87.24,2.82.12,1.84.17,2.69.06,1.54.06,2.08,0,1,.08,1.74.12,1.57.19,2.46.16,1.81.25,2.74.17,1.78.25,2.55.16,1.39.21,1.9S82,79,82,79a.81.81,0,0,1-.24.59,1.14,1.14,0,0,1-.66.31.91.91,0,0,1-.61-.23.84.84,0,0,1-.29-.58c0-.06,0-.35-.1-.87S80,77,79.92,76.28s-.15-1.61-.24-2.53-.17-1.84-.24-2.73-.14-1.71-.19-2.46-.08-1.34-.08-1.77c0-.58,0-1.31-.07-2.2s-.1-1.79-.18-2.74-.15-1.87-.24-2.77-.17-1.67-.26-2.32c-1.16.05-2.29.09-3.41.15s-2.11.11-3,.17l-2.13.17-.85.06a.74.74,0,0,1-.62-.23,1.06,1.06,0,0,1-.29-.67.89.89,0,0,1,.23-.61.8.8,0,0,1,.58-.29l.9-.07,2.29-.16c1-.06,2-.13,3.21-.19s2.4-.12,3.62-.16l.13,0a.65.65,0,0,1,.26,0l.92,0,.92,0c1.37,0,2.61,0,3.7.07s2,.1,2.82.16,1.39.12,1.82.18Z"/><path class="cls-5" d="M99.5,60.86a5.07,5.07,0,0,1,1.19.11,3.31,3.31,0,0,1,.79.26,1.72,1.72,0,0,1,.49.3l.24.26a.86.86,0,0,1,.16.48A.78.78,0,0,1,102,63a.77.77,0,0,1-.51.17.94.94,0,0,1-.68-.29,1.84,1.84,0,0,0-.34-.13,3,3,0,0,0-1-.1,4,4,0,0,0-1.39.48,7.43,7.43,0,0,0-2,1.58,11.06,11.06,0,0,0-1.85,2.85,10.14,10.14,0,0,0-.82,4.31c.06.28.13.56.19.85s.14.59.23.89c.23,1,.47,2,.71,3a15,15,0,0,1,.35,3.22.84.84,0,0,1-.27.64.85.85,0,0,1-.63.26.89.89,0,0,1-.9-.9,14.28,14.28,0,0,0-.32-3c-.22-1-.45-1.93-.68-2.83s-.4-1.57-.57-2.31a9.71,9.71,0,0,1-.24-2c0-.63,0-1.41-.13-2.35s-.18-1.87-.3-2.76-.22-1.66-.31-2.32-.13-1-.13-1a.87.87,0,0,1,.23-.58,1,1,0,0,1,.67-.32.84.84,0,0,1,.57.21,1,1,0,0,1,.31.56,4.3,4.3,0,0,0,.08.54c0,.31.11.7.17,1.17s.14,1,.21,1.61.15,1.22.21,1.83a10.42,10.42,0,0,1,1.53-2.36,10.9,10.9,0,0,1,1.82-1.69,8.62,8.62,0,0,1,1.81-1A4.3,4.3,0,0,1,99.5,60.86Z"/><path class="cls-5" d="M119.64,60.92a.83.83,0,0,1,.45.77.7.7,0,0,1-.13.46l-.25.45c-.18.32-.39.72-.65,1.2l-.84,1.58c-.3.57-.58,1.13-.83,1.66a5,5,0,0,0-.42,1.11,8.38,8.38,0,0,0-.16.92c0,.22-.08.44-.12.68a6.5,6.5,0,0,1-.16.82q-.11.47-.3,1.05c-.13.39-.3.83-.52,1.32a12.76,12.76,0,0,0-.9,2.66c-.13.7-.24,1.39-.32,2.08l-.07.87a.87.87,0,0,1-.1.42q-.06.34-.12.72c0,.25-.1.52-.17.82-.17.73-.32,1.33-.46,1.79s-.29.91-.44,1.34-.35,1-.53,1.64-.38,1.43-.6,2.48-.36,1.87-.51,2.7-.27,1.54-.36,2.14-.15,1.07-.19,1.42l-.06.51a.92.92,0,0,1-.33.57,1.07,1.07,0,0,1-.67.21.87.87,0,0,1-.81-1s0-.21.08-.57.13-.84.21-1.45.21-1.33.36-2.16.32-1.73.51-2.72c.11-.56.22-1,.32-1.48s.21-.82.31-1.16.19-.66.29-.94.19-.54.27-.8.29-.83.42-1.26.27-1,.42-1.64a5.58,5.58,0,0,0,.15-.73c0-.22.07-.44.11-.66l-.89-1.27c-.37-.55-.73-1.12-1.08-1.73-.19-.34-.47-.79-.83-1.33l-1.15-1.69c-.4-.58-.78-1.14-1.16-1.66s-.67-1-.88-1.28l-.26-.38a5.26,5.26,0,0,1-.5-1c-.21-.5-.51-1.26-.92-2.29l-.52-1.26c-.17-.43-.33-.84-.5-1.24s-.31-.75-.46-1.06a7.32,7.32,0,0,0-.39-.73,1.61,1.61,0,0,1-.13-.45.83.83,0,0,1,.45-.77.69.69,0,0,1,.45-.13.81.81,0,0,1,.78.42c.23.41.53,1,.9,1.88s.73,1.75,1.1,2.69c.12.3.25.61.37.92s.23.6.35.87.22.51.31.73a3.15,3.15,0,0,0,.19.42l.26.35c.21.32.51.75.89,1.29l1.17,1.71c.41.6.8,1.18,1.16,1.74s.66,1,.87,1.35a5,5,0,0,0,.37.63,6.73,6.73,0,0,1,.4.63c.11-.52.25-1.08.41-1.69a16.51,16.51,0,0,1,.75-2.15,15,15,0,0,0,.73-2.11c.12-.5.21-1,.27-1.34s.11-.74.2-1.12a6.72,6.72,0,0,1,.51-1.42q.39-.81.84-1.68c.3-.58.59-1.11.85-1.59l.68-1.21c.18-.32.29-.5.31-.55a.83.83,0,0,1,.77-.45A.69.69,0,0,1,119.64,60.92Z"/><path class="cls-5" d="M145.81,70.17c.19,1.33.42,2.52.68,3.58s.5,1.94.72,2.67.42,1.3.58,1.69.24.61.24.63a.83.83,0,0,1,.05.18.9.9,0,0,1,0,.18.86.86,0,0,1-.52.83,1.47,1.47,0,0,1-.38.07.78.78,0,0,1-.81-.52q-.06-.12-.6-1.53A33.09,33.09,0,0,1,144.68,74a13.39,13.39,0,0,1-1.21,2.32A10.64,10.64,0,0,1,142,78.19a6.66,6.66,0,0,1-1.64,1.21,3.73,3.73,0,0,1-1.69.44,5.54,5.54,0,0,1-4.87-2.26q-1.57-2.25-1.58-6.93a9.38,9.38,0,0,1,.58-3.43,9.91,9.91,0,0,1,1.5-2.63,9.72,9.72,0,0,1,2.06-1.9,14.51,14.51,0,0,1,2.24-1.25,10.68,10.68,0,0,1,2-.7,7.18,7.18,0,0,1,1.48-.21,3.65,3.65,0,0,1,1.68.37,5.16,5.16,0,0,1,1.18.84,4.08,4.08,0,0,1,.69.87,2.91,2.91,0,0,1,.22.44.6.6,0,0,1,.1.35,1.11,1.11,0,0,1-.29.68,22.35,22.35,0,0,1,.29,4c0,.35,0,.69-.05,1S145.85,69.8,145.81,70.17ZM138.66,78a2.49,2.49,0,0,0,1.48-.63,7.81,7.81,0,0,0,1.56-1.69,13,13,0,0,0,1.37-2.5,13.72,13.72,0,0,0,.9-3c-.15-1-.27-2.12-.35-3.26s-.14-2.35-.16-3.64a.88.88,0,0,1-.36-.71l-.46-.16a2.29,2.29,0,0,0-.54-.06,6.28,6.28,0,0,0-1.19.17,10.13,10.13,0,0,0-1.67.58,10.64,10.64,0,0,0-1.82,1,8.08,8.08,0,0,0-1.68,1.58,7.87,7.87,0,0,0-1.24,2.16,7.56,7.56,0,0,0-.48,2.77,15,15,0,0,0,.4,3.9,5.87,5.87,0,0,0,1.06,2.23,3.16,3.16,0,0,0,1.48,1A6.07,6.07,0,0,0,138.66,78Z"/><path class="cls-5" d="M164,66.79c0,.49,0,1.11.07,1.85s.1,1.54.17,2.42.16,1.79.25,2.77.18,2,.29,3,.17,1.9.27,2.81.18,1.78.24,2.58.12,1.55.16,2.21.07,1.23.07,1.68a6.35,6.35,0,0,1-1.77,4.35,6.64,6.64,0,0,1-2.15,1.46,7.16,7.16,0,0,1-3,.57q-4.77,0-6.83-5.22a.9.9,0,0,1-.06-.36.88.88,0,0,1,.55-.84l.17,0,.18,0a.86.86,0,0,1,.84.61c.11.28.27.65.5,1.11a5.44,5.44,0,0,0,.92,1.34,5.17,5.17,0,0,0,1.49,1.13,4.81,4.81,0,0,0,2.24.48,5.58,5.58,0,0,0,2.36-.45A4.64,4.64,0,0,0,162.52,89a4.49,4.49,0,0,0,.87-1.5,4.7,4.7,0,0,0,.27-1.48c0-.43,0-1-.06-1.63s-.1-1.38-.16-2.18-.14-1.63-.23-2.53S163,77.94,163,77a9.72,9.72,0,0,1-1.33,1.71A10.7,10.7,0,0,1,160.13,80a6.22,6.22,0,0,1-1.48.81,3.85,3.85,0,0,1-1.34.27,7,7,0,0,1-2.49-.46,6.62,6.62,0,0,1-2.21-1.39A7.12,7.12,0,0,1,151,77a7.58,7.58,0,0,1-.61-3.14,12.13,12.13,0,0,1,.29-2.48,18.47,18.47,0,0,1,.79-2.71A20.74,20.74,0,0,1,152.69,66a13.54,13.54,0,0,1,1.5-2.27,7.83,7.83,0,0,1,1.71-1.58,3.27,3.27,0,0,1,1.83-.6,2.06,2.06,0,0,1,1.13.29l.32,0h.36a2.45,2.45,0,0,1,1.29.45,5.63,5.63,0,0,1,1.35,1.26,2.56,2.56,0,0,1,.21-.71.71.71,0,0,1,.66-.36l.84-.06.13.84v.11s0,.12,0,.27,0,.42,0,.88S164,65.69,164,66.79Zm-1.7,7.67a.77.77,0,0,1,.41-.46c-.15-1.48-.27-2.85-.37-4.12s-.14-2.3-.14-3.09V66.4a.93.93,0,0,1-.45-.42,6.17,6.17,0,0,0-1.34-1.81,3.26,3.26,0,0,0-.85-.58,7.19,7.19,0,0,0-1,.07,5.15,5.15,0,0,0-.59.1.82.82,0,0,1-.68-.33,4.47,4.47,0,0,0-1.69,1.45,15.74,15.74,0,0,0-1.63,2.63,19,19,0,0,0-1.22,3.19,11.17,11.17,0,0,0-.49,3.11,5.73,5.73,0,0,0,.52,2.55A5.27,5.27,0,0,0,154,78.05a4.8,4.8,0,0,0,1.66,1,5.34,5.34,0,0,0,1.62.29,2.54,2.54,0,0,0,1.15-.34,6.12,6.12,0,0,0,1.35-1,10.05,10.05,0,0,0,1.34-1.51A9.64,9.64,0,0,0,162.25,74.46Z"/><path class="cls-5" d="M181.52,70.17c.19,1.33.42,2.52.67,3.58s.5,1.94.73,2.67.42,1.3.58,1.69.24.61.24.63,0,.13,0,.18a.9.9,0,0,1,0,.18.88.88,0,0,1-.52.83,1.46,1.46,0,0,1-.39.07.77.77,0,0,1-.8-.52c0-.08-.24-.59-.6-1.53A33.09,33.09,0,0,1,180.39,74a14.12,14.12,0,0,1-1.21,2.32,11.13,11.13,0,0,1-1.48,1.83,6.7,6.7,0,0,1-1.65,1.21,3.67,3.67,0,0,1-1.69.44,5.53,5.53,0,0,1-4.86-2.26c-1.06-1.5-1.58-3.81-1.58-6.93A9.32,9.32,0,0,1,170,64.59a9.72,9.72,0,0,1,2.06-1.9,14.51,14.51,0,0,1,2.24-1.25,10.68,10.68,0,0,1,2-.7,7.18,7.18,0,0,1,1.48-.21,3.68,3.68,0,0,1,1.68.37,4.88,4.88,0,0,1,1.17.84,4.16,4.16,0,0,1,.7.87,2.91,2.91,0,0,1,.22.44.6.6,0,0,1,.1.35,1.11,1.11,0,0,1-.29.68,22.35,22.35,0,0,1,.29,4c0,.35,0,.69-.05,1S181.56,69.8,181.52,70.17ZM174.36,78a2.51,2.51,0,0,0,1.49-.63,8.35,8.35,0,0,0,1.56-1.69,14.13,14.13,0,0,0,2.27-5.54c-.15-1-.27-2.12-.35-3.26s-.14-2.35-.16-3.64a.88.88,0,0,1-.36-.71l-.47-.16a2.2,2.2,0,0,0-.53-.06,6.18,6.18,0,0,0-1.19.17,9.91,9.91,0,0,0-1.68.58,11,11,0,0,0-1.82,1,8.29,8.29,0,0,0-1.67,1.58,7.87,7.87,0,0,0-1.24,2.16,7.35,7.35,0,0,0-.49,2.77,15,15,0,0,0,.41,3.9,5.72,5.72,0,0,0,1.06,2.23,3.11,3.11,0,0,0,1.48,1A6,6,0,0,0,174.36,78Z"/><path class="cls-5" d="M187.25,60a1.28,1.28,0,0,1-.91-2.19,1.28,1.28,0,0,1,.91-.35,1.26,1.26,0,0,1,.89.35,1.2,1.2,0,0,1,.37.91,1.21,1.21,0,0,1-.37.91A1.2,1.2,0,0,1,187.25,60Zm.42,1.36a.88.88,0,0,1,.6.21,1,1,0,0,1,.31.53c0,.07,0,.4.14,1s.21,1.33.34,2.19.25,1.78.37,2.76.2,1.85.24,2.62.12,1.64.23,2.65.22,2,.35,2.88.24,1.7.34,2.35.14,1,.14,1a.83.83,0,0,1-.22.59,1.06,1.06,0,0,1-.68.31.87.87,0,0,1-.59-.21.9.9,0,0,1-.31-.56c0-.07-.05-.42-.14-1.06s-.21-1.43-.34-2.34-.25-1.88-.36-2.89-.18-1.9-.22-2.67-.13-1.61-.24-2.58-.24-1.88-.36-2.74-.23-1.59-.32-2.21-.15-.94-.15-1a1,1,0,0,1,.2-.58.84.84,0,0,1,.54-.32Z"/><path class="cls-5" d="M210.17,75.39a3.8,3.8,0,0,0,.11.93,7.65,7.65,0,0,0,.27.92c.11.29.22.56.33.79s.19.42.25.55a.93.93,0,0,1,.1.45.85.85,0,0,1-.45.78l-.23.09a.73.73,0,0,1-.22,0,.84.84,0,0,1-.78-.48s-.09-.16-.22-.4a8.53,8.53,0,0,1-.4-1q-.21-.59-.39-1.29a5.82,5.82,0,0,1-.18-1.42c0-.11,0-.23,0-.37s0-.3,0-.47-.05-.63-.07-1,0-.78,0-1.27a9.12,9.12,0,0,0-.06-1c0-.35-.09-.75-.13-1.18s-.13-1.11-.18-1.72-.08-1.26-.08-1.95a4.16,4.16,0,0,0-.27-1.4,5.1,5.1,0,0,0-.79-1.4,4.3,4.3,0,0,0-1.28-1.07,3.54,3.54,0,0,0-1.75-.41,5.15,5.15,0,0,0-2.24.46,5.75,5.75,0,0,0-1.69,1.18,7.61,7.61,0,0,0-1.21,1.53,9.48,9.48,0,0,0-.79,1.55,11.29,11.29,0,0,0-.44,1.24,5.22,5.22,0,0,0-.14.58,1.21,1.21,0,0,1-.26.45v.58a7.67,7.67,0,0,0,.23,1.77q.23,1,.51,2.13.36,1.44.69,3a15,15,0,0,1,.34,3.22.89.89,0,0,1-.9.9.85.85,0,0,1-.63-.26.84.84,0,0,1-.27-.64,15,15,0,0,0-.31-3c-.2-1-.42-1.93-.66-2.83s-.4-1.57-.56-2.31a9.71,9.71,0,0,1-.24-2c0-.63-.05-1.41-.13-2.35s-.19-1.87-.31-2.76-.23-1.66-.32-2.32-.15-1-.15-1a.87.87,0,0,1,.23-.58,1,1,0,0,1,.68-.32.87.87,0,0,1,.59.21,1,1,0,0,1,.31.56,3.77,3.77,0,0,0,.06.41c0,.22.09.52.13.9s.1.8.16,1.27.13,1,.2,1.48a13.24,13.24,0,0,1,1.14-1.77,8.13,8.13,0,0,1,1.55-1.55,7.91,7.91,0,0,1,2-1.09,6.77,6.77,0,0,1,2.45-.42,5.42,5.42,0,0,1,2.4.53,6,6,0,0,1,1.85,1.4,6.54,6.54,0,0,1,1.21,2,5.89,5.89,0,0,1,.43,2.19,18,18,0,0,0,.09,1.84c.05.58.11,1.12.17,1.61s.09.85.13,1.26.07.79.07,1.16a18.81,18.81,0,0,0,.09,2.06c0,.19,0,.37.05.53S210.17,75.22,210.17,75.39Z"/><path class="cls-5" d="M216.9,76.07a.77.77,0,0,1-.61-.21.9.9,0,0,1-.29-.6c0-.32-.08-.65-.11-1s-.07-.67-.12-1c-.12-1.22-.24-2.38-.33-3.46s-.15-2-.15-2.6,0-1.5-.08-2.51-.12-2-.21-3.11-.18-2.08-.29-3-.21-1.74-.32-2.32a.84.84,0,0,1,.22-.58,1.07,1.07,0,0,1,.68-.33.83.83,0,0,1,.87.74,22.85,22.85,0,0,1,.36,2.39c.1,1,.2,2.06.29,3.14s.15,2.14.21,3.16.08,1.84.08,2.46,0,1.44.14,2.52.21,2.19.34,3.35c0,.34.08.69.11,1s.07.7.11,1.06a.92.92,0,0,1-.24.63A.81.81,0,0,1,216.9,76.07Zm.45.87a1.26,1.26,0,0,1,1.29,1.29,1.18,1.18,0,0,1-.37.88,1.24,1.24,0,0,1-.92.37,1.23,1.23,0,0,1-1.25-1.25,1.26,1.26,0,0,1,.35-.92A1.19,1.19,0,0,1,217.35,76.94Z"/></g></g></svg>
