<svg xmlns="http://www.w3.org/2000/svg" width="677.33mm" height="381mm" viewBox="0 0 1920 1080"><defs><style>.cls-1,.cls-2{fill:#ddb8d2;}.cls-2{stroke:#ddb8d2;}.cls-2,.cls-45,.cls-48,.cls-7,.cls-8{stroke-miterlimit:10;}.cls-3{fill:#898675;}.cls-4{fill:#cddde8;}.cls-5{fill:#fff;}.cls-6{fill:#4c4e4f;}.cls-7{fill:#efb4b4;stroke:#efb4b4;}.cls-14,.cls-16,.cls-17,.cls-18,.cls-19,.cls-20,.cls-22,.cls-23,.cls-24,.cls-25,.cls-28,.cls-30,.cls-31,.cls-33,.cls-34,.cls-35,.cls-37,.cls-38,.cls-39,.cls-40,.cls-45,.cls-49,.cls-51,.cls-52,.cls-7,.cls-8,.cls-9{stroke-linecap:round;}.cls-13,.cls-33,.cls-35,.cls-39,.cls-45,.cls-7,.cls-8,.cls-9{stroke-width:3px;}.cls-13,.cls-14,.cls-17,.cls-20,.cls-21,.cls-25,.cls-33,.cls-38,.cls-39,.cls-40,.cls-45,.cls-48,.cls-52,.cls-8{fill:none;}.cls-8{stroke:#d1a09f;}.cls-9{fill:#4c3939;stroke:#4c3939;}.cls-13,.cls-14,.cls-16,.cls-17,.cls-18,.cls-19,.cls-20,.cls-21,.cls-22,.cls-23,.cls-24,.cls-25,.cls-28,.cls-30,.cls-31,.cls-32,.cls-33,.cls-34,.cls-35,.cls-37,.cls-38,.cls-39,.cls-40,.cls-49,.cls-51,.cls-52,.cls-9{stroke-linejoin:round;}.cls-10{fill:#44363d;}.cls-11{fill:#43363d;}.cls-12{fill:#483a42;}.cls-13{stroke:#3a3036;}.cls-14{stroke:#212021;}.cls-14,.cls-40{stroke-width:4px;}.cls-15{fill:#212021;}.cls-16,.cls-31{fill:#2d2515;}.cls-16{stroke:#2d2515;}.cls-16,.cls-30,.cls-31{stroke-width:0.5px;}.cls-17{stroke:#423724;stroke-width:6px;}.cls-18{fill:#d2d0cd;stroke:#d3d1cd;}.cls-19{fill:#e8bb7f;stroke:#e8bb7e;stroke-width:0.75px;}.cls-20,.cls-21{stroke:#e2ae60;}.cls-20,.cls-21,.cls-22,.cls-23,.cls-24,.cls-25,.cls-32,.cls-51{stroke-width:2px;}.cls-21,.cls-32{stroke-linecap:square;}.cls-22{fill:#d1cac0;}.cls-22,.cls-23{stroke:#d0c8be;}.cls-23{fill:#d0c8c0;}.cls-24{fill:#d9d1c5;stroke:#dad1c5;}.cls-25{stroke:#c4bdb3;}.cls-26{fill:#423b29;}.cls-27{fill:#9e7fba;}.cls-28{fill:#cbe9e9;stroke:#cbe9e9;}.cls-29{fill:#c3ddda;}.cls-30{fill:#d5c6e2;}.cls-30,.cls-31{stroke:#d5c6e2;}.cls-32{fill:#33281a;}.cls-32,.cls-33{stroke:#33281a;}.cls-34{fill:#4a4744;stroke:#4a4744;}.cls-35{fill:#595550;stroke:#59544f;}.cls-36{fill:#bdc9e5;}.cls-37{fill:#c5cbd2;stroke-width:8px;}.cls-37,.cls-38,.cls-39,.cls-40{stroke:#2d2c2a;}.cls-38{stroke-width:5px;}.cls-41{fill:#b58e47;}.cls-42{fill:#4b4ca0;}.cls-43{fill:#2294c6;}.cls-44{fill:#cd3a39;}.cls-45{stroke:#cd3a39;}.cls-46{fill:#2d934d;}.cls-47{fill:#7d8a91;}.cls-48{stroke:#020202;stroke-width:0.25px;}.cls-49{fill:#b2c6ce;stroke:#b2c6ce;}.cls-50{fill:#bfbebe;}.cls-51{fill:#efecea;stroke:#efecea;}.cls-52{stroke:#dcdbdb;stroke-width:11px;}</style></defs><title>vaerelse</title><g id="værelse"><polygon class="cls-1" points="-3.93 831.3 672.48 556.1 672.48 -2.48 -3.93 -2.48 -3.93 831.3"/><polygon class="cls-2" points="617.04 571.18 617.04 0.52 1926.53 0.52 1926.53 885.74 617.04 571.18"/><polygon class="cls-3" points="-0.04 825.43 617.17 554.21 1920.53 861.41 1920.53 1080.05 -6.93 1080.05 -0.04 825.43"/><g id="vindue"><polygon class="cls-4" points="63.4 336.35 435.6 318.37 502.87 0.12 83.18 1.91 63.4 336.35"/><path class="cls-5" d="M178.69,53.91a139.65,139.65,0,0,0,58.64,19.51,66.88,66.88,0,0,0-26.13,58.9c-9.19-5.37-20.13-10.07-28.48-16.65-13.8-10.88-9.71-3.7-7.42-17C176.93,89.22,193.7,63,178.69,53.91Z"/><path class="cls-6" d="M69.7,328.26s344.77-3.15,377.59-16.18l3.78,20.71S90.82,352.09,63.4,336.35,69.7,328.26,69.7,328.26Z"/></g><g id="gardin2"><path class="cls-7" d="M374.91,1.32S362.73,198.92,444,238.07c0,0,10.15,55.55-8.13,67.39,0,0-9.14,59.19-12.19,69.2S439.92,626,439.92,626l85.33-18.22s7.11-305-32.51-295c0,0-5.08-69.2,4.06-71,0,0,34.54-225.82,4.07-238.57Z"/><path class="cls-8" d="M445.13,287.34a596.75,596.75,0,0,0,1.42,127c-3.52-24.57-.5-49.57,2.52-74.21,2.21-18,4.51-36.33,12.06-52.76q8.52,41.48,13,83.68a525.36,525.36,0,0,0-3.62-75.86c14,20.64,17.57,46.52,19.78,71.44,2.7,30.41,3.88,61.18-.54,91.39a4.81,4.81,0,0,1,1.49-4.9"/><path class="cls-8" d="M479.54,109.82c-2.73-2.46,1.71-7.22,5.13-5.89s4.77,5.41,5.6,9c8.5,37.16,3.69,76-2.55,113.62-2.5,15.1-5.71,31.13-16.28,42.06A312.88,312.88,0,0,0,476,211.46a258.07,258.07,0,0,0-3.19,46.29,170.53,170.53,0,0,1-16.6-57.43L462,236.45a587.26,587.26,0,0,1-44.67-85c-4.41,11.18,1.48,23.56,7.21,34.1l32,58.8c.56,1,1.45,2.25,2.61,2s.45-2.63-.38-1.78c-18.84-41.38-64-71.21-71.57-116.13"/><path class="cls-9" d="M441.64,243.54s33.67,12.4,54.94,5c0,0-9.75,52.09,1.77,56.22s-57.59-10.75-63.79-5S454.93,269.17,441.64,243.54Z"/><path class="cls-8" d="M439,57.67c30,53,30.08,117.52,28.34,178.61"/></g><g id="kommode"><path class="cls-10" d="M121.22,492.59c.17-4.28,103.23,40.76,103.23,40.76s-23.22,240.2-15,250.69-76.32-20.69-76.32-20.69S121.06,496.88,121.22,492.59Z"/><path class="cls-11" d="M121.31,494.56S121,456.42,439,444c0,0,36,13.61,50.16,47,0,0-267.64,53.7-268.76,40.89C220.37,531.88,116.1,496.17,121.31,494.56Z"/><path class="cls-12" d="M202.64,532.79S492.57,497.25,488.57,486c0,0,14.74,237.75,8.09,243.68S204.77,786,204.77,786,195.5,619.08,202.64,532.79Z"/><path class="cls-13" d="M233,573.22s90.9-17.28,100.61-15.07c0,0,2.21,27.91.88,30.13,0,0-94.87,20.82-97.07,18.6C237.37,606.88,229,607.32,233,573.22Z"/><path class="cls-13" d="M360,550.18s90.9-17.28,100.61-15.06c0,0,2.2,27.91.88,30.12,0,0-94.87,20.82-97.08,18.61C364.45,583.85,356.07,584.29,360,550.18Z"/><path class="cls-13" d="M232.3,637.22s193.48-47.59,214.81-47c0,0,9.39,38.49,6.9,41.93,0,0-201.47,53.57-206.6,51C247.41,683.2,229.38,686,232.3,637.22Z"/><path class="cls-13" d="M232.3,704.55s193.48-47.59,214.81-47c0,0,9.39,38.49,6.9,41.93,0,0-201.47,53.58-206.6,51C247.41,750.54,229.38,753.32,232.3,704.55Z"/><line class="cls-14" x1="322.09" y1="639.66" x2="368.86" y2="630.8"/><line class="cls-14" x1="322.09" y1="706.99" x2="370.63" y2="694.59"/><ellipse class="cls-15" cx="283.26" cy="580.3" rx="6.18" ry="6.2"/><ellipse class="cls-15" cx="412.11" cy="557.27" rx="6.18" ry="6.2"/></g><g id="sengebord1"><polygon class="cls-16" points="882 573.8 885.15 508.62 920.21 476.7 996.63 471.31 995.73 550.87 882 573.8"/><path class="cls-17" d="M902.23,533.34s-5.62,45.63-3.14,50.35,115.07-33.27,115.07-33.27l-1.35-23.37S900.88,530.42,902.23,533.34Z"/><path class="cls-18" d="M940,455.57s5.17,16.64-7.19,13.94-22.7,27.64-6.74,35.06,46.52,5.85,50.34-4,8.77-27.87-15.28-32.82c0,0-10.57-1.57-5-14.38S940,455.57,940,455.57Z"/><path class="cls-19" d="M940.22,454.82a279.26,279.26,0,0,0,51.62-5.09s-6.43-81.44-12.07-88.55c-6.66-7.42-52.92-11.47-58.49,2.24,0,0-21.81,26.3-19.49,86.31,0,0,12.25,5,38.43,5.09"/><ellipse class="cls-20" cx="950.26" cy="364.95" rx="11.27" ry="30.57" transform="translate(549.49 1300.66) rotate(-87.82)"/><path class="cls-21" d="M929.5,373c-8.31,15.52-12.14,34.06-15.8,52.13-1.72,8.44-3.43,16.9-4.56,25.46"/><path class="cls-21" d="M919.71,363.79a207.84,207.84,0,0,0-20.16,84.76"/><path class="cls-21" d="M938.68,375.05c-11.72,23.44-8.13,52.21-11.13,78"/><path class="cls-21" d="M951.44,378a242,242,0,0,0-8.12,75.69"/><path class="cls-21" d="M961.58,376c1.12,25.48,2.24,51,1.27,76.47"/><path class="cls-21" d="M966.71,375.05c.71,1.93,1.34,3.93,1.87,5.95,1,3.94,1.69,8,2.38,12q4.27,25.1,10.09,49.81a29.24,29.24,0,0,1,1.1,7.34"/><path class="cls-21" d="M980.9,367.69c2.78,2.79,3.56,7.05,4.12,11,3.24,23.17,3.93,46.69,7.69,69.77"/><path class="cls-20" d="M936.57,355.74a78.81,78.81,0,0,0-4.09,17.16"/><path class="cls-20" d="M946.74,353.53A122.8,122.8,0,0,0,944,374.21"/><path class="cls-20" d="M956.13,354.88a52.09,52.09,0,0,1,2.16,21.37"/></g><g id="seng"><path class="cls-16" d="M586.72,796.06s5.7,49.45-11.38,46.75-16.49-9-9-49.15S586.72,796.06,586.72,796.06Z"/><path class="cls-16" d="M994.28,905.14s-10.78,53.34,12,46.15,24.88-4.49,18.58-44.35S994.28,905.14,994.28,905.14Z"/><path class="cls-16" d="M1356.29,756.5s-9.59,35.36,6,31.17,14.68,7.79,16.78-39.56S1356.29,756.5,1356.29,756.5Z"/><path class="cls-22" d="M612.37,652.51s-38.61,58.14-49.47,139c0,0,443.38,137.86,451.22,113.88l14.48-139.05S597.89,675.89,612.37,652.51Z"/><path class="cls-23" d="M1026.65,766.69l364.41-157s1.2,96.5-12,136.65c0,0-311.66,162.43-365.61,160.63Z"/><path class="cls-24" d="M1026.65,764.89l359.61-153.43c-158.1-2.91-343.5-5.87-393.17-65.93l-380,106.68S617.89,684,1026.65,764.89Z"/><path class="cls-25" d="M1362.48,623.93c-2.56,9.31-5.14,18.68-6.19,28.28-2.13,19.57,2.15,39.19,3.61,58.82,0,.59-.05,1.38-.63,1.5s-.36-1.18,0-.71"/><path class="cls-25" d="M1304.85,647.28a487.66,487.66,0,0,0,.44,87.55c.07.76,0,1.74-.72,1.95s-.68-1.45-.12-.95"/><path class="cls-25" d="M1272.72,663.52c3.09.27,4.65,3.8,5.49,6.79,9.57,33.82,10.53,69.39,11.42,104.53"/><path class="cls-25" d="M1232.78,681.51a658,658,0,0,0,.44,97.88c0,.64.24,1.44.87,1.56s.61-1.27.08-.9"/><path class="cls-25" d="M1216.81,688a513.41,513.41,0,0,0-2.23,103.69"/><path class="cls-25" d="M1119.32,730.32c-11.31,25-11.21,53.45-10.9,80.88l.23,21"/><path class="cls-25" d="M1202.6,691.37a333.39,333.39,0,0,0-.46,49.06"/><path class="cls-25" d="M1140.63,718.5l-1.19-3c5,8.16,7,17.82,8.48,27.31a350,350,0,0,1,2.74,84.87"/><path class="cls-25" d="M1191.68,699.14a102.35,102.35,0,0,1-7,49"/><path class="cls-25" d="M1162.15,713l8.83,35.25c3.62,14.4,7.22,29.3,3,43.61"/><path class="cls-25" d="M1066.17,753.39l6.93,67.44a77.75,77.75,0,0,1,.61,12.29"/><path class="cls-25" d="M1089.1,743.65c.46-.23,0-1-.53-.9s-.75.64-.94,1.12c-6.65,17.16-5,36.27-3.25,54.6"/><path class="cls-25" d="M1046.05,883.46a325.81,325.81,0,0,0,1-120.24c-.17-1,.65-2,.3-2.89s-1.78.74-.85.44c0,0,213.93-88.18,315.82-144.52"/><path class="cls-25" d="M1334.26,633.44a58.69,58.69,0,0,1,5.86,15.12,111.56,111.56,0,0,1,2.18,15.25q2.57,27.77,3.51,55.63"/><path class="cls-25" d="M977.42,762.92a271.22,271.22,0,0,0-3.9,59"/><path class="cls-25" d="M918.93,749.73a.87.87,0,0,0-1.62-.15,139.47,139.47,0,0,1,1.3,69.73"/><path class="cls-25" d="M892.73,747.33l-.44-3.21a414.19,414.19,0,0,1-2,92.24c-.58,4.29-1.52,9.07-5.08,11.54"/><path class="cls-25" d="M870,741.49l-.13-3.47c-1.27,19.08-3,39.35-14.47,54.62"/><path class="cls-25" d="M837.42,728.31a829.76,829.76,0,0,0-4.37,107"/><path class="cls-25" d="M772.92,710.69c8.53,36.07,3.73,73.8-1.12,110.55"/><path class="cls-25" d="M701.32,689.55c2.43,39.72-6,79.21-14.36,118.11"/><path class="cls-25" d="M763.66,708.55c-.75-1.6-3.14-1.76-4.59-.74s-2.17,2.75-2.8,4.4A261.1,261.1,0,0,0,739.51,816.9"/><path class="cls-25" d="M681.61,683.94c-2.66,4-3.27,9-3.7,13.73a340.31,340.31,0,0,0-1.16,43.43"/><path class="cls-25" d="M637,667.93c-1.1-1.61-3.65-1.56-5.23-.42s-2.43,3-3.21,4.81c-16.6,38.24-33.12,78.76-28.72,120.21"/><path class="cls-25" d="M662,676.18a94.83,94.83,0,0,1-.85,51.36"/><path class="cls-25" d="M965.66,757.27l-2.24,2.46a80.28,80.28,0,0,0,34.89-36.35"/><path class="cls-25" d="M948.22,753.77a3.05,3.05,0,0,1-2.07,2.15c4.23-7.29,10.66-13,17-18.6,14-12.42,29.74-25.53,48.47-26"/><path class="cls-25" d="M920.6,749.67c-.47,1.26,1.93,1.07,2.83.08a60.79,60.79,0,0,0,15.23-33.3"/><path class="cls-25" d="M888.11,737.08a81.88,81.88,0,0,1,32.83-37.28"/><path class="cls-25" d="M860.49,733c15.8-7.11,27-21.38,37.53-35.12l14.33-18.68"/><path class="cls-25" d="M831.68,723.05c.27.4-.65.67-.84.23s.14-.93.45-1.3A196.87,196.87,0,0,1,884.6,677.4"/><path class="cls-25" d="M809.4,718.64a81.38,81.38,0,0,0,17-41.13"/><path class="cls-25" d="M751.4,702.86a79.14,79.14,0,0,1,35.51-29"/><path class="cls-25" d="M716.4,690.67l-2.24,1.19a47.75,47.75,0,0,0,6.41-34.06"/><path class="cls-25" d="M653,673.28c5.35-7.3,15.36-9.3,24.41-9.47s18.46.88,26.87-2.5"/><path class="cls-25" d="M730.16,695.4c-.45-.33-.55.86,0,.8s.75-.77.71-1.32-.16-1.18.21-1.59a263.23,263.23,0,0,1,20.46-20.59"/><path class="cls-25" d="M1060.78,750.62a2.69,2.69,0,0,1,2,2.11,88.73,88.73,0,0,0-33.71-18.46"/><path class="cls-25" d="M1128.83,723.38a37.79,37.79,0,0,0-24.35-18.51"/><path class="cls-25" d="M1077.12,747.74c-.14-.78,1.32.23.65.65s-1.49-.25-2-.88a43.54,43.54,0,0,1-9-23.83"/><path class="cls-25" d="M1143.13,718.92c-.78,2-3.61-.3-4.12-2.35a50.8,50.8,0,0,1,5.75-37.94"/><path class="cls-25" d="M1244.16,637.37a43.47,43.47,0,0,0-2.83,39l-1.57-2.58c.76.7-9.38,3.59-8.62,4.3l-8.46-12.56"/><path class="cls-25" d="M1218.7,682.9c-5.3-8.12-11.9-17.07-21.56-18"/><path class="cls-25" d="M1186.06,698.6c.66.14.3,1.32-.38,1.34s-1.2-.59-1.59-1.15a87.15,87.15,0,0,1-15.71-47.57"/><path class="cls-25" d="M1292.47,648.69,1258.7,636c-1.63-.61-4-.95-4.65.66"/><path class="cls-25" d="M1342.88,626.55c1.56.5-.58,2.58-2.21,2.51a52.54,52.54,0,0,1-37-18"/><path class="cls-25" d="M1016.49,766.36c2.09,26.88-8.69,52.89-19.26,77.69"/><path class="cls-25" d="M707.45,624.85a23.32,23.32,0,0,1,13,14.57"/><path class="cls-25" d="M719.66,622a20.09,20.09,0,0,0,15.77,15.43"/><path class="cls-25" d="M831.39,589.85a39.8,39.8,0,0,0,14.24,21.63"/><path class="cls-25" d="M942.06,560a24.91,24.91,0,0,0,13,18.38"/><path class="cls-25" d="M839.27,586.66a38.27,38.27,0,0,0,17.79,9.68"/><path class="cls-26" d="M1190.57,374.41c-161.37,4-192.39,86.31-192.39,86.31l-5.09,84.81c-2.85,5.24,24,16.78,24,16.78,24.72-66.08,33.56-60.53,33.56-60.53s85.11,10.19,97.1-3.6,126.46,39.41,136.25,45-6.28,63.77-6.28,63.77l113.37,4.53,10.79-111.18C1394.2,489.49,1352,370.37,1190.57,374.41Z"/><path class="cls-27" d="M1178,391.5s-44.06-.45-35.07,18S1178,391.5,1178,391.5Z"/><path class="cls-27" d="M1191.47,390.6s-23.37,39.1-2.69,43.15S1191.47,390.6,1191.47,390.6Z"/><path class="cls-27" d="M1208.55,390.6s8.1,34.61,28.77,21.57S1208.55,390.6,1208.55,390.6Z"/><path class="cls-25" d="M621.49,663s371,119.76,405.16,101.89"/><path class="cls-28" d="M1009.1,578.49s28.14-77.91,36.7-76.71,78.9,6.59,99.09-3.6,135.78,42.55,139.45,45.55-.61,47.95-6.11,62.33c0,0-78.37,9.52-86.86,13.19s-59.94,4.8-121.1-18C1070.27,601.27,998.7,589.88,1009.1,578.49Z"/><path class="cls-29" d="M1281.3,598.53c-.51,3.11-1.24,6.51-3.61,8.4-3.87,3.1-9.87-.08-11.75-4.83s-.86-10.19.3-15.2c2.93-12.58,6.65-24.94,10.37-37.29,1.17-3.89,2.83-11.13,7.36-6.45,3.29,3.4,1.44,12.64,1.27,17A309.72,309.72,0,0,1,1281.3,598.53Z"/><path class="cls-30" d="M1192.7,423.07c-.49,1.91-1.61,3.63-2,5.56a.58.58,0,0,0,0,.32c.12.31.59.21.85,0a6.35,6.35,0,0,0,1.6-2.16c.61-1.13,2.39-4,1.55-5.36C1193.61,419.76,1192.88,422.32,1192.7,423.07Z"/><path class="cls-31" d="M1234.68,406.87a1.41,1.41,0,0,0,.1.68.45.45,0,0,0,.58.21,6,6,0,0,0-.3-5.19c-.33-.58-1.14-1.58-1.94-1.29s-.27.32,0,.82A8.93,8.93,0,0,1,1234.68,406.87Z"/><path class="cls-30" d="M1144.46,403.66a2.15,2.15,0,0,0,1.48-.12,3.93,3.93,0,0,0,1-.76c.8-.75,7.63-4.31,4.07-4.75C1148,397.67,1145,402.32,1144.46,403.66Z"/></g><g id="sengebord2"><ellipse class="cls-32" cx="1477.17" cy="643.82" rx="76.72" ry="27.57"/><path class="cls-33" d="M1402.11,650.82c4.74,10.4,5.05,22.19,5.29,33.61,1,45.68,1.76,92.38-12.44,135.8"/><path class="cls-33" d="M1469.3,669.15a227.9,227.9,0,0,1,4.32,23.21c1.28,9.64,2,19.36,2.63,29.07,2.44,35.34,4.85,71.2-2.35,105.88"/><path class="cls-33" d="M1505.57,660.57a484.64,484.64,0,0,0,5.35,136.66"/><path class="cls-33" d="M1550.2,654.72c1.1,18.5,2.19,37.06.81,55.53-.58,7.71-1.58,15.39-2,23.11-1.57,28.07,4.51,56,12.47,83"/><polygon class="cls-34" points="1541.9 636.63 1533.51 581.49 1526.32 591.08 1532.31 633.03 1541.9 636.63"/><path class="cls-35" d="M1486.76,544.33,1452,636.63s55.74,1.8,58.74-2.4,5.39-12.58,37.16-85.1C1547.9,549.13,1492.76,536.54,1486.76,544.33Z"/><path class="cls-36" d="M1488.56,553.92s34.76-1.2,41.36,1.2-24,69.52-24,69.52-36,6.6-42,1.2S1488.56,553.92,1488.56,553.92Z"/></g><path class="cls-5" d="M1484.87,561.92a15.58,15.58,0,0,1-3.72,13.62A7.94,7.94,0,0,1,1493,577a11.42,11.42,0,0,1,.11-11.05c-3.11,2.45-8.36.1-8.88-4"/><g id="spejl"><ellipse class="cls-37" cx="1506.06" cy="342.65" rx="57.84" ry="94.4"/><ellipse class="cls-38" cx="1507.86" cy="223.38" rx="9.89" ry="24.27"/><ellipse class="cls-39" cx="1527.63" cy="232.48" rx="13.98" ry="5.69" transform="translate(611.61 1476.91) rotate(-62.3)"/><ellipse class="cls-39" cx="1490.47" cy="233.68" rx="5.69" ry="13.98" transform="translate(5.34 499.16) rotate(-19.05)"/><circle class="cls-39" cx="1478.94" cy="242.41" r="8.54"/><circle class="cls-39" cx="1536.77" cy="244.2" r="8.54"/><ellipse class="cls-40" cx="1479.68" cy="445.69" rx="13.98" ry="5.69" transform="matrix(1, -0.03, 0.03, 1, -11.95, 41.78)"/><ellipse class="cls-40" cx="1529.14" cy="445.89" rx="13.98" ry="5.69" transform="translate(-11.93 43.17) rotate(-1.61)"/><path class="cls-5" d="M1480.7,297a24.45,24.45,0,0,1-6.7,22.62c6-5.39,16.77-4.21,21.38,2.35a17.68,17.68,0,0,1,.19-18.34c-5.59,4.06-15,.16-16-6.6"/><path class="cls-5" d="M1495.27,344.15a12.84,12.84,0,0,1,2.83-10.86,5.86,5.86,0,0,1-9-1.13A9.52,9.52,0,0,1,1489,341c2.36-2,6.35-.08,6.74,3.16"/><circle class="cls-40" cx="1503.21" cy="448.88" r="8.54"/></g><g id="malleri"><path class="cls-41" d="M1067.42,302.79s-31.17-16.48.6-31.76c0,0-30.87-12.29-1.2-34.17,0,0-22.48-15,1.8-33.56,0,0-28.47-18.88,0-42,0,0-28.47-10.78-3-37.16,0,0-17.38-20.67,3-34.16,0,0-22.18-15.28,3-30,0,0-24.27-18.58,1.2-24,0,0,9.59-21.58,28.77-.6,0,0,9.29-25.47,25.18,0,0,0,17.38-21.88,32.36,0,0,0,11.69-25.47,31.77-.6,0,0,12.88-20.08,25.77,0,0,0,8.69-20.38,24,0,0,0,11.69-23.07,28.17-1.2,0,0,24.25-27,29.37,1.2.6,3.3,12.59-26.07,31.77,1.8,0,0,9.59-23.68,23.37,0,0,0,23.68-12.89,19.18,18,0,0,26.07,8.39,2.4,29.37,0,0,24.87,7.19,1.2,30,0,0,26.67,8.09,4.19,37.75,0,0,21.28,4.8,0,33,0,0,20.68,7.79,0,34.16,0,0,25.47,9.59,0,31.17,0,0,17.38,13.78-2.4,24.57,0,0,20.38,12.29-.6,27,0,0,24.88,22.48-7.19,38.36,0,0,9.89,30-19.18,20.38,0,0-15.28,23.07-32.36-4.2,0,0-19.78,20.08-29.37-4.19,0,0-20.38,23.67-30-5.4,0,0-15.58,19.18-27.57,0,0,0-23.07,19.18-28.17-6,0,0-24.57,19.48-31.76-7.19,0,0-23.38,23.07-37.16-7.79,0,0-25.78,25.17-33-10.19C1101.58,315.38,1079.71,343.25,1067.42,302.79Z"/><path class="cls-42" d="M1086.6,52.26s-2,29.32-4.06,67.67c-3.74,68.6-7.89,166.08-1.94,176.27,9.29,15.88,232.55,56.34,277.51,33,0,0,11.68-270,3.59-274.5-4.82-2.68-100.76-6.32-178-6.85C1131.41,47.45,1087.69,48.51,1086.6,52.26Z"/><path class="cls-43" d="M1128,156l83.91-106.69s88.11,166.63,22.78,105.49,36.26-144.14,64.73-61.13-276.6,40.75-187.6,103.69,140.85,50,109.08,80.31-90.5,70.42-67.72,0,113.57-20.08,143.24-83.31S1113.27-5,1115.37,83.43s279.3,80.91,218.76,145-1.5-44.95-110.88-26.37-181.9,44.35-119.87,68.33,68.93-27.57,151-11.39,89.9,62.63,40.15,56.94-102.19,6-44.35-68.33,115.38-84.51,104.29-120.47-29.67-83-59.94-58.74,13.49,63.54,15,62.34,62.33,25.17,39,78.51-2.4,73.72-2.4,73.72-44,89.61-61.73,13.79-131.56,59.63-166-6.59S1128,156,1128,156Z"/></g><g id="tæppe"><path class="cls-44" d="M1195.7,1076.94s133.06-214,142-244.54c0,0,134,37.76,158.23,21.58,0,0-80,169-70.12,221.16S1195.7,1076.94,1195.7,1076.94Z"/><path class="cls-45" d="M1346,794.54a147.08,147.08,0,0,1-3.44,50.3"/><path class="cls-45" d="M1375.59,801.87A95.7,95.7,0,0,0,1370,845"/><path class="cls-45" d="M1404.31,807.23a142,142,0,0,1-7.49,59.24"/><path class="cls-45" d="M1427.83,816.29a156.82,156.82,0,0,0-8.36,86.09"/><path class="cls-45" d="M1484.3,819.36a138,138,0,0,0-15,67"/><path class="cls-45" d="M1449.66,819.85A504.21,504.21,0,0,1,1436.79,899"/><path class="cls-45" d="M1389.61,803.52a163.06,163.06,0,0,0-9.27,82.91"/><path class="cls-45" d="M1460.33,823.07a566.5,566.5,0,0,0-12,74.15"/><path class="cls-45" d="M1413.66,812.77a116.59,116.59,0,0,0-5.3,62.69"/><path class="cls-45" d="M1436.37,818a272.12,272.12,0,0,0-8.41,59.41"/></g><g id="gardin1"><path class="cls-7" d="M140.14,3.11s37,226.52-57.11,288c0,0-18,26.59-4.23,71.53,0,0,47.59-34.85,55,405.34,0,0-110,77.94-135.37,77L-5.81,3.11Z"/><path class="cls-8" d="M.57,446.88a174.29,174.29,0,0,1,3-71.09c2.15-8.48,7.28-18.54,16.83-18.6,2.92,39.67,17.31,97.73,16.17,137.47"/><path class="cls-8" d="M69.09,529.47A1256.73,1256.73,0,0,0,46.52,350.05c-.24-1.2-.72-2.64-2-2.89s-1.9,2.18-.59,1.95c40.89,59.25,71,130.69,52.59,198.63"/><path class="cls-8" d="M15.35,287.17a307.79,307.79,0,0,1-10-82Q9,220.08,12.69,234.94c6.71,27.07,13.47,54.3,25.05,80-1.54-19.41-3.07-39.07,1-58.18a150.89,150.89,0,0,0,6.12,62.39c4.2-44.84,28.55-86.24,36-130.73.55-3.31.91-7-1.33-9.69"/><path class="cls-8" d="M47.72,306.52C68.11,284,77,254.83,85.27,226.63c5.45-18.46,10.94-37.54,8-56.46a331.2,331.2,0,0,1-32.72,131.5c-1.37,2.85-2,7.32,1.34,8,2.39.51,4.33-1.71,5.56-3.65a340.68,340.68,0,0,0,44.86-108.67"/><path class="cls-8" d="M13.25,399.34,20,497.55a598.4,598.4,0,0,1-5.91-129.21c.52-8.25,2.37-18.07,10.7-21.36,7.08,2.3,9.82,9.92,11.58,16.57q8.28,31.4,14.57,63.2"/><path class="cls-9" d="M-16.57,283.73s94.66,19.08,96.92,13.36-15.78,49.6,4.5,59.14c0,0-77.76,12.4-96.92-3.82S-16.57,283.73-16.57,283.73Z"/><path class="cls-8" d="M13.18,133.37c1.5,46.08,3.15,92.92,19.08,136.67,2.34,6.44,5,13.18,3.61,19.84C58.71,230.71,82,149.86,75,87.46"/><path class="cls-8" d="M66.09,290.8a768.76,768.76,0,0,0,56.48-149.53c5.75-21.93,10.44-45.26,2.79-66.7"/></g><g id="plante"><path class="cls-46" d="M200.47,381.37c-.26-4.63-.26-9.33,1-13.8a25.88,25.88,0,0,1,8-12.33c2.72-2.33,6.23-4.21,9.88-3.82,4.09.44,7.36,3.71,8.81,7.35s1.45,7.66,1.4,11.56-.12,7.9,1.24,11.58c.71,1.95,2.4,4,4.55,3.69a4.45,4.45,0,0,0,2.71-2c2.46-3.49,2.81-7.9,3-12.1.4-8.7.48-17.51,2.75-26s7.07-16.65,14.89-21.24c3.55-2.08,8-3.35,11.89-2s6.35,5,7.21,8.74.33,7.69-.34,11.49c-3.62,20.26-11.26,39.87-12.82,60.36a7.48,7.48,0,0,1-.52,2.65,8.42,8.42,0,0,1-1.55,2c-2.63,2.89-4.72,6.24-7.65,8.85-5.27,4.7-12.83,6.55-20.08,6.4-6.51-.14-12.86-1.74-19.05-3.54-4.11-1.2-8.92-2.34-10.44-6.57-1.42-3.94-1.7-9-2.54-13.1A128.93,128.93,0,0,1,200.47,381.37Z"/><path class="cls-47" d="M203.65,414.87s6.29,67.43,19.78,68.33c0,0,31.47,2.69,36,0s14.39-83.61,5.4-79.12S249.5,416.67,203.65,414.87Z"/><line class="cls-48" x1="255.2" y1="363.93" x2="256.39" y2="370.52"/><line class="cls-48" x1="274.97" y1="358.83" x2="269.88" y2="362.43"/><line class="cls-48" x1="250.4" y1="339.95" x2="254.9" y2="344.45"/><path class="cls-48" d="M266.89,341.5c-.3,0,.15-.48.28-.21s-.13.54-.36.72a12.37,12.37,0,0,0-3.56,4.52"/><path class="cls-48" d="M268.18,331.63a6.7,6.7,0,0,0-1.27,5.38"/><path class="cls-48" d="M271.87,339.51a17.77,17.77,0,0,1,5.38-4.29"/><path class="cls-48" d="M273.35,330.91l1.92-4.74"/><path class="cls-48" d="M275.07,332.3l3.72-2.37"/><path class="cls-48" d="M253.46,332.4a10.75,10.75,0,0,1,2.55,4.28"/><path class="cls-48" d="M258.23,342.38c-.14.09,0,.32.21.26s.21-.24.25-.4l1.05-4.43"/><path class="cls-48" d="M259.22,352.2a45.92,45.92,0,0,1,1.6,6.94"/><path class="cls-48" d="M266.12,352.41a14,14,0,0,0,3.35-3.83"/><path class="cls-48" d="M265.08,362.13l.46.59a32.11,32.11,0,0,0,1.95-5.39"/><path class="cls-48" d="M246.89,353.2q.92,3,2,5.92"/><path class="cls-48" d="M247.87,376.65c-.36.25-.5-.52-.27-.89l2.49-4.05"/><path class="cls-48" d="M255.7,384.41c.21,0,0,.39-.22.26s-.12-.39-.06-.59a12.36,12.36,0,0,0,.38-4"/><path class="cls-48" d="M260.45,377.35a14.72,14.72,0,0,1,3.76-5.3"/><path class="cls-48" d="M245,366.32a12,12,0,0,0-2.71-4.5c.19.16,2.2-4.32,2-4.17s-.09.48,0,.7l1.65,2.82"/><path class="cls-48" d="M238.55,374.94c.11-.11-.18-.25-.26-.11s0,.31.1.44l2.3,3.42"/><path class="cls-48" d="M263.6,375.9a1.29,1.29,0,0,0,.88.59,79.19,79.19,0,0,1,6.77-4.4"/><path class="cls-48" d="M267.15,382.17l3.62-3.27"/><path class="cls-48" d="M258,393.69l4.1-4.29"/><path class="cls-48" d="M261.31,399.08l4.28-5.56"/><path class="cls-48" d="M251.05,392a6.69,6.69,0,0,1,3.17,4.59"/><path class="cls-48" d="M254.3,405.28c-.11.3-.1.82-.26.4,1.23-1.4,1.81-3.73,2.35-5.49"/><path class="cls-48" d="M199.05,358.11l4,6.42"/><path class="cls-48" d="M208.8,353.72l1.6,5.45"/><path class="cls-48" d="M215.11,362.5a17.82,17.82,0,0,0,3.2-3.68"/><path class="cls-48" d="M208.1,368.69l-.53.85,3.29,2.76"/><path class="cls-48" d="M219.23,374.41a5.43,5.43,0,0,0,2.11-2.09"/><path class="cls-48" d="M221.52,365.46l.66-3.94"/><path class="cls-48" d="M219.84,351.92l-.9-.56a20.81,20.81,0,0,0,2.4,4.17"/><path class="cls-48" d="M226.45,361.57l-.79.36a16.71,16.71,0,0,0,3.05-3.18"/><path class="cls-48" d="M227,375l2.09-2.41"/><path class="cls-48" d="M201.53,382.53l2.1,2.39"/><path class="cls-48" d="M211.44,389.7l1.5-4.2"/><path class="cls-48" d="M206.36,380.75l-1.15.24,2.87,1.64"/><path class="cls-48" d="M221,384.9c0,1.28,1.77-2.93,2.4-3.89"/><path class="cls-48" d="M226.81,393.64l2.39-4.2"/><path class="cls-48" d="M216.21,401.8c-.37-.17-.31.58,0,.84l2.12,1.74"/><path class="cls-48" d="M228.45,404.45a2.35,2.35,0,0,1,.11-3"/><path class="cls-48" d="M235.59,391a20.41,20.41,0,0,0,3.19,4.37"/><path class="cls-48" d="M239.83,407.06a8.81,8.81,0,0,1,1.31-3.26"/><path class="cls-48" d="M242.86,386.15a1,1,0,0,0-1.36,0,47,47,0,0,0,3.06,5.16"/><path class="cls-48" d="M245.36,404.38l.15-6.89"/><path class="cls-48" d="M235.36,401.49a9.4,9.4,0,0,1-1.07-2.94c-.33-1-1.15-2-2.19-1.91"/><path class="cls-48" d="M217.91,393.24a5.64,5.64,0,0,0,2,6.51"/><path class="cls-48" d="M207.85,394.48a6.19,6.19,0,0,1,2.66,6"/><path class="cls-48" d="M206.09,402.88a6.9,6.9,0,0,0,5.08,6.51"/><path class="cls-48" d="M219.38,410.67a4.43,4.43,0,0,0-2.26-3.86"/><path class="cls-48" d="M228.83,413.68l2.4-3.3"/><path class="cls-48" d="M233.57,406c-1.27-1.81-2.7-3.74-4.83-4.34"/><path class="cls-48" d="M232.11,387.91l-.82-.68,2.24-5.66"/><path class="cls-48" d="M227.51,379.41c.09,0-.07.17-.12.08s0-.19.08-.27l3.28-3.79"/><path class="cls-48" d="M224,357.8q1.91-2.42,3.62-5"/><path class="cls-49" d="M260.8,421.32a5.56,5.56,0,0,1,.91,3.14c.11,3.93-.89,7.2-2.91,9.5,1.39-1.58-1.91-9.31-3.12-12.29-.54-1.33-2.78-4.79-1.67-5.24S259.87,419.93,260.8,421.32Z"/></g><g id="dør"><rect class="cls-50" x="1733.52" y="716.65" width="9.89" height="62.48" rx="2.75" ry="2.75" transform="translate(3476.93 1495.79) rotate(180)"/><path class="cls-51" d="M1910.19,195.42s-120.7,20.23-160.94,10.79c0,0,12.93,600.07-5.74,612.21l175.3,51.24Z"/><rect class="cls-50" x="1737.12" y="268.04" width="9.89" height="63.83" rx="2.75" ry="2.75" transform="translate(3484.12 599.9) rotate(180)"/><path class="cls-52" d="M1932.9,242.27s-136.71,22.07-150,9.3c0,0,9.67,83,5,102.41,0,0,122.76-19.1,131.92-11.64S1932.9,242.27,1932.9,242.27Z"/><path class="cls-52" d="M1942.57,437.37s-137,20.39-150.08,7.46c0,0,8.65,83.1,3.8,102.46,0,0,123-17.58,132-10S1942.57,437.37,1942.57,437.37Z"/><path class="cls-52" d="M1940,652.89s-138.25,8-150.14-6.08c0,0,1.14,83.54-5.44,102.39,0,0,124.06-6.45,132.41,1.91S1940,652.89,1940,652.89Z"/></g></g></svg>
